<svg width="11" height="18" viewBox="0 0 11 18" fill="none" xmlns="http://www.w3.org/2000/svg">
<path fill-rule="evenodd" clip-rule="evenodd" d="M7.36962 4.88713C7.36962 3.8855 6.52557 3.07102 5.48792 3.07102C4.45109 3.07102 3.60623 3.8855 3.60623 4.88713C3.60623 5.88797 4.45109 6.70298 5.48792 6.70298C6.52557 6.70298 7.36962 5.88797 7.36962 4.88713ZM10.0326 4.88712C10.0326 7.30563 7.99481 9.27293 5.48797 9.27293C2.98168 9.27293 0.943359 7.30563 0.943359 4.88712C0.943359 2.46783 2.98168 0.5 5.48797 0.5C7.99481 0.5 10.0326 2.46783 10.0326 4.88712ZM9.97746 11.7986C9.15571 12.2968 8.26354 12.6501 7.33846 12.8535L9.87902 15.3062C10.3995 15.8075 10.3995 16.6217 9.87902 17.1236C9.35911 17.6255 8.51643 17.6255 7.99706 17.1236L5.49919 14.7135L3.0035 17.1236C2.74328 17.3743 2.40229 17.4997 2.0613 17.4997C1.72085 17.4997 1.38041 17.3743 1.12018 17.1236C0.600267 16.6217 0.600267 15.808 1.11964 15.3062L3.66046 12.8535C2.73539 12.6501 1.84322 12.2963 1.02147 11.7986C0.39959 11.4201 0.21278 10.6272 0.604618 10.0264C0.995368 9.42474 1.81711 9.24363 2.44008 9.62213C4.30057 10.7519 6.69728 10.7521 8.55885 9.62213C9.18182 9.24363 10.0033 9.42474 10.3949 10.0264C10.7867 10.6266 10.5993 11.4201 9.97746 11.7986Z" fill="white"/>
</svg>
