<?xml version="1.0" encoding="utf-8"?><svg viewBox="0 0 191 201" xmlns="http://www.w3.org/2000/svg" xmlns:xlink="http://www.w3.org/1999/xlink"><style>:root>svg{display:none}:root>svg:target{display:block}</style><svg fill="none" viewBox="0 0 114 114" id="actions__logo" xmlns="http://www.w3.org/2000/svg"><path opacity=".05" d="M112.149 57c0 30.734-24.915 55.649-55.649 55.649S.851 87.734.851 57 25.766 1.351 56.5 1.351 112.149 26.266 112.149 57zM56.5 113.75c31.342 0 56.75-25.408 56.75-56.75S87.842.25 56.5.25-.25 25.658-.25 57s25.408 56.75 56.75 56.75z" fill="#fff" stroke="#fff" stroke-width=".5"/><path opacity=".1" d="M101.427 57c0 24.813-20.114 44.927-44.927 44.927-24.812 0-44.927-20.115-44.927-44.927 0-24.813 20.115-44.927 44.927-44.927 24.813 0 44.927 20.114 44.927 44.927zM56.5 103.029c25.422 0 46.03-20.608 46.03-46.03 0-25.42-20.608-46.029-46.03-46.029-25.421 0-46.03 20.608-46.03 46.03 0 25.421 20.609 46.029 46.03 46.029z" fill="#fff" stroke="#fff" stroke-width=".5"/><path opacity=".2" d="M90.128 57c0 18.573-15.056 33.628-33.628 33.628-18.572 0-33.628-15.055-33.628-33.628 0-18.572 15.056-33.628 33.628-33.628 18.572 0 33.628 15.056 33.628 33.628zM56.5 91.73c19.18 0 34.73-15.55 34.73-34.73 0-19.18-15.55-34.73-34.73-34.73-19.18 0-34.73 15.55-34.73 34.73 0 19.18 15.55 34.73 34.73 34.73z" fill="#fff" stroke="#fff" stroke-width=".5"/><path fill-rule="evenodd" clip-rule="evenodd" d="M66.863 29.5c7.879.011 14.26 6.659 14.26 14.855v15.598c.579 9.691-4.063 18.915-12.048 23.943-7.985 5.028-17.993 5.028-25.979 0-7.985-5.028-12.626-14.252-12.048-23.943V44.355c.011-8.2 6.398-14.844 14.28-14.855h21.535zm5.5 30.452V44.355a5.84 5.84 0 00-1.611-4.046 5.394 5.394 0 00-3.89-1.676H45.329c-3.037 0-5.5 2.562-5.5 5.722v15.597c0 9.346 7.283 16.923 16.267 16.923 8.984 0 16.267-7.577 16.267-16.923zm-4.845-3.402c0-2.41-1.797-4.408-4.108-4.567h-2.933V48.81c0-2.533-1.974-4.587-4.41-4.587-2.435 0-4.409 2.054-4.409 4.587v3.111h-2.933c-1.638-.113-3.2.732-4.052 2.192a4.735 4.735 0 000 4.75c.852 1.46 2.414 2.305 4.052 2.192h2.933v3.112c0 2.516 1.961 4.557 4.38 4.557 2.42 0 4.38-2.04 4.38-4.557v-3.052h2.992c2.311-.16 4.108-2.156 4.108-4.566z" fill="#fff"/></svg><svg fill="none" viewBox="0 0 41 40" id="advantages_chat" xmlns="http://www.w3.org/2000/svg"><path fill-rule="evenodd" clip-rule="evenodd" d="M37.208 25v7.643c0 1.485-1.795 2.228-2.845 1.178l-5.53-5.53L37.208 25z" fill="#156FF0"/><path fill-rule="evenodd" clip-rule="evenodd" d="M8.833 5a5 5 0 00-5 5v15a5 5 0 005 5h23.334a5 5 0 005-5V10a5 5 0 00-5-5H8.833zm2.41 10.28a1.667 1.667 0 00-.463 2.311c2.516 3.774 5.796 5.742 9.72 5.742 3.924 0 7.204-1.968 9.72-5.742a1.667 1.667 0 10-2.773-1.849C25.518 18.635 23.243 20 20.5 20c-2.743 0-5.018-1.365-6.947-4.258a1.667 1.667 0 00-2.31-.462z" fill="#156FF0"/></svg><svg fill="none" viewBox="0 0 41 40" id="advantages_consultation" xmlns="http://www.w3.org/2000/svg"><path d="M5.5 11.667c0-.92.746-1.667 1.667-1.667h26.666c.92 0 1.667.746 1.667 1.667v1.666c0 .92-.746 1.667-1.667 1.667H7.167c-.92 0-1.667-.746-1.667-1.667v-1.666zM7.167 20c0-.92.746-1.667 1.666-1.667h8.334c.92 0 1.666.747 1.666 1.667v11.667c0 .92-.746 1.666-1.666 1.666H8.833c-.92 0-1.666-.746-1.666-1.666V20zM23.833 18.333c-.92 0-1.666.747-1.666 1.667v11.667c0 .92.746 1.666 1.666 1.666h8.334c.92 0 1.666-.746 1.666-1.666V20c0-.92-.746-1.667-1.666-1.667h-8.334z" fill="#156FF0"/><path opacity=".3" d="M24.576 3.613a1.667 1.667 0 111.848 2.774l-5.924 3.95-5.925-3.95a1.667 1.667 0 111.85-2.774L20.5 6.33l4.076-2.717z" fill="#156FF0"/></svg><svg fill="none" viewBox="0 0 41 40" id="advantages_mz" xmlns="http://www.w3.org/2000/svg"><path fill-rule="evenodd" clip-rule="evenodd" d="M20.5 36.667c9.205 0 16.667-7.462 16.667-16.667 0-9.205-7.462-16.667-16.667-16.667-9.205 0-16.667 7.462-16.667 16.667 0 9.205 7.462 16.667 16.667 16.667zm3.333-25c0-.92-.746-1.667-1.666-1.667h-3.334c-.92 0-1.666.746-1.666 1.667v5h-5c-.92 0-1.667.746-1.667 1.666v3.334c0 .92.746 1.666 1.667 1.666h5v5c0 .92.746 1.667 1.666 1.667h3.334c.92 0 1.666-.746 1.666-1.667v-5h5c.92 0 1.667-.746 1.667-1.666v-3.334c0-.92-.746-1.666-1.667-1.666h-5v-5z" fill="#0065D8"/></svg><svg fill="none" viewBox="0 0 41 40" id="advantages_star" xmlns="http://www.w3.org/2000/svg"><path fill-rule="evenodd" clip-rule="evenodd" d="M20.5 30l6.807 3.579a1.667 1.667 0 002.419-1.757l-1.3-7.58 5.507-5.368a1.667 1.667 0 00-.924-2.843l-7.61-1.106-3.404-6.897a1.667 1.667 0 00-1.495-.93V30z" fill="#ADCBF3"/><path fill-rule="evenodd" clip-rule="evenodd" d="M20.5 7.099c-.614 0-1.204.341-1.495.93l-3.403 6.896L7.99 16.03a1.666 1.666 0 00-.924 2.843l5.508 5.368-1.3 7.58a1.667 1.667 0 002.418 1.757L20.5 30V7.099z" fill="#156FF0"/></svg><svg viewBox="0 0 10 19" id="fb_icon" xmlns="http://www.w3.org/2000/svg"><path fill-rule="evenodd" clip-rule="evenodd" d="M6.705 18.012V10.18h2.553l.339-3.187H6.705l.004-1.595c0-.832.08-1.277 1.273-1.277H9.58V.933H7.025C3.958.933 2.878 2.48 2.878 5.08v1.913H.967v3.187h1.911v7.832h3.827z"/></svg><svg fill="none" viewBox="0 0 24 24" id="footer_phone_icon" xmlns="http://www.w3.org/2000/svg"><path fill-rule="evenodd" clip-rule="evenodd" d="M11.915 14.143l2.204-2.204a2 2 0 00.375-2.309l-.125-.25a2 2 0 01.374-2.308l2.733-2.733a.5.5 0 01.8.13l1.105 2.208a4.387 4.387 0 01-.822 5.064L12.56 17.74a5.427 5.427 0 01-5.554 1.311l-2.414-.805a.5.5 0 01-.195-.828l2.65-2.65a2 2 0 012.31-.376l.25.125a2 2 0 002.308-.374z" fill="#fff"/></svg><svg fill="none" viewBox="0 0 161 201" id="image_female" xmlns="http://www.w3.org/2000/svg"><g clip-path="url(#hclip0)"><path fill-rule="evenodd" clip-rule="evenodd" d="M111.463 181.498L73.882 311.144l-17.677 97.34H38.463l17.71-226.986h55.29z" fill="#FFC4C7"/><path fill-rule="evenodd" clip-rule="evenodd" d="M111.463 181.498L73.882 311.144l-17.677 97.34H38.463l17.71-226.986h55.29z" fill="#000" fill-opacity=".1"/><path fill-rule="evenodd" clip-rule="evenodd" d="M128.355 181.498c-2.623 67.351-1.589 104.086-1.002 110.205.588 6.119 3.919 47.099 26.623 118.835h-18.452c-30.068-68.818-40.566-109.799-44.013-118.835-3.45-9.037-13.635-45.771-28.505-110.205h65.349z" fill="#FFC4C7"/><path fill-rule="evenodd" clip-rule="evenodd" d="M112.271 181.498C102.496 226.11 85.59 297.321 61.55 395.131H35.6c-1.916-100.393 6.237-166.468 20.356-213.633h56.315z" fill="#69A1AC"/><path fill-rule="evenodd" clip-rule="evenodd" d="M128.484 181.498c-2.568 67.351 4.087 133.704 24.705 214.682h-27.687c-30.124-67.79-51.715-133.815-66.47-214.682h69.452z" fill="#89C5CC"/><path d="M69.614 104.485l20.245-2.714c7.794-.315 18.833-.381 20.206-22.455.336-5.385-2.587-23.453-4.936-29.033-5.131-12.185-.204-12.203-5.062-31.313-5.633-22.163-22.569-14.2-22.569-14.2S49.413 18.065 47.986 30.613c-2.2 19.327 4.784 14.574 1.165 28.973-1.815 7.218-2.192 27.411 4.086 37.588 4.57 7.408 11.168 7.522 16.377 7.311z" fill="#3F4655"/><path d="M69.254 69.856c5.56 19.284 23.62.678 24.063-5.971a54.509 54.509 0 01-2.745-19.195l-22.156 8.873c.078.654.156 1.312.236 1.972.43 3.139.69 6.298.78 9.464a46.343 46.343 0 01-.178 4.857z" fill="#FFC4C7"/><path d="M69.43 64.998c11.69-3.06 18.904-15.51 18.904-15.51L68.65 55.535c.43 3.138.69 6.297.78 9.463z" fill="#E8ABAC"/><path d="M62.883 37.055s-1.92-5.474-6.375-4.075c-4.455 1.4-4.16 16.381 4.378 15.648l1.997-11.573z" fill="#3F4655"/><path d="M56.165 36.326c.025.494.07 1.019.135 1.573.07.618.165 1.264.284 1.94.134.773.3 1.58.49 2.409.113.499.236 1.004.37 1.516 2.058 7.949 5.556 11.492 9.465 13.212 6.44 2.836 21.821-4.464 24.022-10.499 1.59-4.361 1.635-2.584 1.639-14.163.005-11.578-4.954-17.746-4.954-17.746-6.668-7.058-18.018-5.5-25.226-.367-7.212 5.131-6.611 14.123-6.225 22.125z" fill="#FFC4C7"/><path d="M64.405 46.313s2.461.732 4.085.778c1.83.051 4.362-.718 4.362-.718s-1.777 2.675-4.257 2.375c-2.48-.3-4.19-2.435-4.19-2.435z" fill="#fff"/><path d="M59.404 44.23c1.163-.047 2.055-1.344 1.993-2.898-.063-1.553-1.056-2.775-2.22-2.728-1.163.047-2.055 1.345-1.993 2.898.063 1.554 1.056 2.775 2.22 2.728z" fill="url(#hpaint0_linear)"/><path d="M79.942 43.012a2.62 2.62 0 00-.211-5.237 2.618 2.618 0 00-2.51 2.724 2.619 2.619 0 002.72 2.513z" fill="url(#hpaint1_linear)"/><path d="M68.708 32.735l-2.336 5.852a2.945 2.945 0 00.734 3.253l1.208 1.117" stroke="#3F4655" stroke-width=".286" stroke-linecap="round" stroke-linejoin="round"/><path d="M75.499 41.736a7.276 7.276 0 006.987-4.086 7.304 7.304 0 00-1.095-8.03 7.278 7.278 0 00-7.827-2.06 7.283 7.283 0 00-3.423 2.483 7.307 7.307 0 00-1.472 3.97 7.314 7.314 0 001.82 5.276 7.286 7.286 0 005.01 2.447zm.816-13.486a6.208 6.208 0 015.492 4.18 6.213 6.213 0 01-5.029 8.187 6.203 6.203 0 01-6.2-3.025 6.218 6.218 0 015.737-9.342zM58.735 42.869a7.272 7.272 0 004.113-.982 7.29 7.29 0 002.875-3.105 7.305 7.305 0 00-1.096-8.03 7.28 7.28 0 00-7.826-2.06 7.284 7.284 0 00-3.424 2.484 7.301 7.301 0 00-1.47 3.97 7.31 7.31 0 001.82 5.276 7.286 7.286 0 005.008 2.447zm.817-13.486a6.2 6.2 0 013.379 1.255 6.217 6.217 0 012.248 6.531 6.219 6.219 0 01-1.889 3.074 6.203 6.203 0 01-9.476-1.52 6.225 6.225 0 01-.835-3.512 6.228 6.228 0 012.083-4.275 6.208 6.208 0 014.49-1.553z" fill="#FDFEFF"/><path d="M66.333 35.851a1.798 1.798 0 012.493-.261l.63-.873a2.835 2.835 0 00-3.949.446l.826.688zM82.479 32.795a.541.541 0 00.433-.178c.057-.05.949-.785 4.796-1.171a.539.539 0 00-.108-1.07c-4.427.443-5.365 1.366-5.509 1.547a.535.535 0 00-.069.553.542.542 0 00.457.319zM52.411 35.716a.529.529 0 00.32-.084 6.676 6.676 0 012.892-.63.538.538 0 10-.004-1.077 7.846 7.846 0 00-3.462.798.54.54 0 00.254.992z" fill="#FDFEFF"/><path d="M89.626 30.954s2.502-4.748 7.29-2.857c4.79 1.89 3.286 18.34-6.044 16.86l-1.246-14.003z" fill="#FFC4C7"/><path d="M88.473 22.16s-2.403 5.276-.871 8.213a14.674 14.674 0 011.38 6.498 12.45 12.45 0 003.568-11.494c-1.593-6.902-4.077-3.216-4.077-3.216z" fill="#3F4655"/><path d="M91.869 38.53a.446.446 0 00.06.333.446.446 0 00.374.206.453.453 0 00.431-.35 9.09 9.09 0 011.418-3.04c.94.78 1.693 1.505 1.703 1.514a.422.422 0 00.31.124.45.45 0 00.317-.133.445.445 0 00.122-.317.445.445 0 00-.134-.312c-.034-.033-.786-.758-1.75-1.56a5.394 5.394 0 012.715-1.594.443.443 0 00-.202-.863c-4.234.99-5.32 5.788-5.364 5.991z" fill="#161F29"/><path d="M57.256 26.92s3.814-2.143 7.26-.269M78.134 25.89s-3.911-1.96-7.265.075" stroke="#000" stroke-width=".311" stroke-linecap="round" stroke-linejoin="round"/><path d="M75.501-.064s-15.907-.3-22.245 9.633a16.94 16.94 0 00-.358 18.439s9.932 1.561 21.822-12.556c0 0 1.63 11.053 10.853 11.237 9.223.185 6.705-8.43 6.705-8.43S95.14 1.718 75.5-.065z" fill="#3F4655"/><path d="M69.898 11.006c-1.354-4.25 24.652-20.9 39.755 14.326 5.389 12.58 27.482 8.13 21.867 35.307-1.775 8.584 16.186 29.99 0 54.259-15.143 22.704-40.42-7.439-40.309-21.335.123-15.382 9.86-6.56 0-24.301-14.251-5.922-5.367-17.564-5.17-20.932.033-.699.922-3.57.951-4.282.05-2.38.103-5.164-.95-7.135-3.152-5.89-3.907-6.523-5.518-15.309.214-14.401-10.626-10.598-10.626-10.598z" fill="#3F4655"/><path d="M63.29 33.721a2 2 0 01-.202.889 1.35 1.35 0 01-.537.589.921.921 0 01-.692.09 1.146 1.146 0 01-.613-.437 1.817 1.817 0 01-.328-.819 2.104 2.104 0 01.068-.924c.09-.292.244-.541.441-.717a.998.998 0 01.666-.27c.317 0 .622.169.846.469.225.3.351.706.351 1.13zM76.59 33.721c0 .317-.07.626-.202.889a1.358 1.358 0 01-.538.589.921.921 0 01-.691.09 1.146 1.146 0 01-.614-.437 1.823 1.823 0 01-.328-.819 2.104 2.104 0 01.068-.924c.092-.292.244-.542.442-.717a.995.995 0 01.665-.27c.318 0 .621.169.846.469.225.3.352.706.352 1.13z" fill="#000"/><path fill-rule="evenodd" clip-rule="evenodd" d="M160.704 237.065c-3.185-6.503-14.035-69.887-14.035-69.887l-22.722.089s21.044 68.348 22.722 72.529c2.179 5.433-1.523 13.326-4.032 18.678-.389.829-.749 1.596-1.053 2.283 3.481 1.568 5.154-.327 6.918-2.324 1.992-2.256 4.1-4.644 9.061-2.321 1.916.897 3.731 1.957 5.503 2.994 6.12 3.579 11.744 6.868 19.393 2.119 1.214-.752 2.543-3.587-.669-5.802-8-5.52-19.527-15.178-21.086-18.358zM-2.385 210.222l23.914-35.941 13.677 15.314-27.428 25.204C2.54 228.91-.943 235.266-2.672 233.865c-1.456-1.184-1.255-2.859-1.07-4.401.145-1.202.28-2.325-.387-3.071-1.521-1.704-7.58.734-13.23 3.295-5.65 2.563-4.895-.657-3.957-2.45 4.644-5.73 10.954-11.402 18.931-17.016z" fill="#FFC4C7"/><path fill-rule="evenodd" clip-rule="evenodd" d="M73.243 69.694l-9.534.354c-8.543 5.365-27.506 85.159-60.128 126.021l37.493 30.159C70.79 171.576 85.058 118.65 73.243 69.694z" fill="#191847"/><path fill-rule="evenodd" clip-rule="evenodd" d="M123.09 204.333H39.494s15.2-89.436 29.05-134.694l25.217-4.217c19.818 35.774 25.415 79.819 29.329 138.911z" fill="#fff"/><path fill-rule="evenodd" clip-rule="evenodd" d="M161.136 226.226c-9.155-103.925-66.87-160.804-66.87-160.804l-.02.019-.011-.019h-1.65c-2.957.103-9.012.37-9.012.37l-6.102 17.545c-11.308 41.075-11.308 129.331-11.308 129.331h54.799a263.286 263.286 0 01-.631 13.558h40.805z" fill="#2F3676"/><path fill-rule="evenodd" clip-rule="evenodd" d="M120.952 213.099c.438-19.415-1.274-37.647-4.13-54.145-1.495 19.577-4.616 43.134-11.136 54.145h15.266z" fill="#000" fill-opacity=".1"/><path fill-rule="evenodd" clip-rule="evenodd" d="M108.826 179.189l-27.061-12.657v12.657h27.061z" fill="#fff" fill-opacity=".2"/></g><defs><linearGradient id="hpaint0_linear" x1="491.771" y1="171.662" x2="678.576" y2="644.245" gradientUnits="userSpaceOnUse"><stop stop-color="#FFCBD1"/><stop offset="1" stop-color="#FFCBD1"/></linearGradient><linearGradient id="hpaint1_linear" x1="453.408" y1="162.804" x2="595.073" y2="626.355" gradientUnits="userSpaceOnUse"><stop stop-color="#FFCBD1"/><stop offset="1" stop-color="#FFC4C7"/></linearGradient><clipPath id="hclip0"><path fill="#fff" d="M0 0h161v204H0z"/></clipPath></defs></svg><svg viewBox="0 0 20 21" id="inst_icon" xmlns="http://www.w3.org/2000/svg"><path fill-rule="evenodd" clip-rule="evenodd" d="M9.973.556c-2.693 0-3.031.011-4.089.06-1.056.048-1.776.215-2.407.46A4.856 4.856 0 001.72 2.22 4.868 4.868 0 00.576 3.976c-.246.63-.413 1.352-.46 2.407-.048 1.058-.06 1.396-.06 4.09 0 2.692.011 3.03.06 4.087.048 1.056.215 1.777.46 2.407a4.86 4.86 0 001.144 1.757 4.855 4.855 0 001.756 1.144c.63.245 1.352.413 2.407.461 1.058.048 1.396.06 4.089.06 2.693 0 3.03-.012 4.088-.06 1.056-.048 1.777-.216 2.408-.46a4.851 4.851 0 001.756-1.145 4.868 4.868 0 001.144-1.757c.244-.63.411-1.351.46-2.407.048-1.057.06-1.395.06-4.088s-.012-3.031-.06-4.089c-.049-1.055-.216-1.776-.46-2.407a4.867 4.867 0 00-1.144-1.756 4.848 4.848 0 00-1.756-1.144c-.633-.245-1.354-.412-2.41-.46-1.057-.049-1.394-.06-4.088-.06h.003zm-.89 1.787h.89c2.647 0 2.961.01 4.007.057.967.044 1.491.205 1.841.341.463.18.793.395 1.14.742.347.347.562.677.742 1.14.135.35.297.874.341 1.841.048 1.045.058 1.36.058 4.006s-.01 2.96-.058 4.006c-.044.967-.206 1.491-.341 1.84-.18.463-.395.793-.742 1.14a3.066 3.066 0 01-1.14.742c-.35.136-.874.297-1.841.341-1.046.048-1.36.058-4.007.058-2.648 0-2.962-.01-4.008-.058-.967-.044-1.491-.206-1.841-.342a3.07 3.07 0 01-1.14-.741 3.073 3.073 0 01-.743-1.14c-.135-.35-.297-.874-.341-1.84-.048-1.046-.057-1.36-.057-4.009 0-2.648.01-2.96.057-4.005.044-.967.206-1.492.341-1.842.18-.462.395-.793.743-1.14a3.078 3.078 0 011.14-.742c.35-.136.874-.298 1.841-.342.915-.041 1.27-.054 3.118-.056v.003zm6.184 1.646a1.19 1.19 0 100 2.38 1.19 1.19 0 000-2.38zM9.973 5.38a5.093 5.093 0 100 10.186 5.093 5.093 0 000-10.185zm0 1.788a3.306 3.306 0 110 6.61 3.306 3.306 0 010-6.61z"/></svg><svg fill="none" viewBox="0 0 161 19" id="mz_logo_footer" xmlns="http://www.w3.org/2000/svg"><path fill-rule="evenodd" clip-rule="evenodd" d="M34.844 2.31a.747.747 0 010-.097l.023-.005a.956.956 0 010-.102V1.9a.689.689 0 010-.102.663.663 0 010-.102.833.833 0 01.036-.097l.04-.092a.93.93 0 01.054-.088l.059-.078.067-.074a.217.217 0 01.035-.031c.02-.015.038-.03.038-.043l.08-.06.09-.05.09-.047.096-.032.103-.046h.402l.09.046.09.032.094.046.086.051.09.06a.557.557 0 01.063.074.345.345 0 01.068.074l.063.078.059.079.044.092c.032.032.032.065.032.097l.027.102v.101a.749.749 0 010 .102.818.818 0 010 .106V2.2l-.027.097c-.032.032-.032.064-.032.097a.572.572 0 01-.044.092.558.558 0 01-.05.088.396.396 0 01-.063.083.369.369 0 01-.068.078l-.072.07-.113.074-.085.055-.095.041-.09.033a.625.625 0 01-.1.027.343.343 0 01-.098 0h-.203a.365.365 0 01-.1 0l-.094-.027-.095-.033-.09-.041-.09-.055-.081-.06-.072-.07-.068-.078a.382.382 0 01-.058-.083.563.563 0 01-.054-.088l-.041-.093a.852.852 0 01-.036-.096zm3.489 0a.747.747 0 010-.097l.022-.005a.956.956 0 010-.102V1.9a.689.689 0 010-.102.663.663 0 010-.102.833.833 0 01.036-.097.813.813 0 01.04-.092l.055-.088.05-.078.067-.074a.217.217 0 01.035-.031c.02-.015.037-.03.037-.043l.086-.06a.525.525 0 01.094-.05l.09-.047.095-.032.095-.046h.401l.099.046.095.032.09.046.085.051.081.06.077.074.05.074.076.078.032.093.045.092a.802.802 0 01.032.097l.027.102v.101a.783.783 0 010 .102.855.855 0 010 .106v.102l-.028.097a.802.802 0 01-.076.189.543.543 0 01-.05.088.637.637 0 01-.058.083l-.05.064-.077.07-.103.074-.086.055-.09.041-.095.033a.365.365 0 01-.198.028H39.112a.739.739 0 01-.095-.028l-.094-.033-.09-.041-.086-.055-.086-.06-.072-.07-.067-.078a.382.382 0 01-.059-.083l-.054-.088a.57.57 0 01-.04-.093.833.833 0 01-.036-.096zM75.78 15.733H76.72c.54.037.96.496.96 1.05 0 .555-.42 1.014-.96 1.051h-12.62a1.021 1.021 0 01-.946-.504 1.075 1.075 0 010-1.093c.199-.335.564-.53.946-.504h.929v-5.62c.002-2.917 2.308-5.282 5.156-5.287h3.02c1.422.003 2.575 1.184 2.578 2.641v8.266zm-5.597-8.806c-1.716.003-3.106 1.429-3.106 3.186v5.62h6.657V7.467a.538.538 0 00-.532-.54h-3.02zm-8.577 1.676a3.78 3.78 0 01-1.14 2.72h-.01a3.839 3.839 0 01.876 4.132c-.56 1.431-1.913 2.37-3.417 2.37h-4.282a1.043 1.043 0 01-.96-1.05c0-.555.42-1.014.96-1.051h4.282c.869-.047 1.55-.782 1.55-1.674 0-.892-.681-1.627-1.55-1.674H55.81a1.042 1.042 0 01-.96-1.05c0-.555.42-1.014.96-1.051h2.105c.869-.047 1.55-.782 1.55-1.674 0-.891-.681-1.627-1.55-1.674h-4.282a1.042 1.042 0 01-.96-1.05c0-.555.42-1.014.96-1.05h4.29c2.035.002 3.683 1.692 3.683 3.776zm-40.55-3.777h5.03c1.84.003 3.33 1.532 3.33 3.417v3.588c.136 2.23-.949 4.351-2.814 5.508a5.74 5.74 0 01-6.067 0c-1.865-1.157-2.95-3.278-2.814-5.508V8.243c.002-1.886 1.494-3.414 3.335-3.417zm2.515 10.898c2.098 0 3.8-1.743 3.8-3.893V8.243c0-.349-.136-.684-.377-.93a1.27 1.27 0 00-.908-.386h-5.03c-.71 0-1.285.59-1.285 1.316v3.588c0 2.15 1.702 3.893 3.8 3.893zM11.93 4.826h.171a3.177 3.177 0 012.515 1.168c.54.69.829 1.55.816 2.434v8.344c0 .58-.458 1.048-1.023 1.048s-1.023-.469-1.023-1.048V8.428c0-1.46-1.154-1.5-1.284-1.5h-.131c-1.663.06-2.986 1.449-3.006 3.153v1.247c0 .579-.459 1.048-1.024 1.048s-1.023-.47-1.023-1.048V10.08C6.9 8.377 5.578 6.99 3.917 6.927H3.78c-.13 0-1.28.042-1.28 1.501v8.344a1.06 1.06 0 01-.492.97 1.007 1.007 0 01-1.066 0 1.06 1.06 0 01-.492-.97V8.428a3.836 3.836 0 01.82-2.429 3.16 3.16 0 012.51-1.168h.18a4.989 4.989 0 013.557 1.607c.151.166.294.34.428.522.13-.186.272-.363.424-.531.93-1 2.212-1.577 3.56-1.603zm70.508 0h5.03c1.841.003 3.333 1.531 3.335 3.417v3.588c.136 2.23-.948 4.351-2.814 5.508a5.74 5.74 0 01-6.067 0c-1.865-1.157-2.95-3.278-2.814-5.508V8.243c0-1.885 1.49-3.414 3.33-3.417zm4.415 10.376a3.911 3.911 0 001.9-3.37V8.242c0-.727-.575-1.316-1.285-1.316h-5.03c-.709 0-1.284.59-1.284 1.316v3.588c0 1.39.724 2.676 1.9 3.371a3.721 3.721 0 003.799 0zm28.428-10.376h-5.034c-1.839.005-3.328 1.533-3.331 3.417v3.588c0 3.316 2.623 6.003 5.859 6.003 3.236 0 5.859-2.687 5.859-6.003V8.243c-.002-1.884-1.491-3.412-3.33-3.417h-.023zm1.303 7.005a3.917 3.917 0 01-1.86 3.483 3.722 3.722 0 01-3.875 0 3.919 3.919 0 01-1.86-3.483V8.243a1.326 1.326 0 01.374-.93c.24-.247.566-.386.906-.386h5.035c.34 0 .666.139.906.386.241.247.375.582.374.93v3.588zm-78.45 1.556H34.8a2.977 2.977 0 01-.996-.175v.032c0 1.364 1.075 2.472 2.407 2.48h4.84c.54.037.96.496.96 1.05 0 .555-.42 1.014-.96 1.051h-4.84c-2.467-.005-4.464-2.054-4.467-4.58V7.947c.005-1.722 1.366-3.117 3.047-3.122h5.602c1.684.003 3.047 1.402 3.047 3.126-.003 3.001-2.376 5.433-5.305 5.435zm-4.041-6.16a1.034 1.034 0 00-.29.725v2.314c0 .56.44 1.015.987 1.02h3.344c1.796-.002 3.252-1.493 3.254-3.334a1.034 1.034 0 00-.29-.724.984.984 0 00-.706-.3H34.8a.984.984 0 00-.706.3zm123.514 8.423h-4.818c-1.333-.002-2.414-1.11-2.416-2.475v-.037c.322.115.66.174 1.001.175h3.339c2.919-.015 5.28-2.44 5.287-5.43-.002-1.725-1.367-3.124-3.051-3.126h-5.598a3.019 3.019 0 00-2.168.91 3.168 3.168 0 00-.901 2.216v5.292a4.64 4.64 0 001.325 3.248 4.42 4.42 0 003.182 1.328h4.84c.383.026.748-.168.947-.504a1.075 1.075 0 000-1.093 1.022 1.022 0 00-.947-.504h-.022zm-6.233-8.774h5.597c.537.013.969.457.978 1.007-.005 1.842-1.461 3.334-3.258 3.339h-3.34a1.018 1.018 0 01-1.001-1.03V7.883c0-.566.448-1.025 1.001-1.025l.023.018zm-55.099-2.05h5.584c1.685 0 3.051 1.4 3.051 3.126-.002 3.001-2.376 5.433-5.304 5.435h-3.331c-.34 0-.679-.06-1-.175v3.555a1.06 1.06 0 01-.493.97 1.007 1.007 0 01-1.066 0 1.06 1.06 0 01-.492-.97v-8.82c.002-1.724 1.368-3.12 3.051-3.12zm-.01 6.465h3.34v-.005c1.792-.005 3.245-1.489 3.255-3.324 0-.567-.448-1.026-1.001-1.026h-5.593a.984.984 0 00-.709.3 1.033 1.033 0 00-.292.726v2.308c0 .272.106.532.294.724a.984.984 0 00.707.297zm45.062-2.023h-3.339c-.341.002-.679.06-1.001.176V5.879a1.06 1.06 0 00-.492-.97 1.007 1.007 0 00-1.067 0 1.062 1.062 0 00-.492.97v8.82c.008 1.722 1.37 3.116 3.052 3.121h5.597c1.685-.002 3.049-1.4 3.052-3.126-.01-2.998-2.384-5.423-5.31-5.426zm2.254 6.465h-5.593a1.013 1.013 0 01-1.001-1.025v-2.309c.003-.564.45-1.02 1.001-1.02h3.339c1.798 0 3.256 1.492 3.259 3.334 0 .271-.106.531-.293.723a.986.986 0 01-.708.297h-.004zm-14.68-10.907h-4.957c-1.684.003-3.047 1.402-3.047 3.126V14.7c0 1.725 1.363 3.123 3.047 3.126h4.957c1.504-.003 2.855-.941 3.415-2.37a3.844 3.844 0 00-.868-4.132 3.839 3.839 0 00.87-4.13c-.56-1.43-1.913-2.367-3.417-2.367zm0 10.907h-4.957a.99.99 0 01-.708-.3 1.04 1.04 0 01-.293-.725v-2.387c.107.037.22.056.334.055h5.624c.905 0 1.639.752 1.639 1.679s-.734 1.678-1.639 1.678zm-5.633-5.449h5.633v-.009c.869-.047 1.551-.782 1.551-1.674 0-.891-.682-1.627-1.551-1.674h-4.957a.99.99 0 00-.714.297 1.04 1.04 0 00-.296.728v2.388a.993.993 0 01.334-.056zm-98.673-.286h.685c.54.037.96.496.96 1.05 0 .555-.42 1.014-.96 1.051h-.699v.702c0 .579-.458 1.048-1.023 1.048s-1.023-.47-1.023-1.048v-.716h-.685a1.021 1.021 0 01-.946-.504 1.075 1.075 0 010-1.093c.199-.335.564-.53.946-.504h.685v-.716c0-.582.461-1.055 1.03-1.055s1.03.473 1.03 1.055v.73z" fill="#646F87"/><path d="M34.844 2.213l-.02-.098-.075.015-.005.076.1.007zm0 .097l-.1.006v.011l.004.012.096-.03zm.023-.102l.02.098.084-.017-.005-.086-.1.005zm0-.102l.1.006v-.006h-.1zm0-.207h.1V1.89l-.1.008zm0-.102l.1.007V1.79l-.1.008zm0-.102l-.096-.029-.003.01-.001.012.1.007zm.036-.097l.091.04-.091-.04zm.04-.092l-.088-.048-.003.008.091.04zm.054-.088l-.08-.06-.002.003.082.057zm.059-.078l-.074-.068-.006.008.08.06zm.067-.074l.074.068.004-.005-.078-.063zm.035-.031l.062.079-.062-.08zm.038-.043l-.06-.08-.04.03v.05h.1zm.08-.06l-.049-.088-.01.008.06.08zm.09-.05l-.045-.09-.003.002.049.087zm.09-.047L35.426.94l-.007.003-.007.003.046.089zm.096-.032l.032.095.008-.004-.04-.091zm.103-.046v-.1h-.021l-.02.008.041.092zm.401 0l.046-.09-.021-.01h-.025v.1zm.09.046l-.046.09.013.004.034-.094zm.09.032l.045-.09-.01-.004-.034.094zm.095.046l.051-.086-.007-.004-.044.09zm.086.051l.055-.083-.004-.003-.051.086zm.09.06l.07-.071-.007-.007-.008-.005-.055.083zm.063.074l-.081.058.008.011.01.009.063-.078zm.068.074l-.083.056.005.006.078-.062zm.063.078l.08-.06-.002-.002-.078.062zm.059.079l.09-.044-.005-.008-.005-.008-.08.06zm.044.092l-.09.044.008.014.011.012.072-.07zm.032.097h-.1V1.7l.004.013.096-.026zm.027.102h.1v-.013l-.003-.013-.097.026zm0 .101h-.1v.007l.1-.007zm0 .102l-.1-.007v.013l.1-.006zm0 .106l-.1-.006v.006h.1zm0 .102l.096.027.004-.014V2.2h-.1zm-.027.097l.072.07.017-.019.007-.024-.096-.027zm-.032.097l.094.035.006-.017v-.018h-.1zm-.044.092l-.087-.052-.005.011.092.041zm-.05.088l-.083-.058-.004.008.087.05zm-.063.083l-.071-.07-.008.007-.005.009.084.054zm-.068.078l-.066-.075-.003.003.07.072zm-.072.07l.055.083.008-.005.006-.006-.069-.072zm-.113.074l.055.083-.055-.083zm-.085.055l.04.091.007-.003.007-.004-.054-.084zm-.095.041l.034.095.006-.003-.04-.092zm-.09.033l-.034-.094.034.094zm-.1.027l.015.1.005-.001-.02-.099zm-.098 0l.014-.098-.007-.002h-.007v.1zm-.203 0v-.1l-.014.001.014.1zm-.1 0l-.027.096.007.003h.007l.014-.099zm-.094-.027l-.032.095h.004l.028-.095zm-.095-.033l-.042.092.01.003.032-.095zm-.09-.041l-.053.086.011.005.042-.091zm-.09-.055l-.06.08.008.005.052-.086zm-.081-.06l-.07.072.01.008.06-.08zm-.072-.07l-.076.066.007.006.069-.072zm-.068-.078l.076-.066-.002-.002-.074.068zm-.058-.083l.088-.047-.004-.007-.004-.006-.08.06zm-.054-.088l-.092.04.002.004.09-.044zm-.041-.093l.092-.04-.092.04zm3.453-.193l-.02-.098-.075.015-.005.076.1.007zm0 .097l-.1.006v.011l.004.012.096-.03zm.022-.102l.02.098.084-.017-.004-.086-.1.005zm0-.102l.1.006v-.006h-.1zm0-.207h.1V1.89l-.1.008zm0-.102l.1.007V1.79l-.1.008zm0-.102l-.096-.029-.003.01v.012l.099.007zm.036-.097l.092.041.002-.006-.094-.035zm.04-.092l-.085-.053-.003.007.089.046zm.055-.088l-.085-.053.085.053zm.05-.078l-.075-.068-.005.007-.005.007.084.054zm.067-.074l.074.068.004-.005-.078-.063zm.035-.031l.061.079-.061-.08zm.037-.043l-.057-.082-.043.03v.052h.1zm.086-.06l-.056-.083-.002.001.058.082zm.094-.05l.039.092.007-.004-.046-.089zm.09-.047L38.913.94l-.007.003-.006.003.045.089zm.095-.032l.033.095.01-.005-.043-.09zm.095-.046v-.1h-.023l-.021.01.044.09zm.4 0l.043-.091-.02-.01h-.022v.1zm.1.046l-.042.09.01.004.032-.094zm.095.032l.045-.089-.006-.003-.007-.003-.032.095zm.09.046l.05-.086-.005-.003-.045.09zm.085.051l.06-.08-.009-.006-.05.086zm.081.06l.07-.073-.01-.007-.06.08zm.077.074l.083-.056-.006-.009-.007-.007-.07.072zm.05.074l-.083.056.005.007.006.007.072-.07zm.076.078l.095-.032-.007-.021-.016-.017-.072.07zm.032.093l-.095.032.005.012.09-.044zm.045.092l.093-.037-.003-.007-.09.044zm.032.097l-.097.025.096-.025zm.027.102h.1v-.014l-.004-.012-.096.026zm0 .101h-.1v.007l.1-.007zm0 .102l-.101-.007v.013l.1-.006zm0 .106l-.1-.006v.006h.1zm0 .102l.096.026.004-.013v-.013h-.1zm-.028.097l-.096-.027v.002l.096.025zm-.031.096l-.093-.036.093.036zm-.045.093l-.086-.052-.005.01.09.042zm-.05.088l-.082-.058-.004.007.086.05zm-.058.083l-.077-.064-.003.003.08.06zm-.05.064l.067.075.007-.007.005-.007-.079-.06zm-.077.07l.059.082.009-.008-.068-.074zm-.103.074l.054.084.004-.003-.058-.082zm-.086.055l.042.09.007-.002.006-.004-.055-.084zm-.09.041l.033.096.009-.005-.042-.09zm-.095.033l-.032-.095.032.095zm-.099.027l.014.1.007-.002-.02-.098zm-.099 0l.014-.1h-.014v.1zm-.302 0l-.021.098.01.002h.011v-.1zm-.095-.027l.035-.094h-.002l-.032.094zm-.094-.033l-.042.092.01.003.032-.095zm-.09-.041l-.055.084.006.004.007.003.042-.091zm-.086-.055l-.057.081.003.002.054-.083zm-.086-.06l-.069.072.006.005.006.004.057-.082zm-.072-.07l-.076.066.007.006.07-.072zm-.067-.078l.076-.066-.003-.002-.073.068zm-.059-.083l.089-.047-.004-.006-.085.053zm-.054-.088l-.088.048.003.004.085-.052zm-.04-.093l.095-.032-.004-.008-.092.04zM75.78 15.733h-.1v.1h.1v-.1zm.938 0l.007-.1h-.007v.1zm0 2.101v.1h.007l-.007-.1zm-12.62 0v-.1h-.007l.007.1zm-.946-.504l-.086.051.086-.05zm0-1.093l.086.051-.086-.05zm.946-.504l-.007.1h.007v-.1zm.929 0v.1h.1v-.1h-.1zm0-5.62h-.1.1zm5.156-5.287v-.1.1zm3.02 0v-.1.1zm2.578 2.641h.1-.1zm-5.598-.54v-.1.1zm-3.106 8.806h-.1v.1h.1v-.1zm6.657 0v.1h.1v-.1h-.1zm0-8.266h.1-.1zm-.532-.54v.1-.1zm-12.736 4.396v.1h.04l.03-.028-.07-.072zm1.14-2.72h-.1.1zm-1.15 2.72v-.1h-.245l.176.172.07-.072zm.876 4.132l.093.037-.093-.037zm-3.417 2.37v.1-.1zm-4.282 0l-.007.1h.007v-.1zm0-2.101v-.1h-.007l.007.1zm4.282 0v.1h.005l-.005-.1zm0-3.348l.005-.1h-.005v.1zm-2.105 0l-.007.1h.007v-.1zm0-2.101v-.1h-.007l.007.1zm2.105 0v.1h.005l-.005-.1zm0-3.348l.005-.1h-.005v.1zm-4.282 0l-.007.1h.007v-.1zm0-2.1v-.101h-.007l.007.1zm4.29 0v-.1.1zm-31.837 0v-.1.1zm-5.03 0v-.1.1zm8.36 3.416h-.1.1zm0 3.588h-.1v.006l.1-.006zm-2.814 5.508l-.052-.085.053.085zm-6.067 0l.052-.085-.052.085zm-2.814-5.508l.1.006v-.006h-.1zm0-3.588h-.1.1zm9.273-.93l-.072.07.072-.07zM12.101 4.826v.1h.002l-.002-.1zm-.17 0v-.1h-.003l.002.1zm2.685 1.168l.08-.061-.002-.002-.078.063zm.816 2.434l-.1-.001v.001h.1zm-3.461-1.5v-.1h-.004l.004.1zM8.965 10.08l-.1-.001v.001h.1zm-2.047 0h.1-.1zM3.917 6.927l.003-.1h-.003v.1zM2.5 16.772h-.1v.007l.1-.007zm-.492.97l-.052-.085.052.085zm-1.066 0l.053-.085-.053.085zm-.492-.97l.1.007v-.007h-.1zm0-8.344h.1v-.001l-.1.001zm.82-2.429l-.077-.063-.001.001L1.27 6zm2.51-1.168l-.002.1h.002v-.1zm.18 0l.003-.1h-.002v.1zm3.557 1.607l.074-.067V6.37l-.074.068zm.428.522l-.08.059.082.111.08-.113-.082-.057zm.424-.531l-.074-.069v.002l.074.067zm79.098-1.603v-.1.1zm-5.03 0v-.1.1zm8.365 3.417h.1-.1zm0 3.588h-.1v.006l.1-.006zM87.99 17.34l-.052-.085.052.085zm-6.067 0l.052-.085-.052.085zm-2.814-5.508l.1.006v-.006h-.1zm7.745 3.371l.05.086-.05-.086zm-3.8 0l-.05.086.05-.086zm27.194-10.376v-.1.1zm-3.331 3.417h-.1.1zm11.718 0h.1-.1zm-3.33-3.417v-.1.1zm-.58 10.488l.052.085-.052-.085zm1.86-3.483h-.1v.004l.1-.004zm-7.595 0l.1.004v-.004h-.1zm0-3.588h.1-.1zm.374-.93l.071.07-.071-.07zm.906-.386v.1-.1zm5.035 0v.1-.1zm.906.386l.072-.07-.072.07zm.374.93h-.1.1zm-81.785 5.144v.1-.1zm3.335 0v.1-.1zm-4.331-.175l.034-.094-.134-.048v.142h.1zm0 .032h.1-.1zm2.407 2.48l-.001.1v-.1zm4.84 0l.007-.1h-.007v.1zm0 2.101v.1h.007l-.007-.1zm-4.84 0v.1-.1zm-4.467-4.58h-.1.1zm0-5.297h-.1.1zm3.047-3.122v-.1.1zm5.602 0v-.1.1zm3.047 3.126h.1-.1zm-9.636 0h.1-.1zm.29-.724l.072.07-.072-.07zm-.29 3.038h.1-.1zm.987 1.02l-.001.1v-.1zm3.344 0v.1-.1zm3.254-3.334h-.1.1zm-.29-.724l-.072.07.072-.07zm-.706-.3v.1-.1zm-5.593 0v.1-.1zm117.99 8.722v.1-.1zm-2.416-2.475h-.1.1zm0-.037l.034-.094-.134-.048v.142h.1zm1.001.175l-.001.1h.001v-.1zm3.339 0v.1h.001l-.001-.1zM160 7.883h.1-.1zm-3.051-3.126v-.1.1zm-5.598 0v.1-.1zm-3.069 3.126h-.1.1zm0 5.292h-.1.1zm1.325 3.248l-.071.07.071-.07zm3.182 1.328v-.1h-.001l.001.1zm4.84 0l.007-.1h-.007v.1zm.947-1.597l.086-.05-.086.05zm-.947-.504v.1h.007l-.007-.1zm-.658-8.774l.003-.1h-.003v.1zm-5.597 0l-.064.078.028.022h.036v-.1zm6.575 1.007h.1v-.002l-.1.002zm-3.258 3.339v.1-.1zm-3.34 0v.1-.1zm0-4.364l.063-.077-.027-.023h-.036v.1zM104.91 7.952h.1-.1zm-5.304 5.435v.1-.1zm-3.331 0v.1-.1zm-1-.175l.033-.094-.134-.048v.142h.1zm0 3.555h-.1v.007l.1-.007zm-.493.97l-.052-.085.052.085zm-1.066 0l-.053.085.053-.085zm-.492-.97l.1.007v-.007h-.1zm0-8.82h-.1.1zm6.382 3.344v.1h.1v-.1h-.1zm-3.34 0v-.1.1zm3.34-.005v-.1h-.1v.1h.1zm3.254-3.324h.1-.1zm-6.594-1.026v.1-.1zm-.709.3l.072.07-.072-.07zm-.292.726h.1-.1zm0 2.308h.1-.1zm42.723-1.002v-.1h-.001l.001.1zm3.339 0v-.1.1zm-4.34.176h-.1v.142l.134-.048-.034-.094zm0-3.565l-.1-.006v.006h.1zm-2.051 0h.101l-.001-.006-.1.006zm0 8.82h-.1.1zm3.052 3.121l-.001.1h.001v-.1zm5.597 0v.1h.001l-.001-.1zm3.052-3.126h.1-.1zm-9.65-2.295h-.1.1zm1.001-1.02v.1-.1zm3.339 0v.1-.1zm3.259 3.334h.1-.1zm-.293.723l.071.07-.071-.07zm-.708.297l.001-.1h-.001v.1zM123.944 4.826v-.1.1zm4.957 0v-.1.1zm-4.957 12.999v.1-.1zm4.957 0v.1h.001l-.001-.1zm3.415-2.37l.093.036-.093-.037zm-.868-4.132l-.07-.071-.073.071.073.072.07-.072zm-8.505.998l.033-.095-.133-.046v.14h.1zm.334.055v-.1h-.001l.001.1zm5.624-2.092v.1h.1v-.1h-.1zm-5.633 0l-.001.1h.001v-.1zm5.633-.009l-.005-.1-.095.005v.095h.1zm0-3.348l.006-.1h-.006v.1zm-4.957 0l-.001.1h.001v-.1zm-.714.297l.072.07-.072-.07zm-.296.728h.1-.1zm0 2.388h-.1v.14l.133-.046-.033-.094zM25.28 9.998l.007-.1h-.007v.1zm-.685 0h-.1v.1h.1v-.1zm.685 2.101v.1h.007l-.007-.1zm-.699 0v-.1h-.1v.1h.1zm-2.046-.014h.1v-.1h-.1v.1zm-.685 0v-.1h-.007l.007.1zm-.946-.504l-.086.051.086-.05zm0-1.093l-.086-.05.086.05zm.946-.504l-.007.1h.007v-.1zm.685 0v.1h.1v-.1h-.1zm12.21-7.778a.838.838 0 000 .11l.199-.013a.656.656 0 010-.084l-.2-.013zm.101-.096l-.022.005.04.196.023-.005-.04-.196zm-.08-.009a1.1 1.1 0 000 .112l.2-.01a.867.867 0 010-.091l-.2-.01zm0-.1v.105h.2V2h-.2zm0-.102V2h.2V1.9h-.2zm0-.11a.782.782 0 000 .117l.2-.015a.596.596 0 010-.087l-.2-.015zm0-.101a.758.758 0 000 .117l.2-.016a.567.567 0 010-.086l-.2-.015zm.045-.13a.946.946 0 00-.04.108l.191.058a.739.739 0 01.032-.085l-.183-.081zm.04-.092l-.04.092.183.08.04-.092-.182-.08zm.064-.105a1.043 1.043 0 00-.06.097l.176.096a.837.837 0 01.048-.079l-.164-.114zm.06-.081l-.058.079.16.12.059-.08-.16-.119zm.075-.082l-.068.074.148.135.067-.074-.147-.135zm.047-.042c-.01.008-.034.025-.051.047l.155.126.004-.003a.36.36 0 01.015-.012l-.123-.158zm-.002.036a.078.078 0 01.015-.046l.002-.003-.003.004-.012.009.123.158c.008-.006.023-.018.036-.031a.13.13 0 00.04-.09h-.2zm.122-.14l-.081.06.119.16.081-.06-.119-.16zm.1-.058l-.09.05.099.175.09-.05-.098-.175zm.094-.048l-.09.046.091.178.09-.046-.09-.178zm.108-.038l-.094.032.064.19.095-.033-.065-.189zm.096-.043l-.104.046.081.183.104-.046-.081-.183zm.14-.008h-.1v.2h.1v-.2zm.202 0h-.203v.2h.203v-.2zm.1 0h-.1v.2h.1v-.2zm.135.057l-.09-.046-.091.178.09.046.091-.178zm.078.027l-.09-.032-.067.188.09.032.067-.188zm.105.05l-.094-.046-.088.18.095.046.087-.18zm.093.055l-.086-.05-.102.171.086.051.102-.172zm.094.063l-.09-.06-.11.166.09.06.11-.166zm.09.099a.658.658 0 00-.075-.087l-.14.142a.449.449 0 01.052.061l.163-.116zm.069.076a.442.442 0 00-.088-.096l-.126.156a.245.245 0 01.048.052l.166-.112zm.058.072l-.063-.079-.156.125.063.079.156-.125zm.06.081l-.058-.079-.16.12.058.079.16-.12zm.055.108l-.045-.092-.18.088.046.092.18-.088zm.042.141c0-.033.002-.103-.06-.167l-.143.14.002.003s0-.001 0 0v.006l.001.018h.2zm.024.076l-.027-.102-.194.052.028.101.193-.051zm.003.127v-.101h-.2v.101h.2zm0 .109a.88.88 0 000-.115l-.2.013a.651.651 0 010 .088l.2.014zm0 .105a.943.943 0 000-.118l-.2.012a.73.73 0 010 .094l.2.012zm0 .096v-.102h-.2V2.2h.2zm-.03.124l.026-.097-.192-.054-.027.097.192.054zm-.029.07a.4.4 0 010-.019l.002-.006.002-.002-.144-.14c-.061.063-.06.133-.06.167h.2zm-.059.144a.67.67 0 00.053-.109l-.187-.071a.474.474 0 01-.037.076l.171.104zm-.053.093a.651.651 0 00.059-.104l-.183-.082a.45.45 0 01-.04.072l.164.114zm-.074.096a.497.497 0 00.079-.104l-.174-.099a.296.296 0 01-.047.062l.142.141zm-.073.084a.466.466 0 00.086-.1l-.168-.108a.266.266 0 01-.05.057l.132.15zm-.069.066l.072-.07-.138-.144-.072.07.138.144zm-.127.085l.113-.074-.11-.167-.112.074.11.167zm-.086.056l.086-.056-.109-.167-.086.055.11.168zm-.109.049l.095-.042-.08-.183-.095.042.08.183zm-.096.035l.09-.032-.068-.189-.09.033.068.188zm-.114.032a.723.723 0 00.115-.032l-.07-.188a.523.523 0 01-.083.023l.038.197zm-.133 0a.444.444 0 00.128 0l-.029-.197a.244.244 0 01-.07 0l-.029.197zm-.188.002h.203v-.2h-.203v.2zm-.113-.001a.465.465 0 00.126 0l-.027-.199a.265.265 0 01-.072 0l-.027.199zm-.109-.031l.095.027.056-.191-.095-.028-.056.192zm-.099-.034l.095.032.064-.189-.094-.032-.065.19zm-.1-.045l.09.041.084-.181-.09-.042-.084.182zm-.1-.061l.09.055.105-.17-.09-.056-.105.17zm-.088-.065l.08.06.12-.16-.081-.06-.12.16zm-.082-.078l.072.07.138-.145-.072-.069-.138.144zm-.074-.085l.067.078.152-.13-.068-.079-.151.131zm-.072-.102c.02.038.045.073.074.105l.147-.136a.282.282 0 01-.044-.062l-.177.093zm-.055-.09c.018.037.04.071.064.104l.16-.12a.466.466 0 01-.045-.073l-.179.09zm-.043-.096l.041.092.183-.08-.04-.093-.184.08zm-.04-.108a.946.946 0 00.04.108l.183-.081a.738.738 0 01-.031-.086l-.192.059zm3.485-.133a.838.838 0 000 .11l.2-.013a.656.656 0 010-.084l-.2-.013zm.102-.096l-.023.005.04.196.023-.005-.04-.196zm-.08-.009a1.1 1.1 0 000 .112l.2-.01a.867.867 0 010-.091l-.2-.01zm0-.1v.105h.2V2h-.2zm0-.102V2h.2V1.9h-.2zm0-.11a.782.782 0 000 .117l.2-.015a.569.569 0 010-.087l-.2-.015zm0-.101a.758.758 0 000 .117l.2-.016a.567.567 0 010-.086l-.2-.015zm.045-.13a.946.946 0 00-.04.108l.19.058a.739.739 0 01.032-.085l-.182-.081zm.043-.098a.908.908 0 00-.046.104l.188.069a.719.719 0 01.035-.081l-.177-.092zm.058-.094l-.055.088.17.105.055-.088-.17-.105zm.05-.08l-.05.079.17.107.049-.079-.17-.107zm.078-.088l-.068.074.148.135.068-.074-.148-.135zm.048-.042c-.01.008-.034.025-.052.047l.156.126.003-.003.015-.012-.122-.158zm-.002.036a.08.08 0 01.015-.046.018.018 0 01.002-.003l-.004.004-.011.009.122.158c.008-.006.024-.018.036-.031a.13.13 0 00.04-.09h-.2zm.128-.142l-.085.06.114.164.086-.06-.115-.164zm.114-.061a.632.632 0 00-.112.06l.112.166a.428.428 0 01.076-.041l-.076-.185zM38.9.946l-.09.046.09.178.091-.046L38.9.946zm.108-.038l-.095.032.065.19.094-.033-.064-.189zm.083-.041l-.095.046.088.18.095-.047-.088-.18zm.143-.01h-.1v.2h.1v-.2zm.203 0h-.203v.2h.203v-.2zm.099 0h-.1v.2h.1v-.2zm.141.055l-.099-.046-.084.181.099.046.084-.18zm.085.028l-.095-.032-.064.19.094.032.065-.19zm.103.052l-.09-.046-.09.178.09.046.09-.178zm.091.054l-.085-.05-.102.171.085.051.102-.172zm.09.066l-.081-.06-.12.16.082.06.119-.16zm.087.082l-.077-.074-.139.144.077.074.139-.144zm.063.09l-.05-.074-.166.112.05.074.166-.112zm.065.064l-.077-.078-.143.14.077.078.143-.14zm.054.13l-.031-.092-.19.065.032.092.19-.065zm.04.081l-.044-.092-.18.088.045.092.18-.088zm.04.116a.903.903 0 00-.036-.109l-.186.074c.011.028.02.056.028.085l.193-.05zm.026.1l-.027-.1-.193.05.027.102.193-.051zm.004.128v-.101h-.2v.101h.2zm0 .108a.88.88 0 000-.114l-.2.013a.685.685 0 010 .088l.2.013zm0 .106a.943.943 0 000-.119l-.2.013a.73.73 0 010 .094l.2.012zm0 .096V2.11h-.2v.102h.2zm-.031.123l.027-.097-.193-.053-.027.097.193.053zm-.035.107a.903.903 0 00.035-.109l-.193-.05a.719.719 0 01-.028.086l.186.073zm-.053.108a.678.678 0 00.053-.109l-.186-.071a.484.484 0 01-.038.076l.172.104zm-.052.093a.643.643 0 00.058-.104l-.182-.082a.45.45 0 01-.04.072l.163.114zm-.064.09a.745.745 0 00.067-.096l-.172-.102a.547.547 0 01-.05.07l.155.128zm-.047.061l.05-.064-.16-.122-.05.065.16.121zm-.09.083l.077-.07-.134-.148-.077.07.135.148zm-.112.08l.104-.073-.117-.163-.103.074.116.163zm-.09.059l.086-.056-.108-.167-.086.055.109.168zm-.102.048l.09-.041-.084-.182-.09.042.084.181zm-.104.036l.094-.032-.064-.19-.095.033.065.19zm-.111.031a.896.896 0 00.111-.03l-.066-.19a.698.698 0 01-.086.025l.04.195zm-.133.002a.465.465 0 00.126 0l-.027-.199a.265.265 0 01-.072 0l-.027.199zm-.19 0h.203v-.2h-.203v.2zm-.099 0h.1v-.2h-.1v.2zm-.129-.033a.833.833 0 00.108.031l.043-.195a.631.631 0 01-.082-.024l-.069.188zm-.092-.032l.094.032.065-.189-.095-.032-.064.19zm-.1-.045l.09.041.084-.181-.09-.042-.084.182zm-.098-.063l.085.056.11-.168-.087-.055-.108.167zm-.089-.062l.086.06.114-.163-.085-.06-.115.163zm-.084-.079l.072.07.139-.145-.072-.069-.139.144zm-.074-.085l.068.078.151-.13-.068-.079-.151.131zm-.072-.102c.02.038.045.073.074.105l.147-.136a.282.282 0 01-.043-.062l-.178.093zm-.05-.082l.054.088.17-.105-.054-.088-.17.105zm-.05-.113a.67.67 0 00.047.11l.176-.097a.463.463 0 01-.034-.076l-.19.063zm-.037-.1a.946.946 0 00.04.109l.183-.081a.738.738 0 01-.032-.086l-.191.059zm38.477 13.295h-.933v.2h.933v-.2zm.005 0h-.005v.2h.005v-.2zm1.06 1.15c0-.604-.459-1.11-1.053-1.15l-.014.2a.943.943 0 01.867.95h.2zm-1.053 1.151a1.142 1.142 0 001.052-1.15h-.2c0 .504-.38.917-.866.95l.014.2zm-12.627 0h12.62v-.2h-12.62v.2zm-1.032-.553c.218.368.618.582 1.039.553l-.014-.2a.921.921 0 01-.853-.455l-.172.102zm0-1.195a1.175 1.175 0 000 1.195l.172-.102a.975.975 0 010-.99l-.172-.103zm1.039-.553a1.121 1.121 0 00-1.04.553l.173.102a.921.921 0 01.853-.455l.014-.2zm.922 0h-.929v.2h.929v-.2zm-.1-5.52v5.62h.2v-5.62h-.2zm5.255-5.387c-2.904.005-5.253 2.417-5.255 5.387h.2c.002-2.864 2.266-5.182 5.056-5.187v-.2zm3.02 0h-3.02v.2h3.02v-.2zm2.678 2.741c-.002-1.51-1.197-2.738-2.677-2.74v.2c1.365.002 2.475 1.136 2.478 2.54h.2zm0 8.266V7.467h-.2v8.266h.2zm-8.703-5.62c0-1.705 1.347-3.083 3.006-3.086v-.2c-1.774.003-3.206 1.476-3.206 3.286h.2zm0 5.62v-5.62h-.2v5.62h.2zm6.557-.1h-6.657v.2h6.657v-.2zm-.1-8.166v8.266h.2V7.467h-.2zm-.432-.44c.235 0 .43.195.432.441l.2-.001a.638.638 0 00-.632-.64v.2zm-3.02 0h3.02v-.2h-3.02v.2zm-9.647 4.368a3.88 3.88 0 001.17-2.792h-.2a3.68 3.68 0 01-1.11 2.648l.14.144zm-.078.028h.009v-.2h-.01v.2zm.968 4.069a3.938 3.938 0 00-.899-4.24l-.14.143a3.739 3.739 0 01.853 4.024l.186.073zm-3.51 2.433c1.547 0 2.936-.965 3.51-2.433l-.186-.073c-.545 1.394-1.862 2.306-3.325 2.306v.2zm-4.282 0h4.282v-.2h-4.282v.2zm-1.06-1.15c0 .604.459 1.11 1.053 1.15l.014-.2a.943.943 0 01-.867-.95h-.2zm1.053-1.15a1.142 1.142 0 00-1.053 1.15h.2c0-.505.381-.918.867-.951l-.014-.2zm4.288-.001h-4.281v.2h4.282v-.2zm1.45-1.574c0 .84-.641 1.53-1.455 1.574l.01.2c.925-.05 1.646-.831 1.646-1.774h-.2zm-1.455-1.574c.814.044 1.456.733 1.456 1.574h.2c0-.943-.72-1.724-1.645-1.774l-.01.2zm-2.1 0h2.105v-.2h-2.104v.2zm-1.059-1.15c0 .604.459 1.11 1.053 1.15l.014-.2a.943.943 0 01-.867-.95h-.2zm1.053-1.15a1.142 1.142 0 00-1.053 1.15h.2c0-.504.381-.918.867-.951l-.014-.2zm2.111-.001h-2.104v.2h2.105v-.2zm1.45-1.574c0 .84-.641 1.53-1.455 1.574l.01.2c.925-.05 1.646-.831 1.646-1.774h-.2zM57.91 7.027c.814.044 1.456.734 1.456 1.574h.2c0-.942-.72-1.724-1.645-1.774l-.01.2zm-4.276 0h4.282v-.2h-4.282v.2zm-1.06-1.15c0 .605.459 1.11 1.053 1.15l.014-.2a.942.942 0 01-.867-.95h-.2zm1.053-1.15a1.142 1.142 0 00-1.053 1.15h.2c0-.504.381-.918.867-.951l-.014-.2zm4.298 0h-4.291v.2h4.29v-.2zm3.782 3.876c0-2.137-1.69-3.874-3.782-3.877v.2c1.976.003 3.582 1.646 3.582 3.677h.2zm-35.62-3.877h-5.03v.2h5.03v-.2zm3.43 3.517c0-1.938-1.532-3.514-3.43-3.517v.2c1.782.003 3.23 1.485 3.23 3.317h.2zm0 3.588V8.243h-.2v3.588h.2zm-2.86 5.593c1.896-1.177 2.998-3.334 2.86-5.599l-.2.012c.134 2.194-.933 4.28-2.766 5.417l.105.17zm-6.174 0a5.84 5.84 0 006.173 0l-.105-.17a5.64 5.64 0 01-5.962 0l-.106.17zm-2.861-5.599c-.137 2.265.964 4.422 2.861 5.599l.105-.17c-1.833-1.137-2.9-3.223-2.767-5.417l-.2-.012zm0-3.582v3.588h.2V8.243h-.2zm3.435-3.517c-1.899.003-3.433 1.578-3.435 3.517h.2c.002-1.833 1.451-3.314 3.235-3.317v-.2zm6.214 7.105c0 2.097-1.658 3.793-3.7 3.793v.2c2.157 0 3.9-1.79 3.9-3.993h-.2zm0-3.588v3.588h.2V8.243h-.2zm-.348-.86c.223.227.348.537.348.86h.2c0-.375-.145-.734-.404-1l-.143.14zm-.836-.356c.313 0 .614.128.837.356l.143-.14a1.37 1.37 0 00-.98-.416v.2zm-5.03 0h5.03v-.2h-5.03v.2zm-1.185 1.216c0-.674.533-1.216 1.185-1.216v-.2c-.767 0-1.385.636-1.385 1.416h.2zm0 3.588V8.243h-.2v3.588h.2zm3.7 3.793c-2.041 0-3.7-1.696-3.7-3.793h-.2c0 2.203 1.744 3.993 3.9 3.993v-.2zM12.102 4.726h-.172v.2h.171v-.2zm2.592 1.205a3.277 3.277 0 00-2.595-1.205l.004.2a3.077 3.077 0 012.436 1.132l.155-.127zm.838 2.498a3.96 3.96 0 00-.837-2.496l-.157.123a3.76 3.76 0 01.794 2.37l.2.003zm0 8.343V8.428h-.2v8.344h.2zM14.41 17.92c.623 0 1.123-.516 1.123-1.148h-.2a.936.936 0 01-.923.948v.2zm-1.123-1.148c0 .632.5 1.148 1.123 1.148v-.2a.936.936 0 01-.923-.948h-.2zm0-8.344v8.344h.2V8.428h-.2zm-1.184-1.4c.057 0 .356.009.637.187.274.173.547.515.547 1.213h.2c0-.761-.304-1.17-.64-1.382a1.47 1.47 0 00-.745-.219v.2zm-.131 0h.13v-.2h-.13v.2zm-2.906 3.054c.02-1.653 1.302-2.995 2.91-3.055l-.008-.2c-1.718.064-3.081 1.497-3.102 3.253l.2.002zm0 1.246V10.08h-.2v1.247h.2zM7.94 12.476c.623 0 1.124-.516 1.124-1.148h-.2a.936.936 0 01-.924.948v.2zm-1.123-1.148c0 .632.5 1.148 1.123 1.148v-.2a.936.936 0 01-.923-.948h-.2zm0-1.16v1.16h.2v-1.16h-.2zm0-.04v.04h.2v-.04h-.2zm0-.047v.046h.2v-.046h-.2zM3.913 7.027c1.606.06 2.888 1.403 2.905 3.055l.2-.002C7 8.325 5.638 6.89 3.92 6.827l-.007.2zm-.132 0h.136v-.2H3.78v.2zm-1.18 1.401c0-.698.273-1.04.545-1.213.28-.178.577-.188.635-.188v-.2c-.072 0-.415.011-.742.219-.335.213-.638.621-.638 1.382h.2zm0 8.344V8.428h-.2v8.344h.2zm-.539 1.055a1.16 1.16 0 00.54-1.061l-.2.013a.96.96 0 01-.445.878l.105.17zm-1.172 0c.36.224.812.224 1.172 0l-.105-.17a.907.907 0 01-.961 0l-.106.17zm-.539-1.061c-.028.428.18.837.539 1.06l.106-.17a.96.96 0 01-.445-.877l-.2-.013zm0-8.338v8.344h.2V8.428h-.2zm.842-2.49A3.936 3.936 0 00.35 8.428l.2-.002A3.736 3.736 0 011.35 6.06l-.157-.124zm2.59-1.207a3.26 3.26 0 00-2.59 1.205l.155.126A3.06 3.06 0 013.78 4.931l.005-.2zm.179 0h-.18v.2h.18v-.2zm3.63 1.639a5.089 5.089 0 00-3.628-1.64l-.004.2a4.889 4.889 0 013.484 1.576l.147-.136zm.434.53a6.786 6.786 0 00-.434-.53l-.148.135c.149.164.29.335.422.514l.16-.119zm.27-.538a5.85 5.85 0 00-.432.54l.164.115c.128-.182.267-.356.416-.522l-.149-.133zm3.632-1.636A5.097 5.097 0 008.296 6.36l.147.137a4.897 4.897 0 013.49-1.57l-.005-.2zm75.54 0h-5.03v.2h5.03v-.2zm3.435 3.517c-.002-1.939-1.536-3.514-3.435-3.517v.2c1.784.003 3.233 1.484 3.235 3.317h.2zm0 3.588V8.243h-.2v3.588h.2zm-2.86 5.593c1.896-1.177 2.998-3.334 2.86-5.599l-.2.012c.134 2.194-.933 4.28-2.766 5.417l.105.17zm-6.174 0a5.84 5.84 0 006.173 0l-.105-.17a5.64 5.64 0 01-5.963 0l-.105.17zm-2.861-5.599c-.137 2.265.964 4.422 2.861 5.599l.105-.17c-1.833-1.137-2.9-3.223-2.767-5.417l-.2-.012zm0-3.582v3.588h.2V8.243h-.2zm3.43-3.517c-1.898.003-3.43 1.579-3.43 3.517h.2c0-1.832 1.448-3.314 3.23-3.317v-.2zm6.215 7.105a3.811 3.811 0 01-1.85 3.285l.1.172a4.01 4.01 0 001.95-3.457h-.2zm0-3.588v3.588h.2V8.243h-.2zm-1.185-1.216c.652 0 1.185.542 1.185 1.216h.2c0-.78-.618-1.416-1.385-1.416v.2zm-5.03 0h5.03v-.2h-5.03v.2zm-1.184 1.216c0-.674.532-1.216 1.184-1.216v-.2c-.767 0-1.384.636-1.384 1.416h.2zm0 3.588V8.243h-.2v3.588h.2zm1.85 3.285a3.811 3.811 0 01-1.85-3.285h-.2a4.01 4.01 0 001.949 3.457l.102-.172zm3.698 0a3.62 3.62 0 01-3.698 0l-.101.172a3.82 3.82 0 003.9 0l-.1-.172zm23.445-10.19h5.034v-.2h-5.034v.2zm-3.231 3.317c.003-1.831 1.449-3.312 3.231-3.317v-.2c-1.897.005-3.428 1.58-3.431 3.517h.2zm0 3.588V8.243h-.2v3.588h.2zm5.759 5.903c-3.178 0-5.759-2.64-5.759-5.903h-.2c0 3.369 2.666 6.103 5.959 6.103v-.2zm5.759-5.903c0 3.263-2.58 5.903-5.759 5.903v.2c3.294 0 5.959-2.735 5.959-6.103h-.2zm0-3.588v3.588h.2V8.243h-.2zm-3.231-3.317c1.782.005 3.229 1.486 3.231 3.317h.2c-.002-1.937-1.533-3.512-3.43-3.517l-.001.2zm-.022 0h.023v-.2h-.023v.2zm-.505 10.473a4.016 4.016 0 001.908-3.571l-.2.007a3.817 3.817 0 01-1.812 3.393l.104.171zm-3.979 0a3.822 3.822 0 003.979 0l-.104-.17a3.621 3.621 0 01-3.771 0l-.104.17zm-1.908-3.571a4.016 4.016 0 001.908 3.571l.104-.17a3.817 3.817 0 01-1.812-3.394l-.2-.007zm0-3.585v3.588h.2V8.243h-.2zm.402-1a1.428 1.428 0 00-.402 1h.2a1.232 1.232 0 01.345-.86l-.143-.14zm.978-.416c-.367 0-.719.15-.978.416l.143.14c.222-.228.522-.356.835-.356v-.2zm5.035 0h-5.035v.2h5.035v-.2zm.978.416a1.365 1.365 0 00-.978-.416v.2c.313 0 .613.128.835.356l.143-.14zm.402 1a1.428 1.428 0 00-.402-1l-.143.14c.221.228.346.537.345.86h.2zm0 3.588V8.243h-.2v3.588h.2zm-81.885 1.656h3.335v-.2H34.8v.2zm-1.03-.181c.33.119.679.18 1.03.181v-.2a2.88 2.88 0 01-.962-.17l-.068.189zm.134-.062v-.032h-.2v.032h.2zm2.307 2.38c-1.274-.007-2.307-1.068-2.307-2.38h-.2c0 1.417 1.117 2.572 2.506 2.58l.001-.2zm4.84 0h-4.84v.2h4.84v-.2zm1.06 1.15c0-.605-.459-1.11-1.053-1.15l-.014.2a.943.943 0 01.867.95h.2zm-1.053 1.15a1.142 1.142 0 001.053-1.15h-.2a.943.943 0 01-.867.951l.014.2zm-4.847.001h4.84v-.2h-4.84v.2zm-4.567-4.68c.003 2.58 2.043 4.675 4.566 4.68v-.2c-2.408-.005-4.363-2.007-4.366-4.48h-.2zm0-5.297v5.296h.2V7.948h-.2zm3.147-3.222c-1.738.005-3.142 1.447-3.147 3.221l.2.001c.005-1.67 1.324-3.017 2.947-3.022v-.2zm5.602 0H34.79v.2h5.602v-.2zm3.147 3.226c0-1.777-1.406-3.223-3.147-3.226v.2c1.626.003 2.947 1.354 2.947 3.026h.2zm-5.405 5.535c2.986-.002 5.402-2.481 5.405-5.535h-.2c-.002 2.948-2.334 5.333-5.205 5.335v.2zm-4.231-5.535a.934.934 0 01.262-.655l-.144-.139c-.205.211-.32.497-.318.795l.2-.001zm0 2.314V7.952h-.2v2.314h.2zm.888.92a.909.909 0 01-.888-.92h-.2c0 .612.482 1.115 1.086 1.12l.002-.2zm3.343 0H34.79v.2h3.344v-.2zm3.154-3.234c-.002 1.788-1.415 3.232-3.154 3.234v.2c1.854-.002 3.352-1.54 3.354-3.434h-.2zm-.262-.655a.933.933 0 01.262.655h.2a1.134 1.134 0 00-.318-.794l-.144.14zm-.634-.27c.238 0 .466.097.634.27l.144-.139a1.084 1.084 0 00-.778-.33v.2zm-5.593 0h5.593v-.2H34.8v.2zm-.634.27a.884.884 0 01.634-.27v-.2c-.292 0-.572.12-.778.331l.144.14zm118.624 8.453h4.818v-.2h-4.818v.2zm-2.516-2.575c.003 1.419 1.125 2.572 2.516 2.575v-.2c-1.276-.002-2.314-1.062-2.316-2.375h-.2zm0-.037v.037h.2v-.037h-.2zm1.101.075a2.904 2.904 0 01-.967-.17l-.068.19c.333.118.682.18 1.034.18l.001-.2zm3.339 0h-3.339v.2h3.339v-.2zm5.187-5.33c-.007 2.938-2.326 5.316-5.187 5.33l.001.2c2.976-.015 5.379-2.486 5.386-5.53h-.2zm-2.951-3.026c1.626.002 2.949 1.354 2.951 3.026h.2c-.003-1.778-1.41-3.223-3.151-3.226v.2zm-5.598 0h5.598v-.2h-5.598v.2zm-2.097.88a2.921 2.921 0 012.097-.88v-.2a3.117 3.117 0 00-2.239.94l.142.14zm-.872 2.146a3.07 3.07 0 01.872-2.146l-.142-.14a3.266 3.266 0 00-.93 2.286h.2zm0 5.292V7.883h-.2v5.292h.2zm1.296 3.178a4.541 4.541 0 01-1.296-3.178h-.2a4.739 4.739 0 001.354 3.318l.142-.14zm3.11 1.298a4.321 4.321 0 01-3.11-1.298l-.142.14a4.518 4.518 0 003.253 1.358l-.001-.2zm4.841 0h-4.84v.2h4.84v-.2zm.861-.455a.921.921 0 01-.854.455l-.013.2c.421.029.821-.185 1.039-.553l-.172-.102zm0-.99c.18.303.18.686 0 .99l.172.102a1.178 1.178 0 000-1.195l-.172.102zm-.854-.456a.921.921 0 01.854.455l.172-.102a1.121 1.121 0 00-1.039-.553l.013.2zm-.029 0h.022v-.2h-.022v.2zm-.636-8.974h-5.597v.2h5.597v-.2zm1.078 1.105a1.113 1.113 0 00-1.075-1.105l-.005.2c.481.011.872.41.88.909l.2-.004zm-3.358 3.44c1.855-.005 3.353-1.543 3.358-3.438h-.2c-.004 1.789-1.418 3.234-3.159 3.239l.001.2zm-3.34 0h3.34v-.2h-3.34v.2zm-1.101-1.13c0 .62.49 1.128 1.101 1.13v-.2a.918.918 0 01-.901-.93h-.2zm0-2.308v2.309h.2V7.883h-.2zm1.101-1.125c-.61 0-1.101.506-1.101 1.125h.2c0-.513.406-.925.901-.925v-.2zm.086.041l-.023-.018-.126.154.022.019.127-.155zm-49.578-2.073h-5.584v.2h5.584v-.2zm3.151 3.226c0-1.78-1.408-3.226-3.151-3.226v.2c1.628 0 2.951 1.353 2.951 3.026h.2zm-5.404 5.535c2.986-.002 5.402-2.481 5.404-5.535h-.2c-.002 2.948-2.333 5.333-5.204 5.335v.2zm-3.331 0h3.33v-.2h-3.33v.2zm-1.034-.181c.332.12.681.18 1.034.181v-.2c-.33 0-.656-.058-.967-.17l-.067.189zm.133 3.461v-3.555h-.2v3.555h.2zm-.539 1.055a1.16 1.16 0 00.54-1.061l-.2.013a.96.96 0 01-.445.878l.105.17zm-1.172 0c.36.224.812.224 1.172 0l-.105-.17a.906.906 0 01-.962 0l-.105.17zm-.54-1.061c-.027.428.18.837.54 1.061l.106-.17a.96.96 0 01-.446-.878l-.2-.013zm0-8.813v8.82h.2v-8.82h-.2zm3.152-3.222c-1.74 0-3.149 1.444-3.151 3.222h.2c.002-1.672 1.325-3.022 2.951-3.022v-.2zm3.33 6.465h-3.34v.2h3.34v-.2zm-.1.095v.005h.2v-.005h-.2zm3.255-3.325c-.01 1.783-1.42 3.22-3.155 3.225v.2c1.85-.005 3.345-1.536 3.355-3.424h-.2zm-.901-.925c.495 0 .901.412.901.926h.2c0-.62-.491-1.126-1.101-1.126v.2zm-5.593 0h5.593v-.2h-5.593v.2zm-.637.27a.884.884 0 01.636-.27l.001-.2a1.084 1.084 0 00-.78.33l.143.14zm-.264.655a.933.933 0 01.264-.656l-.144-.14a1.133 1.133 0 00-.32.797h.2zm0 2.31V7.96h-.2v2.31h.2zm.265.653a.933.933 0 01-.265-.654h-.2c0 .298.116.583.322.794l.143-.14zm.636.267a.884.884 0 01-.636-.267l-.143.14c.207.21.487.328.78.327l-.001-.2zm41.722-1.823h3.339v-.2h-3.339v.2zm-.967.17c.311-.111.638-.168.967-.17l-.001-.2a3.107 3.107 0 00-1.034.182l.068.188zm-.134-3.659v3.565h.2V5.879h-.2zm-.445-.885a.96.96 0 01.445.879l.2.012a1.16 1.16 0 00-.539-1.06l-.106.17zm-.961 0a.907.907 0 01.961 0l.106-.17a1.106 1.106 0 00-1.172 0l.105.17zm-.445.879a.962.962 0 01.445-.879l-.105-.17a1.16 1.16 0 00-.539 1.061l.199-.012zm0 8.826v-8.82h-.2v8.82h.2zm2.952 3.021c-1.624-.005-2.944-1.352-2.952-3.022l-.2.001c.008 1.775 1.413 3.216 3.151 3.221l.001-.2zm5.597 0h-5.597v.2h5.597v-.2zm2.952-3.026c-.003 1.673-1.325 3.024-2.952 3.026l.001.2c1.741-.002 3.148-1.447 3.151-3.226h-.2zm-5.21-5.326c2.869.003 5.2 2.381 5.21 5.326h.2c-.01-3.05-2.426-5.523-5.41-5.526v.2zm-3.339 6.465h5.593v-.2h-5.593v.2zm-1.101-1.125c0 .62.491 1.125 1.101 1.125v-.2a.914.914 0 01-.901-.925h-.2zm0-2.309v2.309h.2v-2.309h-.2zm1.101-1.12c-.608 0-1.098.503-1.101 1.12h.2a.913.913 0 01.901-.92v-.2zm3.339 0h-3.339v.2h3.339v-.2zm3.359 3.434c-.003-1.895-1.503-3.434-3.359-3.434v.2c1.741 0 3.157 1.445 3.159 3.234h.2zm-.322.793c.206-.21.322-.496.322-.793h-.2c0 .245-.096.48-.265.653l.143.14zm-.779.327c.292.002.573-.117.779-.327l-.143-.14a.884.884 0 01-.635.267l-.001.2zm-.004 0h.004v-.2h-.004v.2zM123.944 4.926h4.957v-.2h-4.957v.2zm-2.947 3.026c0-1.672 1.321-3.023 2.947-3.026v-.2c-1.741.003-3.147 1.449-3.147 3.226h.2zm0 6.747V7.952h-.2V14.7h.2zm2.947 3.026c-1.626-.003-2.947-1.354-2.947-3.026h-.2c0 1.777 1.406 3.223 3.147 3.226v-.2zm4.957 0h-4.957v.2h4.957v-.2zm3.322-2.307c-.546 1.392-1.861 2.304-3.322 2.307l.001.2c1.545-.003 2.933-.967 3.507-2.434l-.186-.073zm-.845-4.023a3.745 3.745 0 01.845 4.023l.186.073a3.945 3.945 0 00-.891-4.239l-.14.143zm.847-4.166a3.738 3.738 0 01-.847 4.023l.14.143a3.938 3.938 0 00.893-4.239l-.186.073zm-3.324-2.303c1.462 0 2.778.911 3.324 2.303l.186-.073c-.575-1.466-1.964-2.43-3.51-2.43v.2zm-4.957 10.907h4.957v-.2h-4.957v.2zm-.779-.33c.206.211.486.33.779.33v-.2a.888.888 0 01-.636-.27l-.143.14zm-.322-.795c0 .298.116.583.322.795l.143-.14a.94.94 0 01-.265-.655h-.2zm0-2.387v2.387h.2v-2.387h-.2zm.433-.045a.894.894 0 01-.3-.05l-.066.19c.118.04.242.06.367.06l-.001-.2zm5.625 0h-5.624v.2h5.624v-.2zm1.739 1.779c0-.98-.776-1.779-1.739-1.779v.2c.848 0 1.539.704 1.539 1.579h.2zm-1.739 1.778c.963 0 1.739-.799 1.739-1.778h-.2c0 .874-.691 1.578-1.539 1.578v.2zm0-5.649h-5.633v.2h5.633v-.2zm-.1.091v.01h.2v-.01h-.2zm1.551-1.674c0 .84-.642 1.53-1.456 1.574l.011.2c.924-.05 1.645-.831 1.645-1.774h-.2zm-1.456-1.574c.814.044 1.456.734 1.456 1.574h.2c0-.942-.721-1.724-1.645-1.774l-.011.2zm-4.952 0h4.957v-.2h-4.957v.2zm-.642.267a.886.886 0 01.641-.267l.002-.2a1.088 1.088 0 00-.786.327l.143.14zm-.268.658c0-.247.097-.484.268-.658l-.143-.14a1.14 1.14 0 00-.325.798h.2zm0 2.388V7.952h-.2v2.388h.2zm.234-.156c-.125 0-.249.02-.367.061l.066.19a.894.894 0 01.3-.05l.001-.2zM25.28 9.898h-.685v.2h.685v-.2zm1.06 1.15c0-.604-.459-1.11-1.053-1.15l-.014.2a.942.942 0 01.867.95h.2zm-1.053 1.15a1.142 1.142 0 001.053-1.15h-.2c0 .504-.381.918-.867.951l.014.2zm-.706.001h.699v-.2h-.699v.2zm.1.602v-.702h-.2v.702h.2zm-1.123 1.148c.623 0 1.123-.516 1.123-1.148h-.2a.936.936 0 01-.923.948v.2zm-1.123-1.148c0 .632.5 1.148 1.123 1.148v-.2a.936.936 0 01-.923-.948h-.2zm0-.716v.716h.2v-.716h-.2zm-.585.1h.685v-.2h-.685v.2zm-1.032-.553c.217.368.618.582 1.039.553l-.014-.2a.921.921 0 01-.853-.455l-.172.102zm0-1.195a1.175 1.175 0 000 1.195l.172-.102a.975.975 0 010-.99l-.172-.103zm1.039-.553a1.121 1.121 0 00-1.04.553l.173.102a.921.921 0 01.853-.455l.014-.2zm.678 0h-.685v.2h.685v-.2zm-.1-.616v.716h.2v-.716h-.2zm1.13-1.155c-.626 0-1.13.52-1.13 1.155h.2c0-.53.419-.955.93-.955v-.2zm1.13 1.155c0-.635-.504-1.155-1.13-1.155v.2c.511 0 .93.426.93.955h.2zm0 .73v-.73h-.2v.73h.2z" fill="#646F87"/></svg><svg fill="none" viewBox="0 0 191 21" id="mz_logo_header" xmlns="http://www.w3.org/2000/svg"><path fill-rule="evenodd" clip-rule="evenodd" d="M41.175 1.647a.969.969 0 010-.118l.027-.006a1.215 1.215 0 010-.123v-.253a.85.85 0 010-.124.823.823 0 010-.124c.012-.04.026-.08.043-.118l.049-.112c.02-.037.041-.073.065-.107l.07-.095.08-.09c.011-.014.027-.026.042-.038.023-.019.045-.035.045-.052l.097-.073.108-.062.108-.056.113-.04.124-.056h.48l.108.056.108.04.114.056.102.062.108.073a.67.67 0 01.076.09.417.417 0 01.08.09l.076.095.07.096.054.112c.038.04.038.079.038.118l.032.124v.124a.945.945 0 010 .123c.003.043.003.086 0 .13v.123l-.032.118c-.038.04-.038.079-.038.118a.708.708 0 01-.054.113.668.668 0 01-.06.107.478.478 0 01-.075.1.445.445 0 01-.08.096l-.087.085-.135.09-.102.067-.114.05-.108.04a.736.736 0 01-.118.034.404.404 0 01-.12 0h-.242a.43.43 0 01-.119 0l-.113-.034-.113-.04-.108-.05-.108-.067-.097-.073-.086-.085-.081-.095a.466.466 0 01-.07-.102.683.683 0 01-.065-.106l-.049-.113a1.043 1.043 0 01-.043-.118zm4.176 0a.93.93 0 010-.118l.027-.006a1.16 1.16 0 010-.123v-.253a.824.824 0 010-.124.823.823 0 010-.124c.012-.04.026-.08.043-.118.014-.038.03-.076.049-.112l.065-.107.059-.095.08-.09a.263.263 0 01.043-.038c.023-.019.044-.035.044-.052l.103-.073a.63.63 0 01.113-.062l.108-.056.113-.04.114-.056h.48l.118.056.114.04.108.056.102.062.097.073.092.09.06.09.091.095.038.113.054.112c.015.038.027.078.038.118l.032.124v.123a.945.945 0 010 .124c.003.043.003.086 0 .13v.123l-.032.118a1.008 1.008 0 01-.092.23.677.677 0 01-.06.107.79.79 0 01-.07.102l-.06.078-.09.085-.125.09-.102.067-.108.05-.114.04a.43.43 0 01-.237.034h-.361a.865.865 0 01-.114-.034l-.113-.04-.108-.05-.103-.067-.102-.073-.086-.085-.081-.095a.47.47 0 01-.07-.102l-.065-.106a.698.698 0 01-.049-.113 1.042 1.042 0 01-.043-.118zm44.83 16.342h1.123c.646.045 1.148.604 1.148 1.28 0 .674-.502 1.233-1.148 1.278H76.197a1.217 1.217 0 01-1.133-.614 1.328 1.328 0 010-1.33 1.217 1.217 0 011.133-.614h1.111v-6.841c.003-3.552 2.764-6.43 6.172-6.437h3.615c1.704.003 3.084 1.44 3.087 3.215V17.99zm-6.7-10.72c-2.055.003-3.718 1.739-3.718 3.879v6.841h7.969V7.926a.65.65 0 00-.637-.657H83.48zm-10.268 2.04a4.64 4.64 0 01-1.365 3.312h-.01c1.302 1.295 1.717 3.287 1.047 5.03-.67 1.742-2.29 2.884-4.09 2.885h-5.127c-.646-.045-1.148-.604-1.148-1.28 0-.674.502-1.233 1.148-1.278h5.126c1.04-.057 1.856-.953 1.856-2.038s-.816-1.98-1.856-2.038h-2.52c-.646-.044-1.148-.604-1.148-1.279 0-.675.502-1.234 1.148-1.279h2.52c1.04-.056 1.856-.952 1.856-2.037 0-1.086-.816-1.981-1.856-2.038H63.67c-.647-.045-1.15-.604-1.15-1.28 0-.674.503-1.233 1.15-1.278h5.136c2.435.003 4.408 2.06 4.408 4.598zM24.67 4.711h6.02c2.204.003 3.988 1.865 3.988 4.16v4.368c.162 2.714-1.136 5.297-3.369 6.705a6.773 6.773 0 01-7.263 0c-2.233-1.408-3.53-3.991-3.37-6.705V8.87c.004-2.296 1.79-4.157 3.994-4.16zm3.01 13.267c2.512 0 4.549-2.122 4.549-4.74V8.872c0-.425-.163-.833-.45-1.133-.29-.3-.68-.47-1.088-.47H24.67c-.85 0-1.538.718-1.538 1.603v4.368c0 2.617 2.036 4.739 4.548 4.739zM13.745 4.71h.205a3.778 3.778 0 013.01 1.422c.647.84.992 1.887.977 2.963v10.158c0 .705-.548 1.276-1.225 1.276-.676 0-1.224-.571-1.224-1.276V9.096c0-1.777-1.382-1.827-1.538-1.827h-.157c-1.99.075-3.574 1.764-3.598 3.84v1.517c0 .705-.549 1.276-1.225 1.276-.677 0-1.225-.571-1.225-1.276V11.108c-.022-2.074-1.604-3.764-3.593-3.84H3.99c-.157 0-1.532.051-1.532 1.828v10.158c.03.477-.197.932-.59 1.18a1.188 1.188 0 01-1.276 0 1.297 1.297 0 01-.59-1.18V9.096a4.722 4.722 0 01.983-2.957A3.757 3.757 0 013.99 4.717h.216a5.929 5.929 0 014.257 1.956c.18.202.352.414.512.635.157-.226.326-.442.507-.646a5.938 5.938 0 014.263-1.951zm84.405 0h6.022c2.204.003 3.989 1.864 3.992 4.16v4.368c.162 2.714-1.136 5.297-3.368 6.705a6.774 6.774 0 01-7.264 0c-2.233-1.408-3.53-3.991-3.369-6.705V8.87c0-2.295 1.785-4.157 3.987-4.16zm5.285 12.632c1.408-.846 2.274-2.411 2.274-4.104V8.87c0-.885-.688-1.602-1.537-1.602H98.15c-.849 0-1.537.717-1.537 1.602v4.368c0 1.693.867 3.258 2.274 4.104a4.39 4.39 0 004.548 0zm34.032-12.632h-6.027c-2.202.006-3.984 1.866-3.987 4.16v4.368c0 4.036 3.14 7.308 7.014 7.308s7.014-3.272 7.014-7.308V8.87c-.003-2.294-1.786-4.154-3.987-4.16h-.027zm1.559 8.528c.057 1.73-.796 3.357-2.226 4.24a4.392 4.392 0 01-4.639 0c-1.43-.883-2.283-2.51-2.226-4.24V8.87a1.627 1.627 0 01.447-1.133 1.5 1.5 0 011.085-.47h6.027a1.5 1.5 0 011.085.47c.288.301.449.708.447 1.133v4.368zm-93.912 1.894H41.12a3.513 3.513 0 01-1.192-.213v.04c0 1.66 1.287 3.009 2.88 3.018h5.796c.646.045 1.148.604 1.148 1.279 0 .675-.502 1.234-1.148 1.279H42.81c-2.953-.006-5.344-2.5-5.347-5.577V8.511c.006-2.096 1.635-3.794 3.647-3.8h6.707c2.015.003 3.647 1.706 3.647 3.806-.003 3.653-2.844 6.613-6.35 6.616zm-4.838-7.498a1.27 1.27 0 00-.347.882v2.816c0 .682.527 1.236 1.181 1.242h4.004c2.15-.003 3.892-1.818 3.895-4.058a1.27 1.27 0 00-.347-.882 1.168 1.168 0 00-.845-.366H41.12c-.317 0-.621.131-.845.366zm147.859 10.253h-5.768c-1.596-.003-2.889-1.35-2.892-3.013v-.045c.386.14.79.212 1.198.213h3.998c3.494-.018 6.32-2.97 6.329-6.61-.003-2.101-1.637-3.803-3.653-3.806h-6.701a3.583 3.583 0 00-2.595 1.108 3.893 3.893 0 00-1.079 2.697v6.443a5.705 5.705 0 001.586 3.954 5.25 5.25 0 003.809 1.617h5.795c.458.031.895-.205 1.133-.614a1.329 1.329 0 000-1.33 1.217 1.217 0 00-1.133-.614h-.027zm-7.462-10.681h6.701c.643.015 1.16.556 1.171 1.225-.006 2.243-1.749 4.059-3.901 4.065h-3.998c-.662-.003-1.198-.564-1.198-1.254v-2.81c0-.69.537-1.249 1.198-1.249l.027.023zM114.714 4.71h6.685c2.018 0 3.653 1.704 3.653 3.806-.003 3.653-2.844 6.613-6.35 6.616h-3.988a3.51 3.51 0 01-1.197-.213v4.328c.03.477-.197.933-.589 1.18a1.188 1.188 0 01-1.277 0 1.295 1.295 0 01-.589-1.18V8.511c.003-2.1 1.637-3.8 3.652-3.8zm-.01 7.87h3.998v-.005c2.144-.007 3.883-1.813 3.895-4.048 0-.69-.536-1.248-1.198-1.248h-6.695a1.168 1.168 0 00-.849.364 1.267 1.267 0 00-.349.884v2.81c0 .331.126.648.351.881.225.233.529.364.847.362zm53.943-2.462h-3.998a3.54 3.54 0 00-1.198.213v-4.34a1.299 1.299 0 00-.589-1.18 1.188 1.188 0 00-1.277 0 1.299 1.299 0 00-.589 1.18V16.73c.009 2.097 1.64 3.794 3.653 3.8h6.701c2.016-.003 3.65-1.705 3.653-3.806-.012-3.65-2.853-6.602-6.356-6.605zm2.698 7.87h-6.696c-.662 0-1.198-.559-1.198-1.248v-2.81c.003-.688.538-1.243 1.198-1.243h3.998c2.152 0 3.898 1.816 3.901 4.059 0 .33-.127.647-.351.88a1.17 1.17 0 01-.847.362h-.005zM153.772 4.711h-5.935c-2.015.003-3.648 1.706-3.648 3.806v8.213c0 2.1 1.633 3.803 3.648 3.806h5.935c1.8-.004 3.417-1.146 4.087-2.886.67-1.74.259-3.73-1.039-5.03 1.3-1.297 1.712-3.287 1.041-5.028-.67-1.74-2.289-2.88-4.089-2.881zm0 13.278h-5.935c-.318 0-.623-.131-.847-.365a1.273 1.273 0 01-.351-.883v-2.906c.129.045.263.068.399.067h6.734c1.083 0 1.961.915 1.961 2.044 0 1.128-.878 2.043-1.961 2.043zm-6.745-6.633h6.745v-.012c1.04-.056 1.855-.952 1.855-2.037 0-1.086-.815-1.981-1.855-2.038h-5.935a1.173 1.173 0 00-.854.361 1.275 1.275 0 00-.355.887v2.906c.129-.046.264-.068.399-.067zm-118.121-.349h.82c.646.045 1.149.604 1.149 1.279 0 .675-.503 1.234-1.149 1.279h-.836v.854c0 .705-.549 1.276-1.225 1.276-.677 0-1.225-.57-1.225-1.276v-.87h-.82a1.217 1.217 0 01-1.133-.615 1.328 1.328 0 010-1.33 1.217 1.217 0 011.133-.614h.82v-.871c0-.71.552-1.285 1.233-1.285.68 0 1.233.575 1.233 1.285v.888z" fill="#fff"/></svg><svg viewBox="0 0 11 18" id="ok_icon" xmlns="http://www.w3.org/2000/svg"><path fill-rule="evenodd" clip-rule="evenodd" d="M7.37 4.887c0-1.001-.844-1.816-1.882-1.816-1.037 0-1.882.814-1.882 1.816 0 1.001.845 1.816 1.882 1.816 1.038 0 1.882-.815 1.882-1.816zm2.663 0c0 2.419-2.038 4.386-4.545 4.386-2.506 0-4.545-1.967-4.545-4.386C.943 2.467 2.982.5 5.488.5c2.507 0 4.545 1.968 4.545 4.387zM9.977 11.8a8.685 8.685 0 01-2.639 1.055l2.541 2.452c.52.502.52 1.316 0 1.818a1.364 1.364 0 01-1.882 0L5.5 14.714l-2.495 2.41c-.26.25-.602.376-.943.376-.34 0-.68-.126-.94-.376a1.254 1.254 0 01-.001-1.818l2.54-2.452a8.698 8.698 0 01-2.639-1.055 1.26 1.26 0 01-.416-1.773c.39-.601 1.212-.782 1.835-.404a5.946 5.946 0 006.119 0 1.359 1.359 0 011.836.404 1.26 1.26 0 01-.418 1.773z"/></svg><svg viewBox="0 0 19 11" id="vk_icon" xmlns="http://www.w3.org/2000/svg"><path fill-rule="evenodd" clip-rule="evenodd" d="M10.39 10.579s.326-.036.494-.213c.153-.162.148-.467.148-.467s-.02-1.427.655-1.638c.665-.207 1.519 1.38 2.425 1.99.685.462 1.205.361 1.205.361l2.422-.033s1.266-.077.666-1.054c-.05-.08-.35-.724-1.8-2.045-1.52-1.384-1.316-1.16.513-3.553 1.114-1.458 1.56-2.347 1.42-2.728-.132-.364-.952-.267-.952-.267L14.86.949s-.202-.027-.352.06c-.146.087-.241.288-.241.288s-.431 1.127-1.007 2.087c-1.214 2.023-1.7 2.13-1.898 2.004-.462-.293-.347-1.177-.347-1.804 0-1.962.303-2.78-.59-2.99C10.13.522 9.911.476 9.153.468 8.18.459 7.357.472 6.89.696c-.31.149-.55.482-.403.5.18.024.588.109.804.398.28.373.27 1.21.27 1.21s.16 2.31-.375 2.596c-.368.197-.871-.205-1.954-2.04-.555-.941-.973-1.98-.973-1.98s-.08-.195-.225-.3c-.175-.125-.42-.165-.42-.165l-2.59.017s-.39.01-.532.177c-.127.147-.01.452-.01.452S2.511 6.22 4.808 8.568c2.106 2.152 4.497 2.01 4.497 2.01h1.084z"/></svg><svg viewBox="0 0 17 16" id="zen_icon" xmlns="http://www.w3.org/2000/svg"><g clip-path="url(#nclip0)" clip-rule="evenodd"><path d="M8.412 0C5.114 0 2.829.011 1.656 1.157.511 2.329.5 4.72.5 7.912c3.542-.107 5.162-.196 6.454-1.458C8.216 5.162 8.304 3.543 8.412 0zM1.656 14.844C.511 13.67.5 11.279.5 8.088c3.542.107 5.162.196 6.454 1.458 1.262 1.292 1.35 2.912 1.457 6.454-3.297 0-5.582-.01-6.755-1.156zM8.588 16c.107-3.542.196-5.162 1.457-6.454 1.292-1.262 2.912-1.35 6.455-1.458 0 3.19-.012 5.583-1.157 6.756C14.17 15.989 11.886 16 8.588 16zm0-16c.107 3.543.196 5.162 1.457 6.454 1.292 1.262 2.912 1.35 6.455 1.458 0-3.19-.012-5.583-1.157-6.755C14.17.01 11.886 0 8.588 0z" fill="none"/><path fill-rule="evenodd" d="M10.045 9.546C8.784 10.838 8.695 12.458 8.588 16c3.298 0 5.582-.01 6.755-1.156 1.145-1.173 1.156-3.565 1.157-6.756-3.543.107-5.163.196-6.455 1.458zM.5 8.088c0 3.19.01 5.583 1.156 6.756C2.829 15.989 5.114 16 8.411 16c-.107-3.542-.195-5.162-1.457-6.454C5.662 8.284 4.042 8.196.5 8.088zM8.412 0C5.114 0 2.829.011 1.656 1.157.511 2.329.5 4.72.5 7.912c3.542-.107 5.162-.196 6.454-1.458C8.216 5.162 8.304 3.543 8.412 0zm1.633 6.454C8.784 5.162 8.695 3.543 8.588 0c3.298 0 5.582.011 6.755 1.157C16.488 2.329 16.5 4.72 16.5 7.912c-3.543-.107-5.163-.196-6.455-1.458z"/><path d="M16.5 8.09v-.177c-3.543-.108-5.163-.196-6.455-1.458C8.784 5.163 8.695 3.544 8.588.001h-.177c-.107 3.543-.195 5.162-1.457 6.454C5.662 7.717 4.042 7.805.5 7.913v.176c3.542.107 5.162.196 6.454 1.457 1.262 1.292 1.35 2.912 1.457 6.455h.177c.107-3.543.196-5.163 1.457-6.455 1.292-1.261 2.912-1.35 6.455-1.457z" fill="none"/></g><defs><clipPath id="nclip0"><path transform="translate(.5)" d="M0 0h16v16H0z"/></clipPath></defs></svg></svg>