<svg width="41" height="40" viewBox="0 0 41 40" fill="none" xmlns="http://www.w3.org/2000/svg">
<path fill-rule="evenodd" clip-rule="evenodd" d="M20.5 30L27.3073 33.5788C27.6317 33.7494 28.0033 33.8082 28.3646 33.7463C29.2718 33.5907 29.8812 32.7291 29.7256 31.8218L28.4255 24.2418L33.9327 18.8736C34.1952 18.6177 34.366 18.2825 34.4187 17.9198C34.5511 17.0089 33.9199 16.1631 33.009 16.0308L25.3982 14.9249L21.9946 8.02831C21.8323 7.69962 21.5663 7.43357 21.2376 7.27136C21.0001 7.15412 20.7481 7.09869 20.5 7.09888L20.5 30Z" fill="#ADCBF3"/>
<path fill-rule="evenodd" clip-rule="evenodd" d="M20.4999 7.09888C19.8859 7.09936 19.2955 7.44045 19.0054 8.02831L15.6018 14.9249L7.99097 16.0308C7.62824 16.0835 7.293 16.2543 7.03716 16.5168C6.39465 17.1759 6.40814 18.2311 7.06728 18.8736L12.5745 24.2418L11.2744 31.8218C11.2125 32.1831 11.2713 32.5547 11.4419 32.8792C11.8702 33.6939 12.8779 34.0071 13.6927 33.5788L20.4999 30V7.09888Z" fill="#156FF0"/>
</svg>
