<svg width="41" height="40" viewBox="0 0 41 40" fill="none" xmlns="http://www.w3.org/2000/svg">
<path fill-rule="evenodd" clip-rule="evenodd" d="M37.2083 25V32.643C37.2083 34.1278 35.413 34.8714 34.3631 33.8215L28.8334 28.2918L37.2083 25Z" fill="#156FF0"/>
<path fill-rule="evenodd" clip-rule="evenodd" d="M8.83337 5C6.07195 5 3.83337 7.23858 3.83337 10V25C3.83337 27.7614 6.07195 30 8.83337 30H32.1667C34.9281 30 37.1667 27.7614 37.1667 25V10C37.1667 7.23858 34.9281 5 32.1667 5H8.83337ZM11.2422 15.2799C10.4763 15.7905 10.2694 16.8253 10.78 17.5912C13.296 21.3652 16.5762 23.3333 20.5 23.3333C24.4239 23.3333 27.7041 21.3652 30.2201 17.5912C30.7307 16.8253 30.5238 15.7905 29.7579 15.2799C28.992 14.7693 27.9572 14.9763 27.4466 15.7422C25.5182 18.6348 23.2428 20 20.5 20C17.7573 20 15.4818 18.6348 13.5535 15.7422C13.0429 14.9763 12.0081 14.7693 11.2422 15.2799Z" fill="#156FF0"/>
</svg>
