<svg width="161" height="201" viewBox="0 0 161 201" fill="none" xmlns="http://www.w3.org/2000/svg">
<g clip-path="url(#clip0)">
<path fill-rule="evenodd" clip-rule="evenodd" d="M111.463 181.498L73.8815 311.144L56.2051 408.484H38.4634L56.1735 181.498H111.463Z" fill="#FFC4C7"/>
<path fill-rule="evenodd" clip-rule="evenodd" d="M111.463 181.498L73.8815 311.144L56.2051 408.484H38.4634L56.1735 181.498H111.463Z" fill="black" fill-opacity="0.1"/>
<path fill-rule="evenodd" clip-rule="evenodd" d="M128.355 181.498C125.732 248.849 126.766 285.584 127.353 291.703C127.941 297.822 131.272 338.802 153.976 410.538H135.524C105.456 341.72 94.9583 300.739 91.5106 291.703C88.0615 282.666 77.8763 245.932 63.0062 181.498H128.355Z" fill="#FFC4C7"/>
<path fill-rule="evenodd" clip-rule="evenodd" d="M112.271 181.498C102.496 226.11 85.5896 297.321 61.5496 395.131H35.6002C33.6836 294.738 41.837 228.663 55.9565 181.498H112.271Z" fill="#69A1AC"/>
<path fill-rule="evenodd" clip-rule="evenodd" d="M128.484 181.498C125.916 248.849 132.571 315.202 153.189 396.18H125.502C95.3778 328.39 73.7873 262.365 59.032 181.498H128.484Z" fill="#89C5CC"/>
<path d="M69.6135 104.485L89.8592 101.771C97.6535 101.456 108.692 101.39 110.065 79.3162C110.401 73.9315 107.478 55.8626 105.129 50.2834C99.998 38.0978 104.925 38.0796 100.067 18.9702C94.4341 -3.19274 77.4981 4.7699 77.4981 4.7699C77.4981 4.7699 49.4135 18.0654 47.9856 30.6134C45.7865 49.94 52.7704 45.1867 49.1508 59.5861C47.3361 66.8042 46.9595 86.9974 53.2371 97.1736C57.807 104.582 64.4046 104.696 69.6135 104.485Z" fill="#3F4655"/>
<path d="M69.2535 69.8555C74.8147 89.1403 92.8739 70.5339 93.3173 63.8846C91.2622 57.7025 90.3329 51.2013 90.5719 44.6901L68.4158 53.5633C68.4941 54.2175 68.5724 54.875 68.6521 55.5354C69.0822 58.6735 69.3424 61.8325 69.4314 64.9987C69.4566 66.6196 69.3982 68.2407 69.2535 69.8555Z" fill="#FFC4C7"/>
<path d="M69.4302 64.9981C81.1196 61.9373 88.3336 49.4876 88.3336 49.4876L68.6509 55.5352C69.081 58.6731 69.3412 61.832 69.4302 64.9981Z" fill="#E8ABAC"/>
<path d="M62.8832 37.0554C62.8832 37.0554 60.9636 31.5807 56.5083 32.9801C52.053 34.3797 52.3479 49.361 60.8857 48.6276L62.8832 37.0554Z" fill="#3F4655"/>
<path d="M56.1649 36.3258C56.19 36.8197 56.235 37.345 56.3003 37.899C56.37 38.5167 56.4645 39.1634 56.5837 39.8387C56.7181 40.6115 56.8834 41.4191 57.0744 42.2475C57.1868 42.7467 57.31 43.2521 57.4439 43.7635C59.5023 51.713 63.0001 55.2558 66.9089 56.9764C73.3489 59.8117 88.7303 52.512 90.9314 46.4771C92.5219 42.1155 92.5657 43.8925 92.5697 32.3141C92.575 20.7359 87.6164 14.5682 87.6164 14.5682C80.948 7.51009 69.5984 9.06724 62.3897 14.2015C55.1785 19.3325 55.7789 28.324 56.1649 36.3258Z" fill="#FFC4C7"/>
<path d="M64.4048 46.3132C64.4048 46.3132 66.8661 47.0449 68.4904 47.0908C70.3198 47.1424 72.8515 46.3731 72.8515 46.3731C72.8515 46.3731 71.0752 49.0482 68.5953 48.7477C66.1144 48.4471 64.4048 46.3132 64.4048 46.3132Z" fill="white"/>
<path d="M59.4035 44.2298C60.5668 44.183 61.4591 42.8855 61.3967 41.332C61.3342 39.7786 60.3405 38.5573 59.1772 38.6042C58.014 38.6512 57.1216 39.9485 57.184 41.502C57.2465 43.0556 58.2402 44.2767 59.4035 44.2298Z" fill="url(#paint0_linear)"/>
<path d="M79.9418 43.0118C81.3848 42.9535 82.508 41.734 82.4509 40.2879C82.3925 38.8419 81.1751 37.7167 79.7307 37.7751C78.2863 37.8333 77.1631 39.0527 77.2215 40.4989C77.28 41.9449 78.4974 43.0701 79.9418 43.0118Z" fill="url(#paint1_linear)"/>
<path d="M68.7077 32.7346L66.3719 38.5874C66.1512 39.1403 66.1033 39.7473 66.2345 40.328C66.3655 40.9088 66.6695 41.436 67.1062 41.8401L68.3135 42.9566" stroke="#3F4655" stroke-width="0.286219" stroke-linecap="round" stroke-linejoin="round"/>
<path d="M75.4986 41.7363C76.9364 41.8235 78.3675 41.4818 79.6115 40.7545C80.8554 40.027 81.8551 38.9465 82.4857 37.6497C83.1163 36.3529 83.3486 34.8978 83.1548 33.4685C82.9597 32.0393 82.345 30.7 81.3905 29.6201C80.4359 28.5401 79.1827 27.7681 77.79 27.4015C76.3961 27.0349 74.9264 27.0902 73.5643 27.5605C72.2036 28.0307 71.0114 28.8949 70.1405 30.0434C69.2696 31.1921 68.7571 32.5738 68.6695 34.0136C68.5553 35.9441 69.2098 37.8414 70.4896 39.2893C71.7694 40.737 73.571 41.6172 75.4986 41.7363ZM76.3151 28.2502C77.5405 28.3248 78.7167 28.7618 79.6938 29.5057C80.6722 30.2495 81.4077 31.2671 81.8073 32.4295C82.2069 33.5921 82.2547 34.8473 81.9427 36.0365C81.6307 37.2258 80.9736 38.2956 80.0536 39.1107C79.1349 39.9259 77.9945 40.4498 76.7784 40.6162C75.5623 40.7827 74.3237 40.584 73.2205 40.0455C72.1159 39.507 71.1972 38.6528 70.5786 37.5909C69.9586 36.529 69.6679 35.3072 69.7422 34.0798C69.8444 32.4344 70.5932 30.8964 71.8252 29.8036C73.0572 28.7106 74.6729 28.1518 76.3151 28.25V28.2502Z" fill="#FDFEFF"/>
<path d="M58.7352 42.8686C60.1728 42.9559 61.6041 42.6143 62.8478 41.8868C64.0916 41.1593 65.0921 40.0789 65.7228 38.782C66.3534 37.4851 66.586 36.03 66.3911 34.6007C66.1961 33.1715 65.5823 31.8321 64.6274 30.7523C63.6725 29.6723 62.4194 28.9002 61.0263 28.5336C59.6333 28.167 58.1631 28.2223 56.8014 28.6926C55.4398 29.1629 54.2481 30.0271 53.3768 31.1756C52.5055 32.3243 51.9938 33.706 51.9065 35.1459C51.7916 37.0765 52.4461 38.9738 53.7263 40.4216C55.0065 41.8695 56.8079 42.7495 58.7352 42.8686ZM59.5522 29.3827C60.7775 29.4573 61.9534 29.8942 62.9309 30.6382C63.9083 31.3821 64.6436 32.3997 65.0437 33.5623C65.4438 34.7247 65.4907 35.9799 65.1786 37.1691C64.8664 38.3583 64.2092 39.4281 63.29 40.2432C62.3708 41.0583 61.2309 41.5822 60.0146 41.7484C58.7981 41.9147 57.5599 41.7159 56.4561 41.1774C55.3525 40.6388 54.4331 39.7845 53.8142 38.7226C53.1953 37.6606 52.9047 36.4387 52.9792 35.2113C53.0807 33.5661 53.8299 32.0284 55.0622 30.9355C56.2944 29.8428 57.9092 29.2842 59.5522 29.3825V29.3827Z" fill="#FDFEFF"/>
<path d="M66.3334 35.8513C66.6334 35.4915 67.0614 35.2628 67.527 35.214C67.9922 35.1652 68.4582 35.2999 68.8259 35.5897L69.4552 34.7168C68.8697 34.259 68.1289 34.0492 67.3904 34.1325C66.6523 34.2159 65.9761 34.5857 65.5071 35.1626L66.3334 35.8513Z" fill="#FDFEFF"/>
<path d="M82.4788 32.7953C82.5598 32.8002 82.6407 32.7868 82.7164 32.7559C82.7908 32.7251 82.8571 32.6776 82.9116 32.6171C82.9687 32.5679 83.8608 31.8321 87.7081 31.4455C87.8489 31.4302 87.9776 31.3598 88.0666 31.2495C88.1569 31.1392 88.198 30.998 88.1847 30.8567C88.1701 30.7154 88.1011 30.5855 87.9909 30.4953C87.882 30.4051 87.7413 30.3618 87.6006 30.375C83.1731 30.8192 82.2345 31.7418 82.0911 31.9227C82.0301 31.9997 81.9916 32.0921 81.9796 32.1897C81.9663 32.2873 81.9809 32.3864 82.0221 32.4761C82.0619 32.566 82.1257 32.6432 82.2053 32.6993C82.2863 32.7554 82.3805 32.7884 82.4788 32.7945V32.7953Z" fill="#FDFEFF"/>
<path d="M52.4113 35.7157C52.5239 35.7228 52.6358 35.6935 52.7306 35.6325C53.6357 35.2082 54.6241 34.9925 55.6232 35.0013C55.6945 35.0021 55.7652 34.9888 55.8314 34.962C55.8975 34.9351 55.9575 34.8955 56.0082 34.8451C56.0588 34.7948 56.0989 34.735 56.1262 34.6689C56.1534 34.6029 56.1674 34.5322 56.1671 34.4608C56.1668 34.3894 56.1524 34.3188 56.1245 34.253C56.0968 34.1873 56.0561 34.1277 56.0051 34.0777C55.9542 34.0279 55.8938 33.9886 55.8274 33.9623C55.7611 33.9361 55.6902 33.9232 55.619 33.9247C54.4192 33.9227 53.235 34.1958 52.157 34.7233C52.061 34.7842 51.9868 34.8739 51.9448 34.9796C51.903 35.0855 51.8956 35.2018 51.9239 35.3121C51.9521 35.4222 52.0145 35.5205 52.1022 35.593C52.1896 35.6655 52.298 35.7083 52.4113 35.7153V35.7157Z" fill="#FDFEFF"/>
<path d="M89.6265 30.9538C89.6265 30.9538 92.1276 26.2057 96.9162 28.0966C101.706 29.9875 100.202 46.4375 90.8717 44.9568L89.6265 30.9538Z" fill="#FFC4C7"/>
<path d="M88.4728 22.1608C88.4728 22.1608 86.0699 27.4355 87.6019 30.3734C88.5525 32.4045 89.0251 34.6277 88.9826 36.8708C90.4987 35.4138 91.6219 33.5949 92.2458 31.5847C92.8698 29.5744 92.9747 27.4386 92.5499 25.3768C90.9567 18.4754 88.4728 22.1608 88.4728 22.1608Z" fill="#3F4655"/>
<path d="M91.8687 38.5293C91.8554 38.5862 91.8554 38.645 91.8647 38.7024C91.8753 38.7597 91.8966 38.8144 91.9284 38.8634C91.9603 38.9125 92.0001 38.9548 92.0479 38.988C92.0957 39.0213 92.1501 39.0448 92.2072 39.0572C92.2377 39.0641 92.2709 39.0678 92.3028 39.0685C92.4037 39.0677 92.5006 39.0326 92.5789 38.9689C92.6573 38.9052 92.7117 38.8168 92.7343 38.7181C93.0144 37.6255 93.495 36.5948 94.1521 35.6784C95.0921 36.4583 95.8448 37.1842 95.8554 37.193C95.8952 37.2333 95.9444 37.2651 95.9975 37.2865C96.0506 37.3079 96.1063 37.3184 96.1647 37.3174C96.2842 37.3166 96.3984 37.2685 96.482 37.1835C96.563 37.0983 96.6068 36.9845 96.6042 36.867C96.6028 36.7494 96.5537 36.6374 96.4701 36.5554C96.4356 36.5224 95.6842 35.7966 94.7203 34.9957C95.4465 34.2059 96.3918 33.6507 97.4352 33.4009C97.5494 33.374 97.649 33.3028 97.7101 33.2029C97.7724 33.1029 97.7924 32.9825 97.7658 32.868C97.7379 32.7535 97.6676 32.6543 97.568 32.5923C97.4671 32.5304 97.3476 32.5107 97.2335 32.5375C92.9985 33.5278 91.9125 38.3261 91.8687 38.5293Z" fill="#161F29"/>
<path d="M57.2557 26.9193C57.2557 26.9193 61.0703 24.7772 64.5154 26.6514" stroke="black" stroke-width="0.311237" stroke-linecap="round" stroke-linejoin="round"/>
<path d="M78.1339 25.8909C78.1339 25.8909 74.2229 23.9304 70.8694 25.9645" stroke="black" stroke-width="0.311237" stroke-linecap="round" stroke-linejoin="round"/>
<path d="M75.5011 -0.0640896C75.5011 -0.0640896 59.5945 -0.364143 53.2559 9.56948C51.422 12.2788 50.412 15.4628 50.3484 18.7354C50.2849 22.0081 51.1704 25.2291 52.8979 28.0079C52.8979 28.0079 62.8301 29.5692 74.7205 15.4519C74.7205 15.4519 76.3507 26.5052 85.5735 26.6894C94.7962 26.8737 92.2778 18.2582 92.2778 18.2582C92.2778 18.2582 95.1401 1.71835 75.5011 -0.0640896Z" fill="#3F4655"/>
<path d="M69.8984 11.0057C68.5443 6.75527 94.5503 -9.89443 109.653 25.3316C115.042 37.9124 137.135 33.4617 131.52 60.6395C129.745 69.2231 147.706 90.6293 131.52 114.898C116.377 137.602 91.0999 107.459 91.2115 93.5627C91.3336 78.1812 101.071 87.0036 91.2115 69.2616C76.9598 63.3405 85.844 51.6983 86.0418 48.33C86.0737 47.6311 86.9632 44.7591 86.9924 44.0484C87.0428 41.6678 87.0946 38.8839 86.0418 36.9126C82.8902 31.0227 82.1348 30.3902 80.5244 21.6041C80.7381 7.20304 69.8984 11.0057 69.8984 11.0057Z" fill="#3F4655"/>
<path d="M63.29 33.7214C63.29 34.0376 63.2198 34.3468 63.0882 34.6098C62.9567 34.8728 62.7696 35.0777 62.5508 35.1987C62.332 35.3198 62.0912 35.3515 61.859 35.2898C61.6267 35.2281 61.4133 35.0757 61.2459 34.8522C61.0784 34.6285 60.9643 34.3436 60.9181 34.0334C60.8719 33.7232 60.8957 33.4017 60.9862 33.1095C61.0769 32.8173 61.2304 32.5675 61.4273 32.3918C61.6243 32.2161 61.8557 32.1224 62.0925 32.1224C62.4102 32.1224 62.7148 32.2908 62.9393 32.5907C63.1639 32.8905 63.29 33.2973 63.29 33.7214Z" fill="black"/>
<path d="M76.5896 33.7214C76.5896 34.0376 76.5193 34.3469 76.3879 34.6098C76.2551 34.8728 76.0692 35.0777 75.8502 35.1988C75.6311 35.3198 75.3908 35.3515 75.1585 35.2898C74.9262 35.2281 74.7124 35.0757 74.5452 34.8521C74.3779 34.6284 74.2637 34.3435 74.2172 34.0334C74.1708 33.7232 74.1947 33.4017 74.285 33.1094C74.3766 32.8173 74.5292 32.5674 74.727 32.3918C74.9235 32.2161 75.1545 32.1222 75.3922 32.1224C75.7095 32.1224 76.0135 32.2908 76.2378 32.5907C76.4635 32.8907 76.5896 33.2973 76.5896 33.7214Z" fill="black"/>
<path fill-rule="evenodd" clip-rule="evenodd" d="M160.704 237.065C157.519 230.562 146.669 167.178 146.669 167.178L123.947 167.267C123.947 167.267 144.991 235.615 146.669 239.796C148.848 245.229 145.146 253.122 142.637 258.474C142.248 259.303 141.888 260.07 141.584 260.757C145.065 262.325 146.738 260.43 148.502 258.433C150.494 256.177 152.602 253.789 157.563 256.112C159.479 257.009 161.294 258.069 163.066 259.106C169.186 262.685 174.81 265.974 182.459 261.225C183.673 260.473 185.002 257.638 181.79 255.423C173.79 249.903 162.263 240.245 160.704 237.065ZM-2.38471 210.222L21.5294 174.281L35.2055 189.595L7.77757 214.799C2.53997 228.91 -0.942951 235.266 -2.6712 233.865C-4.12836 232.681 -3.9271 231.006 -3.7415 229.464C-3.59706 228.262 -3.46217 227.139 -4.12862 226.393C-5.6503 224.689 -11.7086 227.127 -17.3591 229.688C-23.0094 232.251 -22.2544 229.031 -21.3165 227.238C-16.6723 221.508 -10.3618 215.836 -2.38471 210.222Z" fill="#FFC4C7"/>
<path fill-rule="evenodd" clip-rule="evenodd" d="M73.2427 69.6938L63.7085 70.0478C55.1657 75.4126 36.203 155.207 3.58142 196.069L41.0741 226.228C70.7893 171.576 85.0582 118.65 73.2427 69.6938Z" fill="#191847"/>
<path fill-rule="evenodd" clip-rule="evenodd" d="M123.09 204.333H39.494C39.494 204.333 54.6932 114.897 68.5448 69.6392L93.761 65.4223C113.579 101.196 119.176 145.241 123.09 204.333Z" fill="white"/>
<path fill-rule="evenodd" clip-rule="evenodd" d="M161.136 226.226C151.981 122.301 94.2653 65.4223 94.2653 65.4223L94.2454 65.4406C94.2414 65.4345 94.2388 65.4284 94.2348 65.4223H92.5859C89.6281 65.5248 83.573 65.7917 83.573 65.7917L77.4714 83.3371C66.1627 124.412 66.1627 212.668 66.1627 212.668H120.962C120.869 217.127 120.663 221.649 120.331 226.226H161.136Z" fill="#2F3676"/>
<path fill-rule="evenodd" clip-rule="evenodd" d="M120.952 213.099C121.39 193.684 119.678 175.452 116.822 158.954C115.327 178.531 112.206 202.088 105.686 213.099H120.952Z" fill="black" fill-opacity="0.1"/>
<path fill-rule="evenodd" clip-rule="evenodd" d="M108.826 179.189L81.7648 166.532V179.189H108.826Z" fill="white" fill-opacity="0.2"/>
</g>
<defs>
<linearGradient id="paint0_linear" x1="491.771" y1="171.662" x2="678.576" y2="644.245" gradientUnits="userSpaceOnUse">
<stop stop-color="#FFCBD1"/>
<stop offset="1" stop-color="#FFCBD1"/>
</linearGradient>
<linearGradient id="paint1_linear" x1="453.408" y1="162.804" x2="595.073" y2="626.355" gradientUnits="userSpaceOnUse">
<stop stop-color="#FFCBD1"/>
<stop offset="1" stop-color="#FFC4C7"/>
</linearGradient>
<clipPath id="clip0">
<rect width="161" height="204" fill="white"/>
</clipPath>
</defs>
</svg>
