<svg width="17" height="16" viewBox="0 0 17 16" xmlns="http://www.w3.org/2000/svg">
<g clip-path="url(#clip0)">
<path fill-rule="evenodd" clip-rule="evenodd" d="M8.41152 0C5.11398 0.000313446 2.82907 0.0112841 1.65621 1.15662C0.510933 2.32922 0.49996 4.72143 0.49996 7.9117C4.04238 7.8048 5.66232 7.7161 6.95432 6.45447C8.21588 5.16247 8.30462 3.54257 8.41152 0ZM1.656 14.8435C0.510729 13.6709 0.499756 11.2787 0.499756 8.08843C4.04218 8.19533 5.66212 8.28403 6.95412 9.54567C8.21568 10.8377 8.30442 12.4576 8.41132 15.9998C5.11378 15.9998 2.82887 15.9892 1.656 14.8435ZM8.58815 15.9998C8.69505 12.4576 8.78378 10.8377 10.0454 9.54567C11.3373 8.28403 12.9573 8.19533 16.4997 8.08843C16.4994 11.2787 16.4884 13.6709 15.3432 14.8435C14.1703 15.9892 11.8857 15.9998 8.58815 15.9998ZM8.58815 0C8.69505 3.54257 8.78378 5.16247 10.0454 6.45447C11.3373 7.7161 12.9573 7.8048 16.4997 7.9117C16.4994 4.72143 16.4884 2.32922 15.3432 1.15662C14.1703 0.0112841 11.8857 0.000313446 8.58815 0Z" fill="none"/>
<path fill-rule="evenodd" clip-rule="evenodd" d="M10.0454 9.54567C8.78378 10.8377 8.69505 12.4576 8.58815 15.9998C11.8857 15.9998 14.1703 15.9892 15.3432 14.8435C16.4884 13.6709 16.4994 11.2787 16.4997 8.08843C12.9573 8.19533 11.3373 8.28403 10.0454 9.54567ZM0.499756 8.08843C0.499756 11.2787 0.510729 13.6709 1.656 14.8435C2.82887 15.9892 5.11378 15.9998 8.41132 15.9998C8.30442 12.4576 8.21568 10.8377 6.95412 9.54567C5.66212 8.28403 4.04218 8.19533 0.499756 8.08843ZM8.41152 0C5.11398 0.000313446 2.82907 0.0112841 1.65621 1.15662C0.510933 2.32922 0.49996 4.72143 0.49996 7.9117C4.04238 7.8048 5.66232 7.7161 6.95432 6.45447C8.21588 5.16247 8.30462 3.54257 8.41152 0ZM10.0454 6.45447C8.78378 5.16247 8.69505 3.54257 8.58815 0C11.8857 0.000313446 14.1703 0.0112841 15.3432 1.15662C16.4884 2.32922 16.4994 4.72143 16.4997 7.9117C12.9573 7.8048 11.3373 7.7161 10.0454 6.45447Z" />
<path fill-rule="evenodd" clip-rule="evenodd" d="M16.4997 8.08915V8.00075V7.91265C12.9573 7.80545 11.3374 7.71709 10.0454 6.45515C8.78379 5.16342 8.69506 3.54355 8.58815 0.000976562H8.49972H8.41132C8.30442 3.54355 8.21569 5.16342 6.95409 6.45515C5.66209 7.71709 4.04216 7.80545 0.499756 7.91265V8.00075V8.08915C4.04216 8.19632 5.66209 8.28472 6.95409 9.54635C8.21569 10.8384 8.30442 12.4583 8.41132 16.0008H8.49972H8.58815C8.69506 12.4583 8.78379 10.8384 10.0454 9.54635C11.3374 8.28472 12.9573 8.19632 16.4997 8.08915Z" fill="none"/>
</g>
<defs>
<clipPath id="clip0">
<rect width="16" height="16" transform="translate(0.499756)"/>
</clipPath>
</defs>
</svg>
