<svg width="114" height="114" viewBox="0 0 114 114" fill="none" xmlns="http://www.w3.org/2000/svg">
<path opacity="0.05" d="M112.149 57C112.149 87.7341 87.2341 112.649 56.5 112.649C25.7659 112.649 0.851064 87.7341 0.851064 57C0.851064 26.2659 25.7659 1.35106 56.5 1.35106C87.2341 1.35106 112.149 26.2659 112.149 57ZM56.5 113.75C87.8422 113.75 113.25 88.3422 113.25 57C113.25 25.6578 87.8422 0.25 56.5 0.25C25.1578 0.25 -0.25 25.6578 -0.25 57C-0.25 88.3422 25.1578 113.75 56.5 113.75Z" fill="white" stroke="white" stroke-width="0.5"/>
<path opacity="0.1" d="M101.427 56.9999C101.427 81.8125 81.3128 101.927 56.5002 101.927C31.6876 101.927 11.5731 81.8125 11.5731 56.9999C11.5731 32.1873 31.6876 12.0728 56.5002 12.0728C81.3128 12.0728 101.427 32.1873 101.427 56.9999ZM56.5002 103.029C81.9216 103.029 102.53 82.4213 102.53 56.9999C102.53 31.5785 81.9216 10.9704 56.5002 10.9704C31.0788 10.9704 10.4707 31.5785 10.4707 56.9999C10.4707 82.4213 31.0788 103.029 56.5002 103.029Z" fill="white" stroke="white" stroke-width="0.5"/>
<path opacity="0.2" d="M90.1278 57.0002C90.1278 75.5725 75.072 90.6283 56.4997 90.6283C37.9275 90.6283 22.8717 75.5725 22.8717 57.0002C22.8717 38.4279 37.9275 23.3721 56.4997 23.3721C75.072 23.3721 90.1278 38.4279 90.1278 57.0002ZM56.4997 91.7297C75.6803 91.7297 91.2292 76.1807 91.2292 57.0002C91.2292 37.8196 75.6803 22.2707 56.4997 22.2707C37.3192 22.2707 21.7703 37.8196 21.7703 57.0002C21.7703 76.1807 37.3192 91.7297 56.4997 91.7297Z" fill="white" stroke="white" stroke-width="0.5"/>
<path fill-rule="evenodd" clip-rule="evenodd" d="M66.8628 29.5C74.7416 29.5111 81.123 36.1586 81.123 44.3549V59.9526C81.7016 69.644 77.06 78.8681 69.0749 83.896C61.0898 88.9238 51.0816 88.9238 43.0965 83.896C35.1114 78.8681 30.4698 69.644 31.0484 59.9526V44.3549C31.0591 36.1554 37.446 29.5111 45.3279 29.5H66.8628ZM72.3624 59.9523V44.3546C72.3624 42.8372 71.783 41.382 70.7516 40.3091C69.7202 39.2362 68.3214 38.6334 66.8628 38.6334H45.3279C42.2906 38.6334 39.8284 41.1948 39.8284 44.3546V59.9523C39.8284 69.2983 47.1114 76.8749 56.0954 76.8749C65.0794 76.8749 72.3624 69.2983 72.3624 59.9523ZM67.5181 56.5496C67.5181 54.1394 65.7214 52.1422 63.4097 51.9827H60.4766V48.811C60.4766 46.2777 58.5025 44.224 56.0673 44.224C53.6321 44.224 51.6581 46.2777 51.6581 48.811V51.9225H48.725C47.0871 51.8094 45.525 52.6543 44.6731 54.1139C43.8212 55.5736 43.8212 57.4052 44.6731 58.8648C45.525 60.3244 47.0871 61.1693 48.725 61.0563H51.6581V64.1678C51.6581 66.6844 53.6192 68.7246 56.0384 68.7246C58.4576 68.7246 60.4187 66.6844 60.4187 64.1678V61.1165H63.4097C65.7214 60.9569 67.5181 58.9598 67.5181 56.5496Z" fill="white"/>
</svg>
