<svg width="41" height="40" viewBox="0 0 41 40" fill="none" xmlns="http://www.w3.org/2000/svg">
<path fill-rule="evenodd" clip-rule="evenodd" d="M20.5 36.6667C29.7048 36.6667 37.1667 29.2048 37.1667 20C37.1667 10.7953 29.7048 3.33337 20.5 3.33337C11.2953 3.33337 3.83337 10.7953 3.83337 20C3.83337 29.2048 11.2953 36.6667 20.5 36.6667ZM23.8334 11.6667C23.8334 10.7462 23.0872 10 22.1667 10H18.8334C17.9129 10 17.1667 10.7462 17.1667 11.6667V16.6667H12.1667C11.2462 16.6667 10.5 17.4129 10.5 18.3334V21.6667C10.5 22.5872 11.2462 23.3334 12.1667 23.3334H17.1667V28.3334C17.1667 29.2538 17.9129 30 18.8334 30H22.1667C23.0872 30 23.8334 29.2538 23.8334 28.3334V23.3334H28.8334C29.7538 23.3334 30.5 22.5872 30.5 21.6667V18.3334C30.5 17.4129 29.7538 16.6667 28.8334 16.6667H23.8334V11.6667Z" fill="#0065D8"/>
</svg>
