<svg width="20" height="21" viewBox="0 0 20 21" fill="none" xmlns="http://www.w3.org/2000/svg">
<path fill-rule="evenodd" clip-rule="evenodd" d="M9.97302 0.555542C7.27979 0.555542 6.94179 0.567318 5.884 0.615455C4.82828 0.663799 4.10766 0.830936 3.47712 1.07617C2.82488 1.32946 2.27161 1.66827 1.7204 2.21968C1.16878 2.77088 0.829961 3.32415 0.575844 3.97617C0.329991 4.60691 0.162645 5.32773 0.115127 6.38303C0.0678159 7.44081 0.0554199 7.77901 0.0554199 10.4722C0.0554199 13.1654 0.0674027 13.5024 0.115334 14.5601C0.163885 15.6159 0.331024 16.3365 0.57605 16.967C0.829548 17.6192 1.16837 18.1725 1.71978 18.7237C2.27079 19.2753 2.82406 19.615 3.47588 19.8682C4.10683 20.1135 4.82766 20.2806 5.88318 20.329C6.94096 20.3771 7.27875 20.3889 9.97178 20.3889C12.6652 20.3889 13.0022 20.3771 14.06 20.329C15.1157 20.2806 15.8371 20.1135 16.4681 19.8682C17.1201 19.615 17.6726 19.2753 18.2236 18.7237C18.7752 18.1725 19.114 17.6192 19.3681 16.9672C19.6119 16.3365 19.7793 15.6157 19.8288 14.5604C19.8764 13.5026 19.8888 13.1654 19.8888 10.4722C19.8888 7.77901 19.8764 7.44101 19.8288 6.38324C19.7793 5.32752 19.6119 4.60691 19.3681 3.97638C19.114 3.32415 18.7752 2.77088 18.2236 2.21968C17.6719 1.66807 17.1203 1.32925 16.4675 1.07617C15.8353 0.830936 15.1142 0.663799 14.0585 0.615455C13.0007 0.567318 12.664 0.555542 9.96992 0.555542H9.97302ZM9.08295 2.34264C9.34698 2.34222 9.64159 2.34264 9.97256 2.34264C12.6203 2.34264 12.9342 2.35214 13.9798 2.39966C14.9467 2.44387 15.4714 2.60543 15.821 2.74116C16.2838 2.9209 16.6137 3.13576 16.9606 3.48285C17.3077 3.82993 17.5225 4.16049 17.7027 4.62326C17.8384 4.97241 18.0002 5.49717 18.0442 6.46405C18.0917 7.50943 18.102 7.82345 18.102 10.47C18.102 13.1165 18.0917 13.4305 18.0442 14.4759C18 15.4428 17.8384 15.9675 17.7027 16.3167C17.5229 16.7794 17.3077 17.109 16.9606 17.4558C16.6135 17.8029 16.284 18.0178 15.821 18.1975C15.4718 18.3339 14.9467 18.495 13.9798 18.5392C12.9344 18.5868 12.6203 18.5971 9.97256 18.5971C7.32458 18.5971 7.01076 18.5868 5.96536 18.5392C4.99848 18.4946 4.47371 18.3331 4.12394 18.1973C3.66116 18.0176 3.3306 17.8027 2.98351 17.4556C2.63643 17.1086 2.42156 16.7788 2.24141 16.3158C2.10567 15.9667 1.94391 15.4419 1.8999 14.4751C1.85238 13.4297 1.84288 13.1156 1.84288 10.4675C1.84288 7.81932 1.85238 7.50695 1.8999 6.46157C1.94411 5.49469 2.10567 4.96993 2.24141 4.62037C2.42115 4.15759 2.63643 3.82704 2.98351 3.47995C3.3306 3.13287 3.66116 2.91801 4.12394 2.73786C4.47351 2.6015 4.99848 2.44036 5.96536 2.39594C6.88018 2.35462 7.23471 2.34222 9.08295 2.34016V2.34264ZM15.2665 3.98917C14.6095 3.98917 14.0765 4.52157 14.0765 5.17875C14.0765 5.83573 14.6095 6.36875 15.2665 6.36875C15.9234 6.36875 16.4565 5.83573 16.4565 5.17875C16.4565 4.52177 15.9234 3.98875 15.2665 3.98875V3.98917ZM9.97305 5.37958C7.16061 5.37958 4.88037 7.65979 4.88037 10.4722C4.88037 13.2846 7.16061 15.5638 9.97305 15.5638C12.7855 15.5638 15.0649 13.2846 15.0649 10.4722C15.0649 7.65979 12.7853 5.37958 9.97284 5.37958H9.97305ZM9.973 7.16662C11.7985 7.16662 13.2786 8.64647 13.2786 10.4722C13.2786 12.2977 11.7985 13.7777 9.973 13.7777C8.14728 13.7777 6.66741 12.2977 6.66741 10.4722C6.66741 8.64647 8.14728 7.16662 9.973 7.16662Z" fill="white"/>
</svg>
