<svg width="161" height="19" viewBox="0 0 161 19" fill="none" xmlns="http://www.w3.org/2000/svg">
<path fill-rule="evenodd" clip-rule="evenodd" d="M34.844 2.30953C34.8419 2.27724 34.8419 2.24484 34.844 2.21255L34.8665 2.20794C34.8647 2.1741 34.8647 2.14019 34.8665 2.10635V2.00014V1.89855C34.864 1.86474 34.864 1.83078 34.8665 1.79696C34.8639 1.76315 34.8639 1.72919 34.8665 1.69537C34.8765 1.66231 34.8886 1.62992 34.9026 1.5984L34.9431 1.50605C34.9595 1.47579 34.9776 1.4465 34.9972 1.41831L35.0558 1.33981L35.1234 1.26593C35.1324 1.25486 35.1457 1.24452 35.1585 1.23463C35.1777 1.21977 35.1955 1.20591 35.1955 1.19205L35.2766 1.13202L35.3668 1.08122L35.4569 1.03504L35.5516 1.00272L35.6552 0.956543H35.7544H35.9572H36.0564L36.1465 1.00272L36.2366 1.03504L36.3313 1.08122L36.4169 1.13202L36.5071 1.19205C36.5302 1.21473 36.5513 1.23945 36.5702 1.26593C36.5961 1.28703 36.6189 1.31192 36.6378 1.33981L36.7009 1.41831L36.7595 1.49681L36.8045 1.58917C36.8361 1.62149 36.8361 1.65381 36.8361 1.68614L36.8631 1.78773V1.88932C36.8654 1.92314 36.8654 1.95708 36.8631 1.99091C36.8654 2.02627 36.8654 2.06175 36.8631 2.09711V2.1987L36.8361 2.29567C36.8045 2.328 36.8045 2.36032 36.8045 2.39264C36.7923 2.42476 36.7772 2.45567 36.7595 2.485C36.7456 2.51576 36.729 2.54513 36.7099 2.57273C36.6926 2.60319 36.6713 2.63114 36.6468 2.65585C36.628 2.68518 36.6052 2.71161 36.5792 2.73435L36.5071 2.80362L36.3944 2.8775L36.3088 2.93291L36.2141 2.97447L36.124 3.0068C36.0917 3.01876 36.0585 3.02803 36.0248 3.0345C35.9919 3.0393 35.9585 3.0393 35.9257 3.0345H35.7228C35.6899 3.03901 35.6566 3.03901 35.6237 3.0345L35.529 3.0068L35.4344 2.97447L35.3443 2.93291L35.2541 2.8775L35.173 2.81747L35.1009 2.74821L35.0333 2.66971C35.0102 2.64481 34.9905 2.61686 34.9747 2.58659C34.9541 2.55911 34.9359 2.52974 34.9206 2.49885L34.88 2.4065C34.8661 2.37497 34.854 2.34259 34.844 2.30953ZM38.3325 2.30953C38.3304 2.27724 38.3304 2.24484 38.3325 2.21255L38.355 2.20794C38.3532 2.1741 38.3532 2.14019 38.355 2.10635V2.00014V1.89855C38.3525 1.86474 38.3525 1.83078 38.355 1.79696C38.3524 1.76315 38.3524 1.72919 38.355 1.69537C38.365 1.66231 38.3771 1.62992 38.3911 1.5984C38.4027 1.56678 38.4162 1.53594 38.4316 1.50605L38.4857 1.41831L38.5353 1.33981L38.6029 1.26593C38.6119 1.25486 38.6252 1.24452 38.638 1.23463C38.6571 1.21977 38.675 1.20591 38.675 1.19205L38.7606 1.13202C38.7904 1.11187 38.8221 1.09485 38.8553 1.08122L38.9454 1.03504L39.0401 1.00272L39.1347 0.956543H39.2339H39.4367H39.5358L39.635 1.00272L39.7296 1.03504L39.8198 1.08122L39.9054 1.13202L39.9865 1.19205L40.0632 1.26593L40.1127 1.33981L40.1894 1.41831L40.2209 1.51067L40.266 1.60302C40.2785 1.63462 40.2891 1.66701 40.2975 1.69999L40.3246 1.80158V1.90317C40.3268 1.93699 40.3268 1.97093 40.3246 2.00476C40.3268 2.04012 40.3268 2.0756 40.3246 2.11097V2.21255L40.2975 2.30953C40.2891 2.34251 40.2785 2.3749 40.266 2.4065C40.2537 2.43861 40.2386 2.46952 40.2209 2.49885C40.2071 2.52961 40.1905 2.55898 40.1713 2.58659C40.154 2.61584 40.1344 2.64363 40.1127 2.66971L40.0632 2.73435L39.9865 2.80362L39.8829 2.8775L39.7972 2.93291L39.7071 2.97447L39.6125 3.0068C39.58 3.01817 39.5469 3.02742 39.5133 3.0345C39.4804 3.03901 39.4471 3.03901 39.4142 3.0345H39.2113H39.1122C39.0801 3.02741 39.0485 3.01815 39.0175 3.0068L38.9229 2.97447L38.8327 2.93291L38.7471 2.8775L38.6615 2.81747L38.5894 2.74821L38.5218 2.66971C38.4987 2.64481 38.479 2.61686 38.4632 2.58659L38.4091 2.49885C38.3929 2.46939 38.3793 2.43848 38.3685 2.4065C38.3545 2.37498 38.3425 2.34259 38.3325 2.30953ZM75.7815 15.7331H76.7144H76.7189C77.2589 15.7698 77.6785 16.2293 77.6785 16.7837C77.6785 17.3381 77.2589 17.7975 76.7189 17.8342H64.0992C63.7167 17.8602 63.3518 17.6658 63.1528 17.3301C62.9538 16.9943 62.9538 16.573 63.1528 16.2373C63.3518 15.9015 63.7167 15.7071 64.0992 15.7331H65.0277V10.1134C65.0301 7.1962 67.3364 4.83125 70.1837 4.82616H73.2034C74.6262 4.8287 75.779 6.00977 75.7815 7.46748V15.7331ZM70.1837 6.9272C68.4679 6.92974 67.0783 8.35551 67.0783 10.1134V15.7331H73.7352V7.46747C73.7328 7.16834 73.4954 6.92719 73.2034 6.9272H70.1837ZM61.6068 8.60343C61.6085 9.63223 61.1959 10.6162 60.4665 11.3232H60.4575C61.5461 12.3878 61.8929 14.0239 61.3333 15.4551C60.7737 16.8864 59.4204 17.8248 57.9155 17.825H53.6339C53.0939 17.7883 52.6743 17.3288 52.6743 16.7744C52.6743 16.22 53.0939 15.7606 53.6339 15.7239H57.9155C58.7846 15.6771 59.4658 14.9416 59.4658 14.05C59.4658 13.1584 58.7846 12.4229 57.9155 12.3761H55.8108C55.2708 12.3394 54.8512 11.88 54.8512 11.3256C54.8512 10.7711 55.2708 10.3117 55.8108 10.275H57.9155C58.7846 10.2283 59.4658 9.49269 59.4658 8.60112C59.4658 7.70955 58.7846 6.97399 57.9155 6.92721H53.6339C53.0939 6.89051 52.6743 6.4311 52.6743 5.87668C52.6743 5.32227 53.0939 4.86286 53.6339 4.82616H57.9246C59.9589 4.82871 61.6068 6.5191 61.6068 8.60343ZM21.0569 4.82616H26.0868C27.927 4.82871 29.4175 6.35784 29.4175 8.24325V11.8312C29.5526 14.0605 28.4685 16.1823 26.6035 17.3389C24.7384 18.4954 22.4008 18.4954 20.5358 17.3389C18.6707 16.1823 17.5866 14.0605 17.7217 11.8312V8.24325C17.7242 6.3571 19.216 4.8287 21.0569 4.82616ZM23.5719 15.7239C25.6702 15.7239 27.3713 13.9811 27.3713 11.8312V8.24324C27.3713 7.8942 27.236 7.55946 26.9951 7.31266C26.7542 7.06585 26.4275 6.9272 26.0868 6.9272H21.0569C20.3475 6.9272 19.7724 7.51641 19.7724 8.24324V11.8312C19.7724 13.9811 21.4735 15.7239 23.5719 15.7239ZM11.9302 4.82618H12.1015C13.0688 4.80726 13.9928 5.23651 14.6164 5.99446C15.1562 6.68378 15.4447 7.5443 15.4322 8.42798V16.7722C15.4322 17.3511 14.9741 17.8204 14.4091 17.8204C13.844 17.8204 13.386 17.3511 13.386 16.7722V8.42798C13.386 6.96879 12.2322 6.92723 12.1015 6.92723H11.9707C10.308 6.98869 8.98511 8.37657 8.96455 10.0811V11.3279C8.96455 11.9068 8.50649 12.3761 7.94145 12.3761C7.37641 12.3761 6.91835 11.9068 6.91835 11.3279V10.1689V10.1273V10.0811C6.90018 8.37733 5.57864 6.98878 3.91666 6.92723H3.78145C3.65075 6.92723 2.50145 6.96879 2.50145 8.42798V16.7722C2.52683 17.1641 2.33714 17.5379 2.00943 17.7418C1.68171 17.9456 1.27049 17.9456 0.942775 17.7418C0.615063 17.5379 0.425371 17.1641 0.450748 16.7722V8.42798C0.438652 7.545 0.728891 6.68558 1.27103 5.99908C1.89196 5.24023 2.81514 4.81061 3.78145 4.8308H3.96173C5.30902 4.8582 6.58958 5.43688 7.51779 6.43776C7.66903 6.60416 7.81194 6.77832 7.94596 6.95956C8.07679 6.77411 8.21826 6.59678 8.36962 6.42852C9.30027 5.42908 10.5822 4.85218 11.9302 4.82618ZM82.4384 4.82616H87.4682C89.3092 4.8287 90.8009 6.3571 90.8034 8.24325V11.8312C90.9386 14.0605 89.8545 16.1823 87.9894 17.3389C86.1243 18.4954 83.7867 18.4954 81.9217 17.3389C80.0566 16.1823 78.9725 14.0605 79.1076 11.8312V8.24325C79.1076 6.35784 80.5981 4.82871 82.4384 4.82616ZM86.853 15.2024C88.0286 14.507 88.7527 13.2219 88.7527 11.8312V8.24324C88.7527 7.51641 88.1776 6.9272 87.4682 6.9272H82.4384C81.729 6.9272 81.1539 7.51641 81.1539 8.24324V11.8312C81.1539 13.2219 81.878 14.507 83.0536 15.2024C84.2291 15.8977 85.6775 15.8977 86.853 15.2024ZM115.281 4.82616H110.247C108.408 4.83124 106.919 6.3589 106.916 8.24325V11.8312C106.916 15.1466 109.539 17.8342 112.775 17.8342C116.011 17.8342 118.634 15.1466 118.634 11.8312V8.24325C118.632 6.3589 117.143 4.83124 115.304 4.82616H115.281ZM116.584 11.8312C116.632 13.2531 115.918 14.5884 114.724 15.3139C113.529 16.0393 112.044 16.0393 110.849 15.3139C109.655 14.5884 108.942 13.2531 108.989 11.8312V8.24324C108.988 7.89463 109.122 7.55987 109.363 7.31293C109.603 7.066 109.929 6.92719 110.269 6.9272H115.304C115.644 6.92719 115.97 7.066 116.21 7.31293C116.451 7.55987 116.585 7.89463 116.584 8.24324V11.8312ZM38.1341 13.3874H34.7989C34.4597 13.3862 34.123 13.3269 33.8028 13.2119V13.2442C33.8028 14.6083 34.8782 15.7163 36.2096 15.7239H41.0502C41.5901 15.7606 42.0098 16.22 42.0098 16.7744C42.0098 17.3288 41.5901 17.7883 41.0502 17.825H36.2096C33.7431 17.8199 31.7456 15.7712 31.7431 13.2442V7.94772C31.7481 6.22583 33.1093 4.83123 34.7899 4.82616H40.3921C42.0756 4.82871 43.4389 6.2276 43.4389 7.95234C43.4364 10.953 41.0628 13.3848 38.1341 13.3874ZM34.093 7.22773C33.9061 7.42011 33.8017 7.68087 33.8028 7.95232V10.2658C33.8028 10.8258 34.2433 11.2812 34.7899 11.2863H38.1341C39.9303 11.2838 41.3857 9.79257 41.3882 7.95232C41.3894 7.68087 41.285 7.42011 41.0981 7.22773C40.9111 7.03535 40.6571 6.92719 40.3921 6.9272H34.7989C34.534 6.92719 34.2799 7.03535 34.093 7.22773ZM157.607 15.65H152.789C151.456 15.6475 150.375 14.5409 150.373 13.175V13.138C150.695 13.253 151.033 13.3123 151.374 13.3135H154.713C157.632 13.2983 159.993 10.8737 160 7.88309C159.998 6.15761 158.633 4.75946 156.949 4.75692H151.351C150.539 4.75323 149.759 5.08082 149.183 5.66736C148.607 6.2539 148.283 7.05115 148.282 7.88309V13.175C148.284 14.3951 148.761 15.564 149.607 16.4228C150.453 17.2817 151.598 17.7597 152.789 17.7511H157.629C158.012 17.7771 158.377 17.5827 158.576 17.247C158.775 16.9112 158.775 16.4899 158.576 16.1542C158.377 15.8184 158.012 15.6241 157.629 15.65H157.607ZM151.374 6.87643H156.971C157.508 6.88873 157.94 7.33301 157.949 7.88309C157.944 9.72483 156.488 11.2166 154.691 11.2217H151.351C150.798 11.2191 150.35 10.7588 150.35 10.1919V7.88309C150.35 7.31692 150.798 6.85796 151.351 6.85796L151.374 6.87643ZM96.275 4.82616H101.859C103.544 4.82616 104.91 6.2258 104.91 7.95234C104.908 10.953 102.534 13.3848 99.6057 13.3874H96.275C95.9342 13.3866 95.596 13.3273 95.2744 13.2119V16.7675C95.2998 17.1594 95.1101 17.5333 94.7824 17.7371C94.4547 17.941 94.0434 17.941 93.7157 17.7371C93.388 17.5333 93.1983 17.1594 93.2237 16.7675V7.94772C93.2262 6.22298 94.5916 4.82616 96.275 4.82616ZM96.2659 11.2909H99.6057V11.2863C101.397 11.2813 102.85 9.79718 102.86 7.96159C102.86 7.39543 102.412 6.93646 101.859 6.93646H96.2659C96.0002 6.93523 95.745 7.04283 95.5571 7.23535C95.3692 7.42787 95.2642 7.68933 95.2654 7.96159V10.2704C95.2654 10.5419 95.3709 10.8022 95.5587 10.9937C95.7465 11.1852 96.001 11.2922 96.2659 11.2909ZM141.327 9.2684H137.988C137.647 9.26959 137.309 9.32889 136.987 9.44388V5.87902C137.012 5.48708 136.823 5.11326 136.495 4.9094C136.167 4.70553 135.756 4.70553 135.428 4.9094C135.101 5.11326 134.911 5.48708 134.936 5.87902V14.6988C134.944 16.4214 136.306 17.8153 137.988 17.8204H143.585C145.27 17.8178 146.634 16.4197 146.637 14.6942C146.627 11.6964 144.253 9.27093 141.327 9.2684ZM143.581 15.7332H137.988C137.435 15.7332 136.987 15.2742 136.987 14.708V12.3992C136.99 11.8348 137.437 11.3787 137.988 11.3787H141.327C143.125 11.3787 144.583 12.8706 144.586 14.7127C144.586 14.9841 144.48 15.2444 144.293 15.4359C144.105 15.6274 143.85 15.7344 143.585 15.7332H143.581ZM128.901 4.82616H123.944C122.26 4.82871 120.897 6.2276 120.897 7.95234V14.6988C120.897 16.4235 122.26 17.8224 123.944 17.825H128.901C130.405 17.822 131.756 16.884 132.316 15.4544C132.876 14.0248 132.532 12.3902 131.448 11.3232C132.534 10.2576 132.878 8.62257 132.318 7.19297C131.758 5.76337 130.405 4.82643 128.901 4.82616ZM128.901 15.7331H123.944C123.678 15.7331 123.424 15.6251 123.236 15.4329C123.049 15.2406 122.943 14.9799 122.943 14.708V12.3207C123.05 12.3581 123.163 12.3768 123.277 12.3761H128.901C129.806 12.3761 130.54 13.1276 130.54 14.0546C130.54 14.9816 129.806 15.7331 128.901 15.7331ZM123.268 10.2843H128.901V10.275C129.77 10.2282 130.452 9.49268 130.452 8.60111C130.452 7.70953 129.77 6.97397 128.901 6.92719H123.944C123.677 6.92473 123.42 7.03164 123.23 7.22416C123.041 7.41668 122.934 7.67883 122.934 7.95232V10.3397C123.042 10.3022 123.154 10.2835 123.268 10.2843ZM24.595 9.99799H25.28C25.82 10.0347 26.2396 10.4941 26.2396 11.0485C26.2396 11.6029 25.82 12.0623 25.28 12.099H24.5814V12.8009C24.5814 13.3798 24.1234 13.8491 23.5583 13.8491C22.9933 13.8491 22.5352 13.3798 22.5352 12.8009V12.0852H21.8502C21.4676 12.1112 21.1028 11.9168 20.9038 11.5811C20.7048 11.2453 20.7048 10.824 20.9038 10.4882C21.1028 10.1525 21.4676 9.95814 21.8502 9.98414H22.5352V9.26839C22.5352 8.68565 22.9963 8.21325 23.5651 8.21325C24.1339 8.21325 24.595 8.68565 24.595 9.26839V9.99799Z" fill="#646F87"/>
<path d="M34.844 2.21255L34.8239 2.11459L34.7491 2.12992L34.7442 2.20614L34.844 2.21255ZM34.844 2.30953L34.7442 2.31594L34.7449 2.32749L34.7483 2.33856L34.844 2.30953ZM34.8665 2.20794L34.8866 2.3059L34.9708 2.28864L34.9664 2.20275L34.8665 2.20794ZM34.8665 2.10635L34.9665 2.11154V2.10635H34.8665ZM34.8665 1.89855H34.9668L34.9662 1.89105L34.8665 1.89855ZM34.8665 1.79696L34.9662 1.80447L34.9668 1.79693L34.9662 1.7894L34.8665 1.79696ZM34.8665 1.69537L34.7708 1.66633L34.7676 1.67685L34.7668 1.68781L34.8665 1.69537ZM34.9026 1.5984L34.994 1.63894L34.9941 1.63861L34.9026 1.5984ZM34.9431 1.50605L34.8549 1.45821L34.8516 1.46584L34.9431 1.50605ZM34.9972 1.41831L34.917 1.35846L34.9151 1.36118L34.9972 1.41831ZM35.0558 1.33981L34.9817 1.27197L34.9757 1.28L35.0558 1.33981ZM35.1234 1.26593L35.1973 1.33355L35.201 1.32904L35.1234 1.26593ZM35.1585 1.23463L35.2198 1.31365L35.2198 1.31365L35.1585 1.23463ZM35.1955 1.19205L35.136 1.11166L35.0955 1.14164V1.19205H35.1955ZM35.2766 1.13202L35.2272 1.04422L35.2172 1.05163L35.2766 1.13202ZM35.3668 1.08122L35.3212 0.992149L35.3177 0.9941L35.3668 1.08122ZM35.4569 1.03504L35.4246 0.94041L35.4178 0.942747L35.4113 0.946042L35.4569 1.03504ZM35.5516 1.00272L35.584 1.09774L35.5923 1.09407L35.5516 1.00272ZM35.6552 0.956543V0.856543H35.634L35.6146 0.865196L35.6552 0.956543ZM36.0564 0.956543L36.102 0.867542L36.0805 0.856543H36.0564V0.956543ZM36.1465 1.00272L36.1005 1.09247L36.1128 1.09685L36.1465 1.00272ZM36.2366 1.03504L36.2808 0.944627L36.2704 0.940913L36.2366 1.03504ZM36.3313 1.08122L36.3825 0.994927L36.3751 0.991346L36.3313 1.08122ZM36.4169 1.13202L36.4724 1.04867L36.4679 1.04601L36.4169 1.13202ZM36.5071 1.19205L36.5771 1.12068L36.5704 1.11405L36.5625 1.10881L36.5071 1.19205ZM36.5702 1.26593L36.4887 1.32398L36.4966 1.33498L36.5071 1.34351L36.5702 1.26593ZM36.6378 1.33981L36.5547 1.39606L36.5598 1.40246L36.6378 1.33981ZM36.7009 1.41831L36.7811 1.35846L36.7788 1.35566L36.7009 1.41831ZM36.7595 1.49681L36.8493 1.45295L36.8452 1.44452L36.8396 1.437L36.7595 1.49681ZM36.8045 1.58917L36.7147 1.63302L36.7217 1.64749L36.733 1.65901L36.8045 1.58917ZM36.8361 1.68614H36.7361V1.69922L36.7395 1.71186L36.8361 1.68614ZM36.8631 1.78773H36.9631V1.77465L36.9598 1.762L36.8631 1.78773ZM36.8631 1.88932H36.7629L36.7633 1.89594L36.8631 1.88932ZM36.8631 1.99091L36.7625 1.98422L36.7633 1.99725L36.8631 1.99091ZM36.8631 2.09711L36.7631 2.09076V2.09711H36.8631ZM36.8631 2.1987L36.9595 2.22556L36.9631 2.21238V2.1987H36.8631ZM36.8361 2.29567L36.9077 2.36552L36.9255 2.3472L36.9324 2.32254L36.8361 2.29567ZM36.8045 2.39264L36.8979 2.42836L36.9045 2.41111V2.39264H36.8045ZM36.7595 2.485L36.6732 2.43294L36.6683 2.444L36.7595 2.485ZM36.7099 2.57273L36.6274 2.5155L36.623 2.52326L36.7099 2.57273ZM36.6468 2.65585L36.5758 2.58539L36.5683 2.59294L36.5626 2.60191L36.6468 2.65585ZM36.5792 2.73435L36.5134 2.65893L36.5099 2.66223L36.5792 2.73435ZM36.5071 2.80362L36.5619 2.88724L36.5697 2.88216L36.5763 2.87574L36.5071 2.80362ZM36.3944 2.8775L36.4487 2.96146L36.4492 2.96113L36.3944 2.8775ZM36.3088 2.93291L36.349 3.02448L36.3563 3.02124L36.3631 3.01687L36.3088 2.93291ZM36.2141 2.97447L36.248 3.06883L36.2543 3.06604L36.2141 2.97447ZM36.124 3.0068L36.0902 2.91266L36.0892 2.91303L36.124 3.0068ZM36.0248 3.0345L36.0393 3.13355L36.0437 3.13271L36.0248 3.0345ZM35.9257 3.0345L35.9401 2.93555L35.9329 2.9345H35.9257V3.0345ZM35.7228 3.0345V2.93357L35.7093 2.93543L35.7228 3.0345ZM35.6237 3.0345L35.5956 3.13048L35.6027 3.13257L35.6101 3.13358L35.6237 3.0345ZM35.529 3.0068L35.4967 3.10152L35.501 3.10277L35.529 3.0068ZM35.4344 2.97447L35.3923 3.06577L35.4021 3.06911L35.4344 2.97447ZM35.3443 2.93291L35.2915 3.01871L35.3024 3.02373L35.3443 2.93291ZM35.2541 2.8775L35.1944 2.95819L35.2017 2.96269L35.2541 2.8775ZM35.173 2.81747L35.1031 2.89019L35.1135 2.89786L35.173 2.81747ZM35.1009 2.74821L35.0248 2.81376L35.0316 2.82033L35.1009 2.74821ZM35.0333 2.66971L35.1091 2.6044L35.1066 2.60172L35.0333 2.66971ZM34.9747 2.58659L35.0633 2.5403L35.0595 2.53307L35.0547 2.52656L34.9747 2.58659ZM34.9206 2.49885L34.8289 2.53911L34.831 2.54336L34.9206 2.49885ZM34.88 2.4065L34.9716 2.36628L34.9714 2.36596L34.88 2.4065ZM38.3325 2.21255L38.3124 2.11459L38.2376 2.12992L38.2327 2.20614L38.3325 2.21255ZM38.3325 2.30953L38.2327 2.31594L38.2334 2.32749L38.2368 2.33856L38.3325 2.30953ZM38.355 2.20794L38.3751 2.3059L38.4593 2.28864L38.4549 2.20275L38.355 2.20794ZM38.355 2.10635L38.455 2.11154V2.10635H38.355ZM38.355 1.89855H38.4553L38.4547 1.89105L38.355 1.89855ZM38.355 1.79696L38.4547 1.80447L38.4553 1.79693L38.4547 1.7894L38.355 1.79696ZM38.355 1.69537L38.2593 1.66633L38.2561 1.67685L38.2553 1.68781L38.355 1.69537ZM38.3911 1.5984L38.4827 1.63902L38.4849 1.63294L38.3911 1.5984ZM38.4316 1.50605L38.3462 1.45342L38.3427 1.46029L38.4316 1.50605ZM38.4857 1.41831L38.4011 1.36491L38.4006 1.36584L38.4857 1.41831ZM38.5353 1.33981L38.4615 1.27231L38.4555 1.27888L38.4507 1.28641L38.5353 1.33981ZM38.6029 1.26593L38.6768 1.33355L38.6805 1.32904L38.6029 1.26593ZM38.638 1.23463L38.6992 1.31365L38.6993 1.31365L38.638 1.23463ZM38.675 1.19205L38.6176 1.11016L38.575 1.14002V1.19205H38.675ZM38.7606 1.13202L38.7046 1.04915L38.7032 1.05013L38.7606 1.13202ZM38.8553 1.08122L38.8935 1.17402L38.9009 1.17022L38.8553 1.08122ZM38.9454 1.03504L38.9131 0.94041L38.9063 0.942747L38.8998 0.946042L38.9454 1.03504ZM39.0401 1.00272L39.0726 1.09809L39.0839 1.09259L39.0401 1.00272ZM39.1347 0.956543V0.856543H39.1116L39.0909 0.866668L39.1347 0.956543ZM39.5358 0.956543L39.5781 0.865892L39.558 0.856543H39.5358V0.956543ZM39.635 1.00272L39.5925 1.09389L39.6027 1.09735L39.635 1.00272ZM39.7296 1.03504L39.7752 0.946042L39.7688 0.942746L39.762 0.94041L39.7296 1.03504ZM39.8198 1.08122L39.8709 0.995048L39.8654 0.992219L39.8198 1.08122ZM39.9054 1.13202L39.9652 1.05121L39.9564 1.04601L39.9054 1.13202ZM39.9865 1.19205L40.0566 1.11945L40.046 1.11166L39.9865 1.19205ZM40.0632 1.26593L40.1462 1.21021L40.1403 1.20135L40.1326 1.19394L40.0632 1.26593ZM40.1127 1.33981L40.0297 1.39553L40.0348 1.40312L40.0412 1.40966L40.1127 1.33981ZM40.1894 1.41831L40.284 1.38598L40.2767 1.36462L40.2609 1.34846L40.1894 1.41831ZM40.2209 1.51067L40.1255 1.54325L40.131 1.55452L40.2209 1.51067ZM40.266 1.60302L40.3592 1.56604L40.3559 1.55916L40.266 1.60302ZM40.2975 1.69999L40.2007 1.72487L40.2009 1.72571L40.2975 1.69999ZM40.3246 1.80158H40.4246V1.7885L40.4212 1.77586L40.3246 1.80158ZM40.3246 1.90317H40.2244L40.2248 1.9098L40.3246 1.90317ZM40.3246 2.00476L40.2239 1.99807L40.2248 2.0111L40.3246 2.00476ZM40.3246 2.11097L40.2246 2.10461V2.11097H40.3246ZM40.3246 2.21255L40.4209 2.23942L40.4246 2.22624V2.21255H40.3246ZM40.2975 2.30953L40.2012 2.28266L40.2007 2.28465L40.2975 2.30953ZM40.266 2.4065L40.173 2.36962L40.1726 2.37078L40.266 2.4065ZM40.2209 2.49885L40.1347 2.44679L40.1297 2.45785L40.2209 2.49885ZM40.1713 2.58659L40.089 2.52943L40.0853 2.53558L40.1713 2.58659ZM40.1127 2.66971L40.0357 2.60578L40.0334 2.60885L40.1127 2.66971ZM40.0632 2.73435L40.1302 2.80853L40.137 2.80243L40.1425 2.79521L40.0632 2.73435ZM39.9865 2.80362L40.045 2.8856L40.0536 2.8778L39.9865 2.80362ZM39.8829 2.8775L39.9373 2.96154L39.9409 2.95894L39.8829 2.8775ZM39.7972 2.93291L39.8391 3.02373L39.8456 3.02074L39.8516 3.01687L39.7972 2.93291ZM39.7071 2.97447L39.7396 3.06961L39.749 3.06529L39.7071 2.97447ZM39.6125 3.0068L39.5801 2.91216L39.5794 2.91243L39.6125 3.0068ZM39.5133 3.0345L39.5269 3.13383L39.5339 3.13235L39.5133 3.0345ZM39.4142 3.0345L39.4278 2.9345H39.4142V3.0345ZM39.1122 3.0345L39.0906 3.13215L39.1013 3.1345H39.1122V3.0345ZM39.0175 3.0068L39.052 2.9129L39.0499 2.91216L39.0175 3.0068ZM38.9229 2.97447L38.8808 3.06577L38.8906 3.06911L38.9229 2.97447ZM38.8327 2.93291L38.7784 3.01687L38.7844 3.02074L38.7909 3.02373L38.8327 2.93291ZM38.7471 2.8775L38.6897 2.95944L38.6928 2.96146L38.7471 2.8775ZM38.6615 2.81747L38.5922 2.88959L38.5978 2.89493L38.6041 2.89936L38.6615 2.81747ZM38.5894 2.74821L38.5133 2.81376L38.5201 2.82033L38.5894 2.74821ZM38.5218 2.66971L38.5976 2.6044L38.5951 2.60172L38.5218 2.66971ZM38.4632 2.58659L38.552 2.54018L38.5483 2.53411L38.4632 2.58659ZM38.4091 2.49885L38.3214 2.54715L38.324 2.55133L38.4091 2.49885ZM38.3685 2.4065L38.4637 2.37446L38.4599 2.36596L38.3685 2.4065ZM75.7815 15.7331H75.6815V15.8331H75.7815V15.7331ZM76.7189 15.7331L76.7257 15.6331H76.7189V15.7331ZM76.7189 17.8342V17.9344L76.7257 17.934L76.7189 17.8342ZM64.0992 17.8342V17.734L64.0924 17.7344L64.0992 17.8342ZM63.1528 17.3301L63.0668 17.3811L63.0668 17.3811L63.1528 17.3301ZM63.1528 16.2373L63.2388 16.2882L63.2388 16.2882L63.1528 16.2373ZM64.0992 15.7331L64.0924 15.8331H64.0992V15.7331ZM65.0277 15.7331V15.8331H65.1277V15.7331H65.0277ZM65.0277 10.1134L64.9277 10.1133V10.1134H65.0277ZM70.1837 4.82616L70.1837 4.72616L70.1835 4.72616L70.1837 4.82616ZM73.2034 4.82616L73.2036 4.72616H73.2034V4.82616ZM75.7815 7.46748L75.8815 7.46748L75.8815 7.46731L75.7815 7.46748ZM70.1837 6.9272V6.8272L70.1836 6.8272L70.1837 6.9272ZM67.0783 15.7331H66.9783V15.8331H67.0783V15.7331ZM73.7352 15.7331V15.8331H73.8352V15.7331H73.7352ZM73.7352 7.46747H73.8352L73.8352 7.46664L73.7352 7.46747ZM73.2034 6.9272L73.2034 7.0272L73.2034 7.0272L73.2034 6.9272ZM60.4665 11.3232V11.4232H60.507L60.5361 11.3951L60.4665 11.3232ZM61.6068 8.60343L61.5068 8.60343L61.5068 8.60359L61.6068 8.60343ZM60.4575 11.3232V11.2232H60.2122L60.3876 11.3947L60.4575 11.3232ZM61.3333 15.4551L61.4265 15.4916L61.4265 15.4916L61.3333 15.4551ZM57.9155 17.825L57.9155 17.925L57.9156 17.925L57.9155 17.825ZM53.6339 17.825L53.6271 17.925H53.6339V17.825ZM53.6339 15.7239V15.6237L53.6271 15.6241L53.6339 15.7239ZM57.9155 15.7239V15.8241L57.9209 15.8238L57.9155 15.7239ZM57.9155 12.3761L57.9209 12.2761H57.9155V12.3761ZM55.8108 12.3761L55.804 12.4761H55.8108V12.3761ZM55.8108 10.275V10.1748L55.804 10.1753L55.8108 10.275ZM57.9155 10.275V10.3752L57.9209 10.3749L57.9155 10.275ZM57.9155 6.92721L57.9209 6.82721H57.9155V6.92721ZM53.6339 6.92721L53.6271 7.02721H53.6339V6.92721ZM53.6339 4.82616V4.72593L53.6271 4.72639L53.6339 4.82616ZM57.9246 4.82616L57.9247 4.72616H57.9246V4.82616ZM26.0868 4.82616L26.0869 4.72616H26.0868V4.82616ZM21.0569 4.82616V4.72616L21.0568 4.72616L21.0569 4.82616ZM29.4175 8.24325L29.3175 8.24325V8.24325H29.4175ZM29.4175 11.8312H29.3173L29.3177 11.8372L29.4175 11.8312ZM26.6035 17.3389L26.5508 17.2539L26.5508 17.2539L26.6035 17.3389ZM20.5358 17.3389L20.5885 17.2539L20.5885 17.2539L20.5358 17.3389ZM17.7217 11.8312L17.8217 11.8373V11.8312H17.7217ZM17.7217 8.24325L17.6217 8.24312V8.24325H17.7217ZM26.9951 7.31266L26.9235 7.3825L26.9235 7.3825L26.9951 7.31266ZM12.1015 4.82618V4.9262L12.1034 4.92617L12.1015 4.82618ZM11.9302 4.82618L11.9302 4.72617L11.9283 4.7262L11.9302 4.82618ZM14.6164 5.99446L14.6951 5.93279L14.6936 5.93093L14.6164 5.99446ZM15.4322 8.42798L15.3322 8.42657V8.42798H15.4322ZM11.9707 6.92723V6.82717L11.9671 6.8273L11.9707 6.92723ZM8.96455 10.0811L8.86455 10.0799V10.0811H8.96455ZM6.91835 10.0811H7.01836L7.01835 10.0801L6.91835 10.0811ZM3.91666 6.92723L3.92037 6.82723H3.91666V6.92723ZM2.50145 16.7722H2.40124L2.40166 16.7786L2.50145 16.7722ZM2.00943 17.7418L1.9566 17.6569L1.9566 17.6569L2.00943 17.7418ZM0.942775 17.7418L0.995597 17.6569L0.995596 17.6569L0.942775 17.7418ZM0.450748 16.7722L0.550748 16.7786V16.7722H0.450748ZM0.450748 8.42798H0.550757L0.550739 8.42661L0.450748 8.42798ZM1.27103 5.99908L1.19363 5.93574L1.19255 5.9371L1.27103 5.99908ZM3.78145 4.8308L3.77936 4.9308H3.78145V4.8308ZM3.96173 4.8308L3.96377 4.7308H3.96173V4.8308ZM7.51779 6.43776L7.5918 6.3705L7.59111 6.36976L7.51779 6.43776ZM7.94596 6.95956L7.86555 7.01901L7.94787 7.13033L8.02767 7.0172L7.94596 6.95956ZM8.36962 6.42852L8.29643 6.36037L8.29528 6.36164L8.36962 6.42852ZM87.4682 4.82616L87.4684 4.72616H87.4682V4.82616ZM82.4384 4.82616L82.4384 4.72616L82.4382 4.72616L82.4384 4.82616ZM90.8034 8.24325L90.9034 8.24325L90.9034 8.24312L90.8034 8.24325ZM90.8034 11.8312H90.7032L90.7036 11.8372L90.8034 11.8312ZM87.9894 17.3389L87.9367 17.2539L87.9367 17.2539L87.9894 17.3389ZM81.9217 17.3389L81.9744 17.2539L81.9744 17.2539L81.9217 17.3389ZM79.1076 11.8312L79.2076 11.8373V11.8312H79.1076ZM86.853 15.2024L86.9039 15.2884L86.9039 15.2884L86.853 15.2024ZM83.0536 15.2024L83.0027 15.2884L83.0027 15.2884L83.0536 15.2024ZM110.247 4.82616V4.72616L110.247 4.72616L110.247 4.82616ZM106.916 8.24325L106.816 8.24312V8.24325H106.916ZM118.634 8.24325L118.734 8.24325L118.734 8.24312L118.634 8.24325ZM115.304 4.82616L115.304 4.72616H115.304V4.82616ZM114.724 15.3139L114.776 15.3993L114.776 15.3993L114.724 15.3139ZM116.584 11.8312H116.484L116.484 11.8345L116.584 11.8312ZM108.989 11.8312L109.089 11.8345V11.8312H108.989ZM108.989 8.24324H109.089L109.089 8.24289L108.989 8.24324ZM109.363 7.31293L109.434 7.38266L109.434 7.38266L109.363 7.31293ZM110.269 6.9272L110.269 7.0272H110.269V6.9272ZM115.304 6.9272L115.304 7.0272L115.304 7.0272L115.304 6.9272ZM116.21 7.31293L116.282 7.24321L116.282 7.24321L116.21 7.31293ZM116.584 8.24324L116.484 8.24289V8.24324H116.584ZM34.7989 13.3874L34.7986 13.4874H34.7989V13.3874ZM38.1341 13.3874V13.4874L38.1342 13.4874L38.1341 13.3874ZM33.8028 13.2119L33.8366 13.1178L33.7028 13.0697V13.2119H33.8028ZM33.8028 13.2442L33.9028 13.2442V13.2442H33.8028ZM36.2096 15.7239L36.209 15.8239H36.2096V15.7239ZM41.0502 15.7239L41.057 15.6239H41.0502V15.7239ZM41.0502 17.825V17.9252L41.057 17.9247L41.0502 17.825ZM36.2096 17.825L36.2094 17.925H36.2096V17.825ZM31.7431 13.2442L31.6431 13.2442L31.6431 13.2443L31.7431 13.2442ZM31.7431 7.94772L31.6431 7.94743V7.94772H31.7431ZM34.7899 4.82616L34.7899 4.72616L34.7896 4.72616L34.7899 4.82616ZM40.3921 4.82616L40.3923 4.72616H40.3921V4.82616ZM43.4389 7.95234L43.5389 7.95242V7.95234H43.4389ZM33.8028 7.95232L33.9028 7.95232L33.9028 7.95188L33.8028 7.95232ZM34.093 7.22773L34.1647 7.29741L34.1647 7.29741L34.093 7.22773ZM33.8028 10.2658L33.9028 10.2658V10.2658H33.8028ZM34.7899 11.2863L34.789 11.3863H34.7899V11.2863ZM38.1341 11.2863L38.1341 11.3863L38.1343 11.3863L38.1341 11.2863ZM41.3882 7.95232L41.2882 7.95188L41.2882 7.95219L41.3882 7.95232ZM41.0981 7.22773L41.0263 7.29741L41.0263 7.29741L41.0981 7.22773ZM40.3921 6.9272L40.3921 7.0272L40.3921 7.0272L40.3921 6.9272ZM34.7989 6.9272L34.7989 7.0272H34.7989V6.9272ZM152.789 15.65L152.789 15.75H152.789V15.65ZM150.373 13.175L150.273 13.175L150.273 13.1751L150.373 13.175ZM150.373 13.138L150.407 13.0439L150.273 12.9961V13.138H150.373ZM151.374 13.3135L151.373 13.4135H151.374V13.3135ZM154.713 13.3135V13.4135L154.714 13.4135L154.713 13.3135ZM160 7.88309L160.1 7.88334L160.1 7.88295L160 7.88309ZM156.949 4.75692L156.949 4.65692H156.949V4.75692ZM151.351 4.75692L151.351 4.85692H151.351V4.75692ZM148.282 7.88309L148.182 7.88295V7.88309H148.282ZM148.282 13.175H148.182L148.182 13.1752L148.282 13.175ZM149.607 16.4228L149.536 16.493L149.536 16.493L149.607 16.4228ZM152.789 17.7511V17.6511L152.788 17.6511L152.789 17.7511ZM157.629 17.7511L157.636 17.6511H157.629V17.7511ZM158.576 16.1542L158.662 16.1032L158.662 16.1032L158.576 16.1542ZM157.629 15.65V15.7503L157.636 15.7498L157.629 15.65ZM156.971 6.87643L156.974 6.77643H156.971V6.87643ZM151.374 6.87643L151.31 6.95377L151.338 6.97643H151.374V6.87643ZM157.949 7.88309L158.049 7.88335L158.049 7.88135L157.949 7.88309ZM154.691 11.2217V11.3217L154.691 11.3217L154.691 11.2217ZM151.351 11.2217L151.351 11.3217H151.351V11.2217ZM151.351 6.85796L151.414 6.78061L151.387 6.75796H151.351V6.85796ZM104.91 7.95234L105.01 7.95242V7.95234H104.91ZM99.6057 13.3874L99.6057 13.4874L99.6058 13.4874L99.6057 13.3874ZM96.275 13.3874L96.2747 13.4874H96.275V13.3874ZM95.2744 13.2119L95.3082 13.1178L95.1744 13.0698V13.2119H95.2744ZM95.2744 16.7675H95.1742L95.1746 16.774L95.2744 16.7675ZM94.7824 17.7371L94.7296 17.6522L94.7295 17.6522L94.7824 17.7371ZM93.7157 17.7371L93.6629 17.822L93.6629 17.822L93.7157 17.7371ZM93.2237 16.7675L93.3237 16.774V16.7675H93.2237ZM93.2237 7.94772L93.1237 7.94757V7.94772H93.2237ZM99.6057 11.2909V11.3909H99.7057V11.2909H99.6057ZM96.2659 11.2909V11.1909L96.2655 11.1909L96.2659 11.2909ZM99.6057 11.2863L99.6054 11.1863L99.5057 11.1866V11.2863H99.6057ZM102.86 7.96159L102.96 7.96213V7.96159H102.86ZM96.2659 6.93646L96.2655 7.03646H96.2659V6.93646ZM95.5571 7.23535L95.6287 7.3052L95.6287 7.3052L95.5571 7.23535ZM95.2654 7.96159L95.3654 7.96159L95.3654 7.96115L95.2654 7.96159ZM95.2654 10.2704L95.3654 10.2704V10.2704H95.2654ZM137.988 9.2684V9.1684L137.987 9.16841L137.988 9.2684ZM141.327 9.2684L141.327 9.1684H141.327V9.2684ZM136.987 9.44388H136.887V9.58582L137.021 9.53804L136.987 9.44388ZM136.987 5.87902L136.887 5.87254V5.87902H136.987ZM134.936 5.87902H135.037L135.036 5.87256L134.936 5.87902ZM134.936 14.6988H134.836L134.836 14.6992L134.936 14.6988ZM137.988 17.8204L137.987 17.9204H137.988V17.8204ZM143.585 17.8204V17.9204L143.586 17.9204L143.585 17.8204ZM146.637 14.6942L146.737 14.6943L146.737 14.6939L146.637 14.6942ZM136.987 12.3992L136.887 12.3988V12.3992H136.987ZM137.988 11.3787L137.988 11.4787H137.988V11.3787ZM141.327 11.3787L141.327 11.4787L141.327 11.4787L141.327 11.3787ZM144.586 14.7127L144.686 14.7127L144.686 14.7125L144.586 14.7127ZM144.293 15.4359L144.364 15.5059L144.364 15.5059L144.293 15.4359ZM143.585 15.7332L143.586 15.6332H143.585V15.7332ZM123.944 4.82616V4.72616L123.944 4.72616L123.944 4.82616ZM128.901 4.82616L128.901 4.72616H128.901V4.82616ZM123.944 17.825L123.944 17.925H123.944V17.825ZM128.901 17.825V17.925L128.902 17.925L128.901 17.825ZM132.316 15.4544L132.409 15.4909L132.409 15.4909L132.316 15.4544ZM131.448 11.3232L131.378 11.2519L131.305 11.3232L131.378 11.3945L131.448 11.3232ZM122.943 12.3207L122.976 12.2262L122.843 12.1799V12.3207H122.943ZM123.277 12.3761V12.2761L123.276 12.2761L123.277 12.3761ZM128.901 10.2843V10.3843H129.001V10.2843H128.901ZM123.268 10.2843L123.267 10.3843H123.268V10.2843ZM128.901 10.275L128.896 10.1752L128.801 10.1803V10.275H128.901ZM128.901 6.92719L128.907 6.82719H128.901V6.92719ZM123.944 6.92719L123.943 7.02719H123.944V6.92719ZM123.23 7.22416L123.302 7.29433L123.302 7.29433L123.23 7.22416ZM122.934 7.95232L123.034 7.95232L123.034 7.95232L122.934 7.95232ZM122.934 10.3397H122.834V10.4805L122.967 10.4341L122.934 10.3397ZM25.28 9.99799L25.2868 9.89799H25.28V9.99799ZM24.595 9.99799H24.495V10.098H24.595V9.99799ZM25.28 12.099V12.1993L25.2868 12.1988L25.28 12.099ZM24.5814 12.099V11.999H24.4814V12.099H24.5814ZM22.5352 12.0852H22.6352V11.9852H22.5352V12.0852ZM21.8502 12.0852V11.985L21.8434 11.9854L21.8502 12.0852ZM20.9038 11.5811L20.8177 11.6321L20.8177 11.6321L20.9038 11.5811ZM20.9038 10.4882L20.8177 10.4373L20.8177 10.4373L20.9038 10.4882ZM21.8502 9.98414L21.8434 10.0841H21.8502V9.98414ZM22.5352 9.98414V10.0841H22.6352V9.98414H22.5352ZM34.7442 2.20614C34.7418 2.2427 34.7418 2.27938 34.7442 2.31594L34.9438 2.30311C34.942 2.27509 34.942 2.24699 34.9438 2.21897L34.7442 2.20614ZM34.8464 2.10997L34.8239 2.11459L34.8641 2.31052L34.8866 2.3059L34.8464 2.10997ZM34.7666 2.10116C34.7647 2.13845 34.7647 2.17583 34.7666 2.21313L34.9664 2.20275C34.9648 2.17237 34.9648 2.14192 34.9664 2.11154L34.7666 2.10116ZM34.7665 2.00014V2.10635H34.9665V2.00014H34.7665ZM34.7665 1.89855V2.00014H34.9665V1.89855H34.7665ZM34.7668 1.78946C34.7639 1.82827 34.7639 1.86725 34.7668 1.90606L34.9662 1.89105C34.9641 1.86223 34.9641 1.83328 34.9662 1.80447L34.7668 1.78946ZM34.7668 1.68781C34.7638 1.72666 34.7638 1.76568 34.7668 1.80452L34.9662 1.7894C34.964 1.76062 34.964 1.73171 34.9662 1.70293L34.7668 1.68781ZM34.8111 1.55787C34.7955 1.59313 34.782 1.62936 34.7708 1.66633L34.9622 1.72442C34.971 1.69527 34.9817 1.66672 34.994 1.63894L34.8111 1.55787ZM34.8516 1.46584L34.811 1.55819L34.9941 1.63861L35.0347 1.54626L34.8516 1.46584ZM34.9151 1.36118C34.8934 1.39242 34.8734 1.42487 34.8552 1.45838L35.031 1.55372C35.0457 1.52671 35.0618 1.50057 35.0793 1.47544L34.9151 1.36118ZM34.9757 1.28L34.9171 1.3585L35.0773 1.47813L35.1359 1.39963L34.9757 1.28ZM35.0496 1.19842L34.982 1.27231L35.1296 1.40732L35.1972 1.33343L35.0496 1.19842ZM35.0972 1.15561C35.087 1.16351 35.0635 1.18107 35.0458 1.20282L35.201 1.32904C35.2002 1.32994 35.2009 1.32895 35.2048 1.32565C35.2086 1.32239 35.213 1.31888 35.2198 1.31365L35.0972 1.15561ZM35.0955 1.19205C35.0955 1.17354 35.1015 1.16001 35.1055 1.15312C35.1074 1.14959 35.1093 1.1471 35.1104 1.14567C35.1116 1.14422 35.1124 1.1434 35.1125 1.14324C35.1127 1.14309 35.1117 1.14405 35.1087 1.14653C35.1057 1.149 35.1022 1.15171 35.0972 1.15562L35.2198 1.31365C35.2277 1.30752 35.2431 1.2958 35.2559 1.28269C35.2658 1.27251 35.2955 1.24071 35.2955 1.19205H35.0955ZM35.2172 1.05163L35.136 1.11166L35.255 1.27243L35.3361 1.2124L35.2172 1.05163ZM35.3177 0.9941L35.2276 1.04489L35.3257 1.21914L35.4159 1.16834L35.3177 0.9941ZM35.4113 0.946042L35.3212 0.992219L35.4124 1.17022L35.5025 1.12405L35.4113 0.946042ZM35.5193 0.908087L35.4246 0.94041L35.4893 1.12968L35.5839 1.09735L35.5193 0.908087ZM35.6146 0.865196L35.5109 0.911373L35.5923 1.09407L35.6959 1.04789L35.6146 0.865196ZM35.7544 0.856543H35.6552V1.05654H35.7544V0.856543ZM35.9572 0.856543H35.7544V1.05654H35.9572V0.856543ZM36.0564 0.856543H35.9572V1.05654H36.0564V0.856543ZM36.1921 0.913719L36.102 0.867542L36.0108 1.04554L36.1009 1.09172L36.1921 0.913719ZM36.2704 0.940913L36.1803 0.908589L36.1128 1.09685L36.2029 1.12917L36.2704 0.940913ZM36.3751 0.991346L36.2805 0.945169L36.1928 1.12492L36.2875 1.1711L36.3751 0.991346ZM36.4679 1.04601L36.3823 0.995213L36.2803 1.16723L36.3659 1.21802L36.4679 1.04601ZM36.5625 1.10881L36.4724 1.04878L36.3615 1.21525L36.4516 1.27528L36.5625 1.10881ZM36.6516 1.20788C36.6293 1.17666 36.6044 1.14748 36.5771 1.12068L36.437 1.26341C36.4559 1.28198 36.4733 1.30224 36.4887 1.32398L36.6516 1.20788ZM36.7206 1.28375C36.6963 1.24782 36.6669 1.21566 36.6333 1.18834L36.5071 1.34351C36.5254 1.3584 36.5415 1.37602 36.555 1.39587L36.7206 1.28375ZM36.7788 1.35566L36.7157 1.27716L36.5598 1.40246L36.6229 1.48096L36.7788 1.35566ZM36.8396 1.437L36.781 1.3585L36.6207 1.47813L36.6793 1.55663L36.8396 1.437ZM36.8944 1.54531L36.8493 1.45295L36.6696 1.54067L36.7147 1.63302L36.8944 1.54531ZM36.9361 1.68614C36.9361 1.65267 36.938 1.5827 36.8761 1.51932L36.733 1.65901C36.7349 1.66101 36.7353 1.66186 36.7351 1.66153C36.7349 1.66118 36.7349 1.66093 36.735 1.66136C36.7352 1.66201 36.7355 1.66387 36.7358 1.66798C36.7361 1.67252 36.7361 1.67755 36.7361 1.68614H36.9361ZM36.9598 1.762L36.9327 1.66041L36.7395 1.71186L36.7665 1.81345L36.9598 1.762ZM36.9631 1.88932V1.78773H36.7631V1.88932H36.9631ZM36.9629 1.99753C36.9654 1.9593 36.9654 1.92093 36.9629 1.88269L36.7633 1.89594C36.7653 1.92535 36.7653 1.95487 36.7633 1.98428L36.9629 1.99753ZM36.9629 2.10345C36.9654 2.06387 36.9654 2.02415 36.9629 1.98456L36.7633 1.99725C36.7653 2.02839 36.7653 2.05963 36.7633 2.09077L36.9629 2.10345ZM36.9631 2.1987V2.09711H36.7631V2.1987H36.9631ZM36.9324 2.32254L36.9595 2.22556L36.7668 2.17184L36.7398 2.26881L36.9324 2.32254ZM36.9045 2.39264C36.9045 2.38406 36.9046 2.37902 36.9048 2.37449C36.9051 2.37037 36.9055 2.36852 36.9056 2.36786C36.9057 2.36744 36.9057 2.36769 36.9055 2.36804C36.9053 2.36837 36.9057 2.36752 36.9077 2.36552L36.7645 2.22583C36.7027 2.28921 36.7045 2.35918 36.7045 2.39264H36.9045ZM36.8451 2.53668C36.8659 2.50225 36.8836 2.46599 36.8979 2.42836L36.7111 2.35693C36.701 2.38352 36.6885 2.40909 36.6739 2.43331L36.8451 2.53668ZM36.792 2.62974C36.8147 2.59707 36.8343 2.56234 36.8507 2.526L36.6683 2.444C36.6569 2.46918 36.6434 2.49319 36.6277 2.51573L36.792 2.62974ZM36.7177 2.72632C36.7485 2.6953 36.7751 2.66028 36.7968 2.62221L36.623 2.52326C36.61 2.54609 36.5941 2.56698 36.5758 2.58539L36.7177 2.72632ZM36.6449 2.80969C36.6782 2.78068 36.7071 2.74703 36.731 2.70979L36.5626 2.60191C36.5489 2.62332 36.5323 2.64254 36.5134 2.65902L36.6449 2.80969ZM36.5763 2.87574L36.6485 2.80647L36.5099 2.66223L36.4378 2.7315L36.5763 2.87574ZM36.4492 2.96113L36.5619 2.88724L36.4522 2.71999L36.3396 2.79388L36.4492 2.96113ZM36.3631 3.01687L36.4487 2.96146L36.3401 2.79355L36.2544 2.84896L36.3631 3.01687ZM36.2543 3.06604L36.349 3.02448L36.2686 2.84135L36.1739 2.88291L36.2543 3.06604ZM36.1577 3.10093L36.2479 3.0686L36.1804 2.88034L36.0902 2.91267L36.1577 3.10093ZM36.0437 3.13271C36.0828 3.12519 36.1213 3.11444 36.1587 3.10056L36.0892 2.91303C36.0621 2.92308 36.0343 2.93086 36.006 2.9363L36.0437 3.13271ZM35.9112 3.13346C35.9537 3.13965 35.9968 3.13965 36.0393 3.13346L36.0104 2.93555C35.9871 2.93895 35.9634 2.93895 35.9401 2.93555L35.9112 3.13346ZM35.7228 3.1345H35.9257V2.9345H35.7228V3.1345ZM35.6101 3.13358C35.652 3.13932 35.6945 3.13932 35.7364 3.13358L35.7093 2.93543C35.6854 2.9387 35.6612 2.9387 35.6373 2.93543L35.6101 3.13358ZM35.501 3.10277L35.5956 3.13048L35.6518 2.93853L35.5571 2.91082L35.501 3.10277ZM35.4021 3.06911L35.4967 3.10143L35.5614 2.91216L35.4667 2.87984L35.4021 3.06911ZM35.3024 3.02373L35.3925 3.06529L35.4763 2.88366L35.3861 2.8421L35.3024 3.02373ZM35.2017 2.96269L35.2919 3.0181L35.3966 2.84772L35.3065 2.79231L35.2017 2.96269ZM35.1135 2.89786L35.1946 2.95789L35.3136 2.79712L35.2325 2.73709L35.1135 2.89786ZM35.0316 2.82033L35.1037 2.88959L35.2423 2.74535L35.1701 2.67609L35.0316 2.82033ZM34.9575 2.73496L35.0251 2.81346L35.1766 2.68295L35.109 2.60445L34.9575 2.73496ZM34.886 2.63288C34.9059 2.67098 34.9308 2.70624 34.9599 2.73769L35.1066 2.60172C35.0896 2.58339 35.075 2.56273 35.0633 2.5403L34.886 2.63288ZM34.831 2.54336C34.8491 2.57968 34.8704 2.61425 34.8947 2.64662L35.0547 2.52656C35.0377 2.50397 35.0228 2.4798 35.0101 2.45434L34.831 2.54336ZM34.7885 2.44671L34.829 2.53907L35.0122 2.45864L34.9716 2.36628L34.7885 2.44671ZM34.7483 2.33856C34.7595 2.37554 34.773 2.41177 34.7886 2.44703L34.9714 2.36596C34.9591 2.33818 34.9485 2.30964 34.9397 2.28049L34.7483 2.33856ZM38.2327 2.20614C38.2303 2.2427 38.2303 2.27938 38.2327 2.31594L38.4323 2.30311C38.4305 2.2751 38.4305 2.24699 38.4323 2.21897L38.2327 2.20614ZM38.3349 2.10997L38.3124 2.11459L38.3525 2.31052L38.3751 2.3059L38.3349 2.10997ZM38.2551 2.10116C38.2532 2.13845 38.2532 2.17583 38.2551 2.21313L38.4549 2.20275C38.4533 2.17237 38.4533 2.14192 38.4549 2.11154L38.2551 2.10116ZM38.255 2.00014V2.10635H38.455V2.00014H38.255ZM38.255 1.89855V2.00014H38.455V1.89855H38.255ZM38.2553 1.78946C38.2524 1.82827 38.2524 1.86725 38.2553 1.90606L38.4547 1.89105C38.4525 1.86223 38.4525 1.83328 38.4547 1.80447L38.2553 1.78946ZM38.2553 1.68781C38.2523 1.72666 38.2523 1.76568 38.2553 1.80452L38.4547 1.7894C38.4525 1.76062 38.4525 1.73171 38.4547 1.70293L38.2553 1.68781ZM38.2996 1.55787C38.284 1.59313 38.2705 1.62936 38.2593 1.66633L38.4507 1.72442C38.4595 1.69527 38.4702 1.66672 38.4825 1.63894L38.2996 1.55787ZM38.3427 1.46029C38.3254 1.49383 38.3102 1.52842 38.2972 1.56387L38.4849 1.63294C38.4951 1.60514 38.507 1.57805 38.5205 1.5518L38.3427 1.46029ZM38.4006 1.36584L38.3465 1.45357L38.5167 1.55852L38.5708 1.47079L38.4006 1.36584ZM38.4507 1.28641L38.4011 1.36491L38.5702 1.47171L38.6198 1.39321L38.4507 1.28641ZM38.5291 1.19842L38.4615 1.27231L38.6091 1.40732L38.6767 1.33343L38.5291 1.19842ZM38.5767 1.15561C38.5665 1.16351 38.543 1.18107 38.5253 1.20282L38.6805 1.32904C38.6797 1.32994 38.6804 1.32895 38.6842 1.32565C38.688 1.32239 38.6925 1.31888 38.6992 1.31365L38.5767 1.15561ZM38.575 1.19205C38.575 1.17354 38.581 1.16001 38.5849 1.15312C38.5869 1.14959 38.5888 1.1471 38.5899 1.14567C38.591 1.14422 38.5918 1.1434 38.592 1.14324C38.5921 1.14309 38.5912 1.14405 38.5882 1.14653C38.5852 1.149 38.5817 1.15171 38.5767 1.15562L38.6993 1.31365C38.7072 1.30752 38.7226 1.2958 38.7353 1.28269C38.7452 1.27251 38.775 1.24071 38.775 1.19205H38.575ZM38.7032 1.05013L38.6176 1.11016L38.7324 1.27393L38.818 1.2139L38.7032 1.05013ZM38.8172 0.988743C38.7778 1.00498 38.7401 1.02522 38.7046 1.04916L38.8166 1.21487C38.8408 1.19852 38.8665 1.18473 38.8933 1.1737L38.8172 0.988743ZM38.8998 0.946042L38.8097 0.992219L38.9009 1.17022L38.991 1.12405L38.8998 0.946042ZM39.0077 0.908087L38.9131 0.94041L38.9777 1.12968L39.0724 1.09735L39.0077 0.908087ZM39.0909 0.866668L38.9962 0.912845L39.0839 1.09259L39.1786 1.04642L39.0909 0.866668ZM39.2339 0.856543H39.1347V1.05654H39.2339V0.856543ZM39.4367 0.856543H39.2339V1.05654H39.4367V0.856543ZM39.5358 0.856543H39.4367V1.05654H39.5358V0.856543ZM39.6772 0.912069L39.5781 0.865892L39.4936 1.04719L39.5928 1.09337L39.6772 0.912069ZM39.762 0.94041L39.6673 0.908086L39.6027 1.09735L39.6973 1.12968L39.762 0.94041ZM39.8654 0.992219L39.7752 0.946042L39.6841 1.12405L39.7742 1.17022L39.8654 0.992219ZM39.9564 1.04601L39.8708 0.995213L39.7688 1.16723L39.8544 1.21802L39.9564 1.04601ZM40.046 1.11166L39.9649 1.05163L39.8459 1.2124L39.9271 1.27243L40.046 1.11166ZM40.1326 1.19394L40.056 1.12006L39.9171 1.26403L39.9937 1.33791L40.1326 1.19394ZM40.1958 1.28409L40.1462 1.21021L39.9801 1.32165L40.0297 1.39553L40.1958 1.28409ZM40.2609 1.34846L40.1843 1.26996L40.0412 1.40966L40.1178 1.48816L40.2609 1.34846ZM40.3155 1.47834L40.284 1.38598L40.0947 1.45064L40.1263 1.54299L40.3155 1.47834ZM40.3559 1.55916L40.3108 1.46681L40.131 1.55452L40.1761 1.64688L40.3559 1.55916ZM40.3944 1.67511C40.3849 1.63805 40.373 1.60165 40.3589 1.56614L40.173 1.6399C40.184 1.66758 40.1932 1.69596 40.2007 1.72487L40.3944 1.67511ZM40.4212 1.77586L40.3942 1.67427L40.2009 1.72571L40.2279 1.8273L40.4212 1.77586ZM40.4246 1.90317V1.80158H40.2246V1.90317H40.4246ZM40.4244 2.01139C40.4269 1.97315 40.4269 1.93478 40.4244 1.89654L40.2248 1.9098C40.2267 1.93921 40.2267 1.96872 40.2248 1.99813L40.4244 2.01139ZM40.4244 2.11731C40.4269 2.07772 40.4269 2.03801 40.4244 1.99842L40.2248 2.0111C40.2268 2.04224 40.2268 2.07348 40.2248 2.10463L40.4244 2.11731ZM40.4246 2.21255V2.11097H40.2246V2.21255H40.4246ZM40.3939 2.33639L40.4209 2.23942L40.2282 2.18569L40.2012 2.28266L40.3939 2.33639ZM40.3589 2.44337C40.373 2.40786 40.3849 2.37147 40.3944 2.33441L40.2007 2.28465C40.1932 2.31356 40.184 2.34194 40.173 2.36962L40.3589 2.44337ZM40.3065 2.55054C40.3273 2.5161 40.345 2.47985 40.3594 2.44221L40.1726 2.37078C40.1624 2.39737 40.1499 2.42294 40.1353 2.44717L40.3065 2.55054ZM40.2535 2.6436C40.2762 2.61093 40.2958 2.57619 40.3121 2.53985L40.1297 2.45785C40.1184 2.48303 40.1048 2.50704 40.0892 2.52958L40.2535 2.6436ZM40.1897 2.73359C40.2147 2.70346 40.2373 2.67136 40.2573 2.6376L40.0853 2.53558C40.0706 2.56032 40.0541 2.58381 40.0358 2.60583L40.1897 2.73359ZM40.1425 2.79521L40.1921 2.73056L40.0334 2.60885L39.9838 2.6735L40.1425 2.79521ZM40.0536 2.8778L40.1302 2.80853L39.9961 2.66017L39.9195 2.72944L40.0536 2.8778ZM39.9409 2.95894L40.0446 2.88505L39.9285 2.72219L39.8248 2.79607L39.9409 2.95894ZM39.8516 3.01687L39.9372 2.96146L39.8286 2.79355L39.7429 2.84896L39.8516 3.01687ZM39.749 3.06529L39.8391 3.02373L39.7554 2.8421L39.6652 2.88366L39.749 3.06529ZM39.6448 3.10143L39.7394 3.06911L39.6748 2.87984L39.5801 2.91216L39.6448 3.10143ZM39.5339 3.13235C39.5717 3.12438 39.609 3.11397 39.6455 3.10117L39.5794 2.91243C39.551 2.92238 39.522 2.93047 39.4927 2.93665L39.5339 3.13235ZM39.4006 3.13358C39.4425 3.13932 39.485 3.13932 39.5269 3.13358L39.4997 2.93543C39.4758 2.9387 39.4516 2.9387 39.4277 2.93543L39.4006 3.13358ZM39.2113 3.1345H39.4142V2.9345H39.2113V3.1345ZM39.1122 3.1345H39.2113V2.9345H39.1122V3.1345ZM38.9831 3.10067C39.0182 3.11357 39.0541 3.12408 39.0906 3.13215L39.1338 2.93686C39.106 2.93073 39.0787 2.92274 39.052 2.91293L38.9831 3.10067ZM38.8906 3.06911L38.9852 3.10143L39.0499 2.91216L38.9552 2.87984L38.8906 3.06911ZM38.7909 3.02373L38.881 3.06529L38.9648 2.88366L38.8746 2.8421L38.7909 3.02373ZM38.6928 2.96146L38.7784 3.01687L38.8871 2.84896L38.8014 2.79355L38.6928 2.96146ZM38.6041 2.89936L38.6897 2.95939L38.8045 2.79562L38.7189 2.73559L38.6041 2.89936ZM38.5201 2.82033L38.5922 2.88959L38.7307 2.74535L38.6586 2.67609L38.5201 2.82033ZM38.446 2.73496L38.5136 2.81346L38.6651 2.68295L38.5975 2.60445L38.446 2.73496ZM38.3745 2.63288C38.3944 2.67098 38.4193 2.70624 38.4484 2.73769L38.5951 2.60172C38.5781 2.58339 38.5635 2.56274 38.5518 2.5403L38.3745 2.63288ZM38.324 2.55133L38.378 2.63906L38.5483 2.53411L38.4942 2.44638L38.324 2.55133ZM38.2737 2.4384C38.2864 2.47601 38.3024 2.51239 38.3215 2.54709L38.4967 2.45062C38.4833 2.42639 38.4722 2.40095 38.4633 2.37459L38.2737 2.4384ZM38.2368 2.33856C38.248 2.37554 38.2615 2.41177 38.2771 2.44703L38.4599 2.36596C38.4476 2.33818 38.437 2.30964 38.4282 2.28049L38.2368 2.33856ZM76.7144 15.6331H75.7815V15.8331H76.7144V15.6331ZM76.7189 15.6331H76.7144V15.8331H76.7189V15.6331ZM77.7785 16.7837C77.7785 16.1787 77.3202 15.6738 76.7257 15.6334L76.7121 15.8329C77.1976 15.8659 77.5785 16.2798 77.5785 16.7837H77.7785ZM76.7257 17.934C77.3202 17.8936 77.7785 17.3886 77.7785 16.7837H77.5785C77.5785 17.2876 77.1976 17.7014 76.7121 17.7344L76.7257 17.934ZM64.0992 17.9342H76.7189V17.7342H64.0992V17.9342ZM63.0668 17.3811C63.2846 17.7486 63.6849 17.9626 64.106 17.934L64.0924 17.7344C63.7484 17.7578 63.419 17.5831 63.2388 17.2791L63.0668 17.3811ZM63.0668 16.1863C62.8492 16.5535 62.8492 17.0139 63.0668 17.3811L63.2388 17.2791C63.0585 16.9748 63.0585 16.5926 63.2388 16.2882L63.0668 16.1863ZM64.106 15.6334C63.6849 15.6048 63.2846 15.8188 63.0668 16.1863L63.2388 16.2882C63.419 15.9842 63.7484 15.8095 64.0924 15.8329L64.106 15.6334ZM65.0277 15.6331H64.0992V15.8331H65.0277V15.6331ZM64.9277 10.1134V15.7331H65.1277V10.1134H64.9277ZM70.1835 4.72616C67.2788 4.73135 64.9302 7.14328 64.9277 10.1133L65.1277 10.1135C65.1301 7.24912 67.394 4.93115 70.1839 4.92616L70.1835 4.72616ZM73.2034 4.72616H70.1837V4.92616H73.2034V4.72616ZM75.8815 7.46731C75.8789 5.9568 74.6837 4.7288 73.2036 4.72616L73.2033 4.92616C74.5687 4.9286 75.6791 6.06275 75.6815 7.46765L75.8815 7.46731ZM75.8815 15.7331V7.46748H75.6815V15.7331H75.8815ZM67.1783 10.1134C67.1783 8.40839 68.5255 7.02966 70.1838 7.0272L70.1836 6.8272C68.4103 6.82983 66.9783 8.30264 66.9783 10.1134H67.1783ZM67.1783 15.7331V10.1134H66.9783V15.7331H67.1783ZM73.7352 15.6331H67.0783V15.8331H73.7352V15.6331ZM73.6352 7.46747V15.7331H73.8352V7.46747H73.6352ZM73.2034 7.0272C73.4382 7.02719 73.6332 7.2218 73.6352 7.46829L73.8352 7.46664C73.8323 7.11488 73.5525 6.82718 73.2034 6.8272L73.2034 7.0272ZM70.1837 7.0272H73.2034V6.8272H70.1837V7.0272ZM60.5361 11.3951C61.2853 10.6688 61.7085 9.65879 61.7068 8.60327L61.5068 8.60359C61.5084 9.60566 61.1066 10.5635 60.3969 11.2514L60.5361 11.3951ZM60.4575 11.4232H60.4665V11.2232H60.4575V11.4232ZM61.4265 15.4916C62.0005 14.0234 61.6451 12.3447 60.5274 11.2518L60.3876 11.3947C61.4472 12.4309 61.7853 14.0244 61.2402 15.4187L61.4265 15.4916ZM57.9156 17.925C59.4628 17.9248 60.8523 16.9601 61.4265 15.4916L61.2402 15.4187C60.6952 16.8127 59.3781 17.7248 57.9155 17.725L57.9156 17.925ZM53.6339 17.925H57.9155V17.725H53.6339V17.925ZM52.5743 16.7744C52.5743 17.3794 53.0326 17.8843 53.6271 17.9247L53.6406 17.7252C53.1552 17.6922 52.7743 17.2783 52.7743 16.7744H52.5743ZM53.6271 15.6241C53.0326 15.6645 52.5743 16.1695 52.5743 16.7744H52.7743C52.7743 16.2705 53.1552 15.8567 53.6406 15.8237L53.6271 15.6241ZM57.9155 15.6239H53.6339V15.8239H57.9155V15.6239ZM59.3658 14.05C59.3658 14.8905 58.724 15.5802 57.9102 15.6241L57.9209 15.8238C58.8451 15.774 59.5658 14.9926 59.5658 14.05H59.3658ZM57.9102 12.4759C58.724 12.5197 59.3658 13.2094 59.3658 14.05H59.5658C59.5658 13.1074 58.8451 12.326 57.9209 12.2762L57.9102 12.4759ZM55.8108 12.4761H57.9155V12.2761H55.8108V12.4761ZM54.7512 11.3256C54.7512 11.9305 55.2095 12.4355 55.804 12.4759L55.8175 12.2763C55.3321 12.2433 54.9512 11.8294 54.9512 11.3256H54.7512ZM55.804 10.1753C55.2095 10.2157 54.7512 10.7206 54.7512 11.3256H54.9512C54.9512 10.8217 55.3321 10.4078 55.8175 10.3748L55.804 10.1753ZM57.9155 10.175H55.8108V10.375H57.9155V10.175ZM59.3658 8.60112C59.3658 9.44167 58.724 10.1314 57.9102 10.1752L57.9209 10.3749C58.8451 10.3251 59.5658 9.54372 59.5658 8.60112H59.3658ZM57.9102 7.02706C58.724 7.07087 59.3658 7.76057 59.3658 8.60112H59.5658C59.5658 7.65852 58.8451 6.8771 57.9209 6.82735L57.9102 7.02706ZM53.6339 7.02721H57.9155V6.82721H53.6339V7.02721ZM52.5743 5.87668C52.5743 6.48162 53.0326 6.98658 53.6271 7.02698L53.6406 6.82744C53.1552 6.79445 52.7743 6.38057 52.7743 5.87668H52.5743ZM53.6271 4.72639C53.0326 4.76679 52.5743 5.27174 52.5743 5.87668H52.7743C52.7743 5.3728 53.1552 4.95892 53.6406 4.92593L53.6271 4.72639ZM57.9246 4.72616H53.6339V4.92616H57.9246V4.72616ZM61.7068 8.60343C61.7068 6.46622 60.0165 4.72878 57.9247 4.72616L57.9244 4.92616C59.9014 4.92863 61.5068 6.57199 61.5068 8.60343H61.7068ZM26.0868 4.72616H21.0569V4.92616H26.0868V4.72616ZM29.5175 8.24325C29.5175 6.30497 27.9846 4.72879 26.0869 4.72616L26.0867 4.92616C27.8694 4.92863 29.3175 6.41072 29.3175 8.24325L29.5175 8.24325ZM29.5175 11.8312V8.24325H29.3175V11.8312H29.5175ZM26.6562 17.4239C28.5532 16.2475 29.6546 14.0903 29.5173 11.8251L29.3177 11.8372C29.4506 14.0307 28.3839 16.1172 26.5508 17.2539L26.6562 17.4239ZM20.4831 17.4239C22.3804 18.6004 24.7588 18.6004 26.6562 17.4239L26.5508 17.2539C24.718 18.3904 22.4212 18.3904 20.5885 17.2539L20.4831 17.4239ZM17.6219 11.8251C17.4846 14.0903 18.5861 16.2475 20.4831 17.4239L20.5885 17.2539C18.7553 16.1172 17.6886 14.0307 17.8215 11.8372L17.6219 11.8251ZM17.6217 8.24325V11.8312H17.8217V8.24325H17.6217ZM21.0568 4.72616C19.1584 4.72878 17.6243 6.30413 17.6217 8.24312L17.8217 8.24338C17.8241 6.41006 19.2735 4.92862 21.0571 4.92616L21.0568 4.72616ZM27.2713 11.8312C27.2713 13.9281 25.6127 15.6239 23.5719 15.6239V15.8239C25.7277 15.8239 27.4713 14.034 27.4713 11.8312H27.2713ZM27.2713 8.24324V11.8312H27.4713V8.24324H27.2713ZM26.9235 7.3825C27.1459 7.61038 27.2713 7.91995 27.2713 8.24324H27.4713C27.4713 7.86845 27.326 7.50854 27.0667 7.24281L26.9235 7.3825ZM26.0868 7.0272C26.4002 7.0272 26.7012 7.15471 26.9235 7.3825L27.0667 7.24281C26.8072 6.97699 26.4548 6.8272 26.0868 6.8272V7.0272ZM21.0569 7.0272H26.0868V6.8272H21.0569V7.0272ZM19.8724 8.24324C19.8724 7.56934 20.405 7.0272 21.0569 7.0272V6.8272C20.29 6.8272 19.6724 7.46348 19.6724 8.24324H19.8724ZM19.8724 11.8312V8.24324H19.6724V11.8312H19.8724ZM23.5719 15.6239C21.531 15.6239 19.8724 13.9281 19.8724 11.8312H19.6724C19.6724 14.034 21.416 15.8239 23.5719 15.8239V15.6239ZM12.1015 4.72618H11.9302V4.92618H12.1015V4.72618ZM14.6936 5.93093C14.051 5.14976 13.0979 4.70667 12.0995 4.7262L12.1034 4.92617C13.0397 4.90785 13.9347 5.32327 14.5392 6.05799L14.6936 5.93093ZM15.5321 8.4294C15.545 7.52312 15.2492 6.64028 14.6951 5.9328L14.5377 6.05612C15.0633 6.72727 15.3444 7.56549 15.3322 8.42657L15.5321 8.4294ZM15.5322 16.7722V8.42798H15.3322V16.7722H15.5322ZM14.4091 17.9204C15.0316 17.9204 15.5322 17.404 15.5322 16.7722H15.3322C15.3322 17.2981 14.9166 17.7204 14.4091 17.7204V17.9204ZM13.286 16.7722C13.286 17.404 13.7865 17.9204 14.4091 17.9204V17.7204C13.9015 17.7204 13.486 17.2981 13.486 16.7722H13.286ZM13.286 8.42798V16.7722H13.486V8.42798H13.286ZM12.1015 7.02723C12.1595 7.02723 12.458 7.03704 12.7393 7.21493C13.0128 7.38792 13.286 7.72984 13.286 8.42798H13.486C13.486 7.66694 13.1823 7.25848 12.8462 7.0459C12.5178 6.8382 12.1741 6.82723 12.1015 6.82723V7.02723ZM11.9707 7.02723H12.1015V6.82723H11.9707V7.02723ZM9.06454 10.0823C9.08448 8.42896 10.3671 7.08657 11.9744 7.02717L11.9671 6.8273C10.2489 6.89081 8.88573 8.32418 8.86456 10.0799L9.06454 10.0823ZM9.06455 11.3279V10.0811H8.86455V11.3279H9.06455ZM7.94145 12.4761C8.56399 12.4761 9.06455 11.9597 9.06455 11.3279H8.86455C8.86455 11.8539 8.44899 12.2761 7.94145 12.2761V12.4761ZM6.81835 11.3279C6.81835 11.9597 7.31891 12.4761 7.94145 12.4761V12.2761C7.43391 12.2761 7.01835 11.8539 7.01835 11.3279H6.81835ZM6.81835 10.1689V11.3279H7.01835V10.1689H6.81835ZM6.81835 10.1273V10.1689H7.01835V10.1273H6.81835ZM6.81835 10.0811V10.1273H7.01835V10.0811H6.81835ZM3.91296 7.02717C5.51949 7.08666 6.80074 8.42963 6.81836 10.0822L7.01835 10.0801C6.99963 8.32503 5.63779 6.8909 3.92036 6.8273L3.91296 7.02717ZM3.78145 7.02723H3.91666V6.82723H3.78145V7.02723ZM2.60145 8.42798C2.60145 7.72967 2.87368 7.38775 3.14604 7.21484C3.42609 7.03704 3.72347 7.02723 3.78145 7.02723V6.82723C3.70873 6.82723 3.36611 6.83821 3.03884 7.04599C2.70388 7.25865 2.40145 7.66711 2.40145 8.42798H2.60145ZM2.60145 16.7722V8.42798H2.40145V16.7722H2.60145ZM2.06225 17.8267C2.42195 17.6029 2.62895 17.1936 2.60124 16.7657L2.40166 16.7786C2.42471 17.1346 2.25233 17.4729 1.9566 17.6569L2.06225 17.8267ZM0.889953 17.8267C1.25001 18.0507 1.70219 18.0507 2.06225 17.8267L1.9566 17.6569C1.66123 17.8406 1.29097 17.8406 0.995597 17.6569L0.889953 17.8267ZM0.350957 16.7657C0.323251 17.1936 0.530252 17.6029 0.889954 17.8267L0.995596 17.6569C0.699875 17.4729 0.527491 17.1346 0.550539 16.7786L0.350957 16.7657ZM0.350748 8.42798V16.7722H0.550748V8.42798H0.350748ZM1.19255 5.9371C0.636035 6.64181 0.33835 7.52365 0.350757 8.42935L0.550739 8.42661C0.538953 7.56635 0.821747 6.72935 1.34951 6.06105L1.19255 5.9371ZM3.78354 4.73082C2.78599 4.70998 1.8337 5.15352 1.19364 5.93575L1.34842 6.06241C1.95023 5.32693 2.84428 4.91124 3.77936 4.93078L3.78354 4.73082ZM3.96173 4.7308H3.78145V4.9308H3.96173V4.7308ZM7.59111 6.36976C6.64473 5.34928 5.33857 4.75878 3.96377 4.73082L3.9597 4.93078C5.27948 4.95762 6.53443 5.52447 7.44447 6.50576L7.59111 6.36976ZM8.02636 6.9001C7.89035 6.71616 7.7453 6.5394 7.59179 6.3705L7.44379 6.50502C7.59276 6.66892 7.73353 6.84048 7.86555 7.01901L8.02636 6.9001ZM8.29528 6.36164C8.14127 6.53284 7.99734 6.71325 7.86425 6.90191L8.02767 7.0172C8.15624 6.83496 8.29525 6.66072 8.44397 6.4954L8.29528 6.36164ZM11.9283 4.7262C10.5528 4.75272 9.24528 5.34139 8.29644 6.36038L8.44281 6.49667C9.35526 5.51676 10.6116 4.95163 11.9321 4.92617L11.9283 4.7262ZM87.4682 4.72616H82.4384V4.92616H87.4682V4.72616ZM90.9034 8.24312C90.9009 6.30413 89.3667 4.72878 87.4684 4.72616L87.4681 4.92616C89.2516 4.92862 90.701 6.41006 90.7034 8.24338L90.9034 8.24312ZM90.9034 11.8312V8.24325H90.7034V11.8312H90.9034ZM88.0421 17.4239C89.9391 16.2475 91.0406 14.0903 90.9032 11.8251L90.7036 11.8372C90.8366 14.0307 89.7698 16.1172 87.9367 17.2539L88.0421 17.4239ZM81.869 17.4239C83.7663 18.6004 86.1447 18.6004 88.0421 17.4239L87.9367 17.2539C86.1039 18.3904 83.8072 18.3904 81.9744 17.2539L81.869 17.4239ZM79.0078 11.8251C78.8705 14.0903 79.972 16.2475 81.869 17.4239L81.9744 17.2539C80.1412 16.1172 79.0745 14.0307 79.2075 11.8372L79.0078 11.8251ZM79.0076 8.24325V11.8312H79.2076V8.24325H79.0076ZM82.4382 4.72616C80.5405 4.72879 79.0076 6.30497 79.0076 8.24325H79.2076C79.2076 6.41072 80.6557 4.92863 82.4385 4.92616L82.4382 4.72616ZM88.6527 11.8312C88.6527 13.1874 87.9465 14.4393 86.8021 15.1163L86.9039 15.2884C88.1106 14.5747 88.8527 13.2565 88.8527 11.8312H88.6527ZM88.6527 8.24324V11.8312H88.8527V8.24324H88.6527ZM87.4682 7.0272C88.1201 7.0272 88.6527 7.56934 88.6527 8.24324H88.8527C88.8527 7.46348 88.2351 6.8272 87.4682 6.8272V7.0272ZM82.4384 7.0272H87.4682V6.8272H82.4384V7.0272ZM81.2539 8.24324C81.2539 7.56934 81.7865 7.0272 82.4384 7.0272V6.8272C81.6714 6.8272 81.0539 7.46348 81.0539 8.24324H81.2539ZM81.2539 11.8312V8.24324H81.0539V11.8312H81.2539ZM83.1045 15.1163C81.96 14.4393 81.2539 13.1874 81.2539 11.8312H81.0539C81.0539 13.2565 81.796 14.5747 83.0027 15.2884L83.1045 15.1163ZM86.8021 15.1163C85.6579 15.7931 84.2486 15.7931 83.1045 15.1163L83.0027 15.2884C84.2096 16.0024 85.697 16.0024 86.9039 15.2884L86.8021 15.1163ZM110.247 4.92616H115.281V4.72616H110.247V4.92616ZM107.016 8.24338C107.019 6.41181 108.465 4.93108 110.247 4.92616L110.247 4.72616C108.35 4.7314 106.819 6.30598 106.816 8.24312L107.016 8.24338ZM107.016 11.8312V8.24325H106.816V11.8312H107.016ZM112.775 17.7342C109.597 17.7342 107.016 15.0936 107.016 11.8312H106.816C106.816 15.1995 109.482 17.9342 112.775 17.9342V17.7342ZM118.534 11.8312C118.534 15.0936 115.954 17.7342 112.775 17.7342V17.9342C116.069 17.9342 118.734 15.1995 118.734 11.8312H118.534ZM118.534 8.24325V11.8312H118.734V8.24325H118.534ZM115.303 4.92616C117.085 4.93108 118.532 6.41181 118.534 8.24338L118.734 8.24312C118.732 6.30598 117.201 4.7314 115.304 4.72616L115.303 4.92616ZM115.281 4.92616H115.304V4.72616H115.281V4.92616ZM114.776 15.3993C116.002 14.6547 116.733 13.285 116.684 11.8278L116.484 11.8345C116.53 13.2211 115.835 14.5221 114.672 15.2284L114.776 15.3993ZM110.797 15.3993C112.024 16.1442 113.549 16.1442 114.776 15.3993L114.672 15.2284C113.509 15.9345 112.064 15.9345 110.901 15.2284L110.797 15.3993ZM108.889 11.8278C108.84 13.285 109.571 14.6547 110.797 15.3993L110.901 15.2284C109.738 14.5221 109.043 13.2211 109.089 11.8345L108.889 11.8278ZM108.889 8.24324V11.8312H109.089V8.24324H108.889ZM109.291 7.24321C109.032 7.50916 108.888 7.86916 108.889 8.24358L109.089 8.24289C109.088 7.92009 109.213 7.61059 109.434 7.38266L109.291 7.24321ZM110.269 6.8272C109.902 6.82719 109.55 6.97719 109.291 7.24321L109.434 7.38266C109.656 7.1548 109.956 7.02719 110.269 7.0272L110.269 6.8272ZM115.304 6.8272H110.269V7.0272H115.304V6.8272ZM116.282 7.24321C116.023 6.97719 115.671 6.82719 115.304 6.8272L115.304 7.0272C115.617 7.02719 115.917 7.1548 116.139 7.38266L116.282 7.24321ZM116.684 8.24358C116.685 7.86916 116.541 7.50916 116.282 7.24321L116.139 7.38266C116.36 7.61059 116.485 7.92009 116.484 8.24289L116.684 8.24358ZM116.684 11.8312V8.24324H116.484V11.8312H116.684ZM34.7989 13.4874H38.1341V13.2874H34.7989V13.4874ZM33.769 13.306C34.0999 13.4248 34.4479 13.4861 34.7986 13.4874L34.7992 13.2874C34.4714 13.2862 34.1461 13.2289 33.8366 13.1178L33.769 13.306ZM33.9028 13.2442V13.2119H33.7028V13.2442H33.9028ZM36.2102 15.6239C34.936 15.6166 33.9028 14.5556 33.9028 13.2442L33.7028 13.2442C33.7028 14.661 34.8204 15.816 36.209 15.8239L36.2102 15.6239ZM41.0502 15.6239H36.2096V15.8239H41.0502V15.6239ZM42.1098 16.7744C42.1098 16.1695 41.6514 15.6645 41.057 15.6241L41.0434 15.8237C41.5288 15.8567 41.9098 16.2705 41.9098 16.7744H42.1098ZM41.057 17.9247C41.6514 17.8843 42.1098 17.3794 42.1098 16.7744H41.9098C41.9098 17.2783 41.5288 17.6922 41.0434 17.7252L41.057 17.9247ZM36.2096 17.925H41.0502V17.725H36.2096V17.925ZM31.6431 13.2443C31.6457 15.8242 33.6856 17.9198 36.2094 17.925L36.2098 17.725C33.8007 17.72 31.8456 15.7183 31.8431 13.2441L31.6431 13.2443ZM31.6431 7.94772V13.2442H31.8431V7.94772H31.6431ZM34.7896 4.72616C33.0517 4.7314 31.6482 6.17283 31.6431 7.94743L31.8431 7.94801C31.8479 6.27884 33.1668 4.93106 34.7902 4.92616L34.7896 4.72616ZM40.3921 4.72616H34.7899V4.92616H40.3921V4.72616ZM43.5389 7.95234C43.5389 6.17472 42.1331 4.72879 40.3923 4.72616L40.392 4.92616C42.018 4.92862 43.3389 6.28047 43.3389 7.95234H43.5389ZM38.1342 13.4874C41.1204 13.4848 43.5364 11.0059 43.5389 7.95242L43.3389 7.95225C43.3365 10.9 41.0053 13.2849 38.134 13.2874L38.1342 13.4874ZM33.9028 7.95188C33.9018 7.70625 33.9963 7.47077 34.1647 7.29741L34.0213 7.15804C33.8159 7.36945 33.7015 7.65549 33.7028 7.95277L33.9028 7.95188ZM33.9028 10.2658V7.95232H33.7028V10.2658H33.9028ZM34.7908 11.1863C34.3013 11.1818 33.9028 10.7732 33.9028 10.2658L33.7028 10.2658C33.7028 10.8784 34.1853 11.3807 34.789 11.3863L34.7908 11.1863ZM38.1341 11.1863H34.7899V11.3863H38.1341V11.1863ZM41.2882 7.95219C41.2858 9.73961 39.8727 11.1838 38.134 11.1863L38.1343 11.3863C39.9878 11.3837 41.4856 9.84554 41.4882 7.95246L41.2882 7.95219ZM41.0263 7.29741C41.1948 7.47077 41.2893 7.70625 41.2882 7.95188L41.4882 7.95277C41.4895 7.65549 41.3752 7.36945 41.1698 7.15804L41.0263 7.29741ZM40.3921 7.0272C40.6297 7.02719 40.858 7.12414 41.0263 7.29741L41.1698 7.15804C40.9643 6.94655 40.6845 6.82719 40.3921 6.8272L40.3921 7.0272ZM34.7989 7.0272H40.3921V6.8272H34.7989V7.0272ZM34.1647 7.29741C34.3331 7.12414 34.5613 7.02719 34.7989 7.0272L34.7989 6.8272C34.5066 6.82719 34.2268 6.94655 34.0213 7.15804L34.1647 7.29741ZM152.789 15.75H157.607V15.55H152.789V15.75ZM150.273 13.1751C150.276 14.5938 151.398 15.7474 152.789 15.75L152.789 15.55C151.513 15.5476 150.475 14.4879 150.473 13.1748L150.273 13.1751ZM150.273 13.138V13.175H150.473V13.138H150.273ZM151.374 13.2135C151.045 13.2124 150.718 13.155 150.407 13.0439L150.339 13.2322C150.672 13.351 151.021 13.4123 151.373 13.4135L151.374 13.2135ZM154.713 13.2135H151.374V13.4135H154.713V13.2135ZM159.9 7.88285C159.893 10.8208 157.574 13.1986 154.713 13.2135L154.714 13.4135C157.69 13.398 160.093 10.9266 160.1 7.88334L159.9 7.88285ZM156.949 4.85692C158.575 4.85937 159.898 6.21057 159.9 7.88324L160.1 7.88295C160.097 6.10464 158.69 4.65955 156.949 4.65692L156.949 4.85692ZM151.351 4.85692H156.949V4.65692H151.351V4.85692ZM149.254 5.73742C149.812 5.16988 150.566 4.85336 151.351 4.85692L151.351 4.65692C150.512 4.65311 149.706 4.99177 149.112 5.5973L149.254 5.73742ZM148.382 7.88324C148.383 7.07709 148.697 6.30504 149.254 5.73742L149.112 5.5973C148.517 6.20276 148.183 7.02521 148.182 7.88295L148.382 7.88324ZM148.382 13.175V7.88309H148.182V13.175H148.382ZM149.678 16.3526C148.851 15.5127 148.384 14.3691 148.382 13.1748L148.182 13.1752C148.184 14.4211 148.671 15.6152 149.536 16.493L149.678 16.3526ZM152.788 17.6511C151.625 17.6595 150.505 17.1925 149.678 16.3526L149.536 16.493C150.4 17.3708 151.571 17.8599 152.789 17.8511L152.788 17.6511ZM157.629 17.6511H152.789V17.8511H157.629V17.6511ZM158.49 17.196C158.31 17.5 157.98 17.6747 157.636 17.6513L157.623 17.8509C158.044 17.8795 158.444 17.6655 158.662 17.298L158.49 17.196ZM158.49 16.2051C158.67 16.5095 158.67 16.8917 158.49 17.196L158.662 17.298C158.879 16.9308 158.879 16.4704 158.662 16.1032L158.49 16.2051ZM157.636 15.7498C157.98 15.7264 158.31 15.9011 158.49 16.2051L158.662 16.1032C158.444 15.7357 158.044 15.5217 157.623 15.5503L157.636 15.7498ZM157.607 15.75H157.629V15.55H157.607V15.75ZM156.971 6.77643H151.374V6.97643H156.971V6.77643ZM158.049 7.88135C158.039 7.27979 157.566 6.79004 156.974 6.77645L156.969 6.9764C157.45 6.98743 157.841 7.38624 157.849 7.88482L158.049 7.88135ZM154.691 11.3217C156.546 11.3164 158.044 9.77783 158.049 7.88335L157.849 7.88282C157.845 9.67183 156.431 11.1168 154.69 11.1217L154.691 11.3217ZM151.351 11.3217H154.691V11.1217H151.351V11.3217ZM150.25 10.1919C150.25 10.8116 150.74 11.3189 151.351 11.3217L151.351 11.1217C150.855 11.1194 150.45 10.7061 150.45 10.1919H150.25ZM150.25 7.88309V10.1919H150.45V7.88309H150.25ZM151.351 6.75796C150.741 6.75796 150.25 7.26399 150.25 7.88309H150.45C150.45 7.36985 150.856 6.95796 151.351 6.95796V6.75796ZM151.437 6.79909L151.414 6.78061L151.288 6.9353L151.31 6.95377L151.437 6.79909ZM101.859 4.72616H96.275V4.92616H101.859V4.72616ZM105.01 7.95234C105.01 6.17287 103.602 4.72616 101.859 4.72616V4.92616C103.487 4.92616 104.81 6.27872 104.81 7.95234H105.01ZM99.6058 13.4874C102.592 13.4848 105.008 11.0059 105.01 7.95242L104.81 7.95225C104.808 10.9 102.477 13.2849 99.6056 13.2874L99.6058 13.4874ZM96.275 13.4874H99.6057V13.2874H96.275V13.4874ZM95.2406 13.306C95.573 13.4253 95.9225 13.4866 96.2747 13.4874L96.2752 13.2874C95.9459 13.2866 95.619 13.2293 95.3082 13.1178L95.2406 13.306ZM95.3744 16.7675V13.2119H95.1744V16.7675H95.3744ZM94.8352 17.822C95.1949 17.5983 95.4019 17.189 95.3742 16.761L95.1746 16.774C95.1977 17.1299 95.0253 17.4683 94.7296 17.6522L94.8352 17.822ZM93.6629 17.822C94.023 18.046 94.4751 18.046 94.8352 17.822L94.7295 17.6522C94.4342 17.836 94.0639 17.836 93.7685 17.6522L93.6629 17.822ZM93.1239 16.761C93.0962 17.189 93.3032 17.5983 93.6629 17.822L93.7685 17.6522C93.4728 17.4683 93.3004 17.1299 93.3235 16.774L93.1239 16.761ZM93.1237 7.94772V16.7675H93.3237V7.94772H93.1237ZM96.275 4.72616C94.5341 4.72616 93.1263 6.16996 93.1237 7.94757L93.3237 7.94786C93.3261 6.276 94.649 4.92616 96.275 4.92616V4.72616ZM99.6057 11.1909H96.2659V11.3909H99.6057V11.1909ZM99.5057 11.2863V11.2909H99.7057V11.2863H99.5057ZM102.76 7.96105C102.75 9.744 101.34 11.1814 99.6054 11.1863L99.6059 11.3863C101.455 11.3811 102.95 9.85035 102.96 7.96213L102.76 7.96105ZM101.859 7.03646C102.354 7.03646 102.76 7.44836 102.76 7.96159H102.96C102.96 7.3425 102.469 6.83646 101.859 6.83646V7.03646ZM96.2659 7.03646H101.859V6.83646H96.2659V7.03646ZM95.6287 7.3052C95.7979 7.13181 96.0272 7.03535 96.2655 7.03646L96.2664 6.83646C95.9732 6.8351 95.6921 6.95386 95.4855 7.1655L95.6287 7.3052ZM95.3654 7.96115C95.3643 7.71479 95.4593 7.47867 95.6287 7.3052L95.4855 7.1655C95.279 7.37706 95.1641 7.66387 95.1654 7.96203L95.3654 7.96115ZM95.3654 10.2704V7.96159H95.1654V10.2704H95.3654ZM95.6301 10.9237C95.4609 10.7511 95.3654 10.5161 95.3654 10.2704L95.1654 10.2704C95.1654 10.5677 95.2809 10.8532 95.4873 11.0637L95.6301 10.9237ZM96.2655 11.1909C96.0279 11.192 95.7992 11.0962 95.6301 10.9237L95.4873 11.0637C95.6937 11.2742 95.9741 11.3923 96.2664 11.3909L96.2655 11.1909ZM137.988 9.3684H141.327V9.1684H137.988V9.3684ZM137.021 9.53804C137.332 9.42687 137.659 9.36955 137.988 9.3684L137.987 9.16841C137.635 9.16963 137.286 9.23092 136.953 9.34971L137.021 9.53804ZM136.887 5.87902V9.44388H137.087V5.87902H136.887ZM136.442 4.99431C136.738 5.17827 136.91 5.51659 136.887 5.87256L137.087 5.88548C137.115 5.45757 136.908 5.04825 136.548 4.82448L136.442 4.99431ZM135.481 4.99431C135.777 4.81056 136.147 4.81056 136.442 4.99431L136.548 4.82448C136.188 4.6005 135.736 4.6005 135.376 4.82448L135.481 4.99431ZM135.036 5.87256C135.013 5.51659 135.186 5.17827 135.481 4.99431L135.376 4.82448C135.016 5.04825 134.809 5.45757 134.837 5.88548L135.036 5.87256ZM135.036 14.6988V5.87902H134.836V14.6988H135.036ZM137.988 17.7204C136.364 17.7155 135.044 16.3683 135.036 14.6984L134.836 14.6992C134.844 16.4745 136.249 17.9151 137.987 17.9204L137.988 17.7204ZM143.585 17.7204H137.988V17.9204H143.585V17.7204ZM146.537 14.694C146.534 16.3667 145.212 17.7179 143.585 17.7204L143.586 17.9204C145.327 17.9177 146.734 16.4726 146.737 14.6943L146.537 14.694ZM141.327 9.3684C144.196 9.37088 146.527 11.7495 146.537 14.6945L146.737 14.6939C146.727 11.6433 144.311 9.17098 141.327 9.1684L141.327 9.3684ZM137.988 15.8332H143.581V15.6332H137.988V15.8332ZM136.887 14.708C136.887 15.3271 137.378 15.8332 137.988 15.8332V15.6332C137.493 15.6332 137.087 15.2213 137.087 14.708H136.887ZM136.887 12.3992V14.708H137.087V12.3992H136.887ZM137.988 11.2787C137.38 11.2787 136.89 11.7816 136.887 12.3988L137.087 12.3996C137.089 11.888 137.494 11.4787 137.988 11.4787L137.988 11.2787ZM141.327 11.2787H137.988V11.4787H141.327V11.2787ZM144.686 14.7125C144.683 12.8176 143.183 11.2787 141.327 11.2787L141.327 11.4787C143.068 11.4787 144.484 12.9236 144.486 14.7128L144.686 14.7125ZM144.364 15.5059C144.57 15.2955 144.686 15.0099 144.686 14.7127H144.486C144.486 14.9583 144.39 15.1933 144.221 15.3659L144.364 15.5059ZM143.585 15.8332C143.877 15.8345 144.158 15.7165 144.364 15.5059L144.221 15.3659C144.052 15.5384 143.823 15.6343 143.586 15.6332L143.585 15.8332ZM143.581 15.8332H143.585V15.6332H143.581V15.8332ZM123.944 4.92616H128.901V4.72616H123.944V4.92616ZM120.997 7.95234C120.997 6.28047 122.318 4.92862 123.944 4.92616L123.944 4.72616C122.203 4.72879 120.797 6.17472 120.797 7.95234H120.997ZM120.997 14.6988V7.95234H120.797V14.6988H120.997ZM123.944 17.725C122.318 17.7225 120.997 16.3706 120.997 14.6988H120.797C120.797 16.4764 122.203 17.9223 123.944 17.925L123.944 17.725ZM128.901 17.725H123.944V17.925H128.901V17.725ZM132.223 15.4179C131.677 16.8103 130.362 17.7221 128.901 17.725L128.902 17.925C130.447 17.9219 131.835 16.9576 132.409 15.4909L132.223 15.4179ZM131.378 11.3945C132.433 12.433 132.768 14.0252 132.223 15.4179L132.409 15.4909C132.983 14.0245 132.631 12.3473 131.518 11.252L131.378 11.3945ZM132.225 7.22946C132.771 8.62218 132.435 10.2146 131.378 11.2519L131.518 11.3946C132.633 10.3005 132.986 8.62295 132.411 7.15647L132.225 7.22946ZM128.901 4.92616C130.363 4.92642 131.679 5.83708 132.225 7.22946L132.411 7.15647C131.836 5.68965 130.447 4.72644 128.901 4.72616L128.901 4.92616ZM123.944 15.8331H128.901V15.6331H123.944V15.8331ZM123.165 15.5027C123.371 15.714 123.651 15.8331 123.944 15.8331V15.6331C123.706 15.6331 123.477 15.5363 123.308 15.363L123.165 15.5027ZM122.843 14.708C122.843 15.0056 122.959 15.2915 123.165 15.5027L123.308 15.363C123.139 15.1897 123.043 14.9541 123.043 14.708H122.843ZM122.843 12.3207V14.708H123.043V12.3207H122.843ZM123.276 12.2761C123.174 12.2768 123.073 12.2599 122.976 12.2262L122.91 12.4151C123.028 12.4563 123.152 12.4769 123.277 12.4761L123.276 12.2761ZM128.901 12.2761H123.277V12.4761H128.901V12.2761ZM130.64 14.0546C130.64 13.0746 129.864 12.2761 128.901 12.2761V12.4761C129.749 12.4761 130.44 13.1805 130.44 14.0546H130.64ZM128.901 15.8331C129.864 15.8331 130.64 15.0345 130.64 14.0546H130.44C130.44 14.9287 129.749 15.6331 128.901 15.6331V15.8331ZM128.901 10.1843H123.268V10.3843H128.901V10.1843ZM128.801 10.275V10.2843H129.001V10.275H128.801ZM130.352 8.60111C130.352 9.44166 129.71 10.1314 128.896 10.1752L128.907 10.3749C129.831 10.3251 130.552 9.5437 130.552 8.60111H130.352ZM128.896 7.02705C129.71 7.07086 130.352 7.76055 130.352 8.60111H130.552C130.552 7.65851 129.831 6.87709 128.907 6.82734L128.896 7.02705ZM123.944 7.02719H128.901V6.82719H123.944V7.02719ZM123.302 7.29433C123.472 7.12086 123.703 7.02498 123.943 7.02719L123.945 6.8272C123.65 6.82448 123.367 6.94243 123.159 7.15399L123.302 7.29433ZM123.034 7.95232C123.034 7.70473 123.131 7.46788 123.302 7.29433L123.159 7.15399C122.951 7.36547 122.834 7.65294 122.834 7.95232L123.034 7.95232ZM123.034 10.3397V7.95232H122.834V10.3397H123.034ZM123.268 10.1843C123.143 10.1834 123.019 10.204 122.901 10.2452L122.967 10.4341C123.064 10.4004 123.165 10.3836 123.267 10.3843L123.268 10.1843ZM25.28 9.89799H24.595V10.098H25.28V9.89799ZM26.3396 11.0485C26.3396 10.4436 25.8813 9.93862 25.2868 9.89822L25.2732 10.0978C25.7587 10.1307 26.1396 10.5446 26.1396 11.0485H26.3396ZM25.2868 12.1988C25.8813 12.1584 26.3396 11.6535 26.3396 11.0485H26.1396C26.1396 11.5524 25.7587 11.9663 25.2732 11.9993L25.2868 12.1988ZM24.5814 12.199H25.28V11.999H24.5814V12.199ZM24.6814 12.8009V12.099H24.4814V12.8009H24.6814ZM23.5583 13.9491C24.1809 13.9491 24.6814 13.4328 24.6814 12.8009H24.4814C24.4814 13.3269 24.0659 13.7491 23.5583 13.7491V13.9491ZM22.4352 12.8009C22.4352 13.4328 22.9358 13.9491 23.5583 13.9491V13.7491C23.0508 13.7491 22.6352 13.3269 22.6352 12.8009H22.4352ZM22.4352 12.0852V12.8009H22.6352V12.0852H22.4352ZM21.8502 12.1852H22.5352V11.9852H21.8502V12.1852ZM20.8177 11.6321C21.0355 11.9996 21.4359 12.2136 21.8569 12.185L21.8434 11.9854C21.4993 12.0088 21.17 11.8341 20.9898 11.5301L20.8177 11.6321ZM20.8177 10.4373C20.6001 10.8045 20.6001 11.2649 20.8177 11.6321L20.9898 11.5301C20.8095 11.2258 20.8095 10.8435 20.9898 10.5392L20.8177 10.4373ZM21.8569 9.88437C21.4359 9.85575 21.0355 10.0698 20.8177 10.4373L20.9898 10.5392C21.17 10.2352 21.4993 10.0605 21.8434 10.0839L21.8569 9.88437ZM22.5352 9.88414H21.8502V10.0841H22.5352V9.88414ZM22.4352 9.26839V9.98414H22.6352V9.26839H22.4352ZM23.5651 8.11325C22.9388 8.11325 22.4352 8.63273 22.4352 9.26839H22.6352C22.6352 8.73858 23.0538 8.31325 23.5651 8.31325V8.11325ZM24.695 9.26839C24.695 8.63273 24.1914 8.11325 23.5651 8.11325V8.31325C24.0764 8.31325 24.495 8.73858 24.495 9.26839H24.695ZM24.695 9.99799V9.26839H24.495V9.99799H24.695Z" fill="#646F87"/>
</svg>
