<svg width="191" height="21" viewBox="0 0 191 21" fill="none" xmlns="http://www.w3.org/2000/svg">
<path fill-rule="evenodd" clip-rule="evenodd" d="M41.175 1.64713C41.1726 1.60782 41.1726 1.56839 41.175 1.52908L41.202 1.52346C41.1999 1.48226 41.1999 1.44098 41.202 1.39978V1.27048V1.14681C41.199 1.10564 41.199 1.0643 41.202 1.02313C41.1989 0.98197 41.1989 0.940621 41.202 0.899458C41.214 0.859208 41.2284 0.81978 41.2452 0.781404L41.2937 0.668972C41.3134 0.632132 41.335 0.596472 41.3585 0.562161L41.4286 0.466594L41.5095 0.376648C41.5203 0.36317 41.5363 0.35059 41.5515 0.338548C41.5745 0.320455 41.5959 0.303579 41.5959 0.286702L41.693 0.213621L41.8009 0.151784L41.9088 0.0955674L42.0221 0.0562161L42.1462 0H42.2649H42.5077H42.6264L42.7343 0.0562161L42.8422 0.0955674L42.9555 0.151784L43.058 0.213621L43.1659 0.286702C43.1936 0.314317 43.2189 0.344415 43.2415 0.376648C43.2725 0.402336 43.2998 0.432642 43.3224 0.466594L43.3979 0.562161L43.4681 0.657728L43.522 0.770161C43.5598 0.809512 43.5598 0.848863 43.5598 0.888215L43.5922 1.01189V1.13557C43.5949 1.17674 43.5949 1.21806 43.5922 1.25924C43.5949 1.30229 43.5949 1.34548 43.5922 1.38854V1.51221L43.5598 1.63027C43.522 1.66962 43.522 1.70897 43.522 1.74832C43.5073 1.78742 43.4893 1.82505 43.4681 1.86075C43.4515 1.8982 43.4317 1.93396 43.4087 1.96756C43.388 2.00464 43.3626 2.03867 43.3332 2.06875C43.3107 2.10445 43.2835 2.13663 43.2523 2.16432L43.1659 2.24864L43.0311 2.33859L42.9285 2.40605L42.8152 2.45664L42.7073 2.496C42.6687 2.51056 42.629 2.52184 42.5886 2.52973C42.5493 2.53557 42.5093 2.53557 42.4699 2.52973H42.2271C42.1877 2.53521 42.1478 2.53521 42.1084 2.52973L41.9951 2.496L41.8818 2.45664L41.7739 2.40605L41.666 2.33859L41.5689 2.26551L41.4826 2.18119L41.4016 2.08562C41.374 2.05531 41.3504 2.02128 41.3315 1.98443C41.3068 1.95098 41.2851 1.91522 41.2668 1.87762L41.2182 1.76519C41.2015 1.72681 41.187 1.68738 41.175 1.64713ZM45.3511 1.64713C45.3486 1.60782 45.3486 1.56839 45.3511 1.52908L45.3781 1.52346C45.3759 1.48226 45.3759 1.44098 45.3781 1.39978V1.27048V1.14681C45.375 1.10564 45.375 1.0643 45.3781 1.02313C45.375 0.98197 45.375 0.940621 45.3781 0.899458C45.3901 0.859208 45.4045 0.81978 45.4212 0.781404C45.4351 0.742911 45.4514 0.705361 45.4698 0.668972L45.5345 0.562161L45.5939 0.466594L45.6748 0.376648C45.6856 0.36317 45.7015 0.35059 45.7168 0.338548C45.7397 0.320455 45.7611 0.303579 45.7611 0.286702L45.8636 0.213621C45.8993 0.189098 45.9373 0.168381 45.9769 0.151784L46.0849 0.0955674L46.1982 0.0562161L46.3115 0H46.4302H46.673H46.7916L46.9104 0.0562161L47.0237 0.0955674L47.1316 0.151784L47.2341 0.213621L47.3312 0.286702L47.4229 0.376648L47.4823 0.466594L47.574 0.562161L47.6118 0.674593L47.6657 0.787026C47.6807 0.825491 47.6933 0.864924 47.7035 0.905079L47.7358 1.02875V1.15243C47.7385 1.19361 47.7385 1.23493 47.7358 1.27611C47.7385 1.31916 47.7385 1.36235 47.7358 1.4054V1.52908L47.7035 1.64713C47.6933 1.68729 47.6807 1.72672 47.6657 1.76519C47.651 1.80428 47.6329 1.84191 47.6118 1.87762C47.5952 1.91507 47.5753 1.95082 47.5524 1.98443C47.5316 2.02004 47.5082 2.05388 47.4823 2.08562L47.4229 2.16432L47.3312 2.24864L47.2071 2.33859L47.1046 2.40605L46.9967 2.45664L46.8834 2.496C46.8445 2.50984 46.8049 2.52111 46.7647 2.52973C46.7253 2.53521 46.6854 2.53521 46.646 2.52973H46.4032H46.2845C46.246 2.52109 46.2082 2.50982 46.1712 2.496L46.0579 2.45664L45.95 2.40605L45.8475 2.33859L45.7449 2.26551L45.6586 2.18119L45.5777 2.08562C45.5501 2.05531 45.5265 2.02128 45.5075 1.98443L45.4428 1.87762C45.4234 1.84175 45.4071 1.80412 45.3942 1.76519C45.3775 1.72681 45.3631 1.68738 45.3511 1.64713ZM90.1815 17.9892H91.2983H91.3037C91.9501 18.0338 92.4525 18.5931 92.4525 19.2681C92.4525 19.943 91.9501 20.5023 91.3037 20.547H76.1966C75.7386 20.5786 75.3019 20.342 75.0637 19.9333C74.8255 19.5245 74.8255 19.0116 75.0637 18.6029C75.3019 18.1941 75.7386 17.9575 76.1966 17.9892H77.3081V11.1477C77.311 7.59622 80.0719 4.71711 83.4804 4.71091H87.0953C88.7985 4.714 90.1785 6.15185 90.1815 7.92647V17.9892ZM83.4804 7.26874C81.4264 7.27184 79.763 9.00759 79.763 11.1477V17.9892H87.732V7.92647C87.729 7.56231 87.4448 7.26873 87.0953 7.26874H83.4804ZM73.2129 9.30939C73.2149 10.5619 72.7211 11.7597 71.8479 12.6205H71.8371C73.1403 13.9165 73.5554 15.9083 72.8855 17.6507C72.2157 19.3931 70.5956 20.5355 68.7941 20.5357H63.6685C63.0221 20.4911 62.5197 19.9318 62.5197 19.2568C62.5197 18.5819 63.0221 18.0226 63.6685 17.9779H68.7941C69.8344 17.921 70.6499 17.0255 70.6499 15.9401C70.6499 14.8547 69.8344 13.9592 68.7941 13.9022H66.2745C65.6281 13.8576 65.1257 13.2983 65.1257 12.6233C65.1257 11.9484 65.6281 11.3891 66.2745 11.3444H68.7941C69.8344 11.2875 70.6499 10.392 70.6499 9.30658C70.6499 8.22117 69.8344 7.32569 68.7941 7.26874H63.6685C63.0221 7.22407 62.5197 6.66477 62.5197 5.98983C62.5197 5.31488 63.0221 4.75559 63.6685 4.71091H68.8049C71.2403 4.71401 73.2129 6.77191 73.2129 9.30939ZM24.6705 4.71091H30.6918C32.8947 4.71401 34.679 6.5756 34.679 8.8709V13.2389C34.8407 15.9529 33.543 18.536 31.3103 19.944C29.0776 21.352 26.2793 21.352 24.0466 19.944C21.8139 18.536 20.5161 15.9529 20.6779 13.2389V8.8709C20.6809 6.57469 22.4667 4.71401 24.6705 4.71091ZM27.6811 17.9779C30.1931 17.9779 32.2295 15.8562 32.2295 13.2389V8.8709C32.2295 8.44598 32.0674 8.03847 31.7791 7.73801C31.4907 7.43754 31.0996 7.26874 30.6918 7.26874H24.6705C23.8213 7.26874 23.1328 7.98605 23.1328 8.8709V13.2389C23.1328 15.8562 25.1692 17.9779 27.6811 17.9779ZM13.7448 4.71091H13.9498C15.1078 4.68788 16.214 5.21045 16.9605 6.13318C17.6067 6.97236 17.952 8.01997 17.937 9.09577V19.254C17.937 19.9588 17.3887 20.5301 16.7123 20.5301C16.0359 20.5301 15.4875 19.9588 15.4875 19.254V9.09577C15.4875 7.31934 14.1063 7.26874 13.9498 7.26874H13.7934C11.8029 7.34356 10.2192 9.03318 10.1946 11.1083V12.6261C10.1946 13.3309 9.64628 13.9022 8.96987 13.9022C8.29345 13.9022 7.74511 13.3309 7.74511 12.6261V11.2151V11.1645V11.1083C7.72336 9.0341 6.14134 7.34367 4.15177 7.26874H3.98991C3.83344 7.26874 2.45762 7.31934 2.45762 9.09577V19.254C2.48799 19.7312 2.26091 20.1863 1.86861 20.4344C1.4763 20.6826 0.984021 20.6826 0.591715 20.4344C0.19941 20.1863 -0.0276709 19.7312 0.00270759 19.254V9.09577C-0.0117733 8.02082 0.335674 6.97456 0.984671 6.1388C1.728 5.21497 2.83313 4.69195 3.98991 4.71653H4.20573C5.81857 4.74989 7.35153 5.45437 8.4627 6.67285C8.64375 6.87543 8.81483 7.08745 8.97526 7.30809C9.13188 7.08232 9.30124 6.86645 9.48243 6.66161C10.5965 5.44487 12.1311 4.74255 13.7448 4.71091ZM98.1505 4.71091H104.172C106.376 4.71401 108.161 6.57469 108.164 8.8709V13.2389C108.326 15.9529 107.028 18.536 104.796 19.944C102.563 21.352 99.7647 21.352 97.532 19.944C95.2993 18.536 94.0015 15.9529 94.1633 13.2389V8.8709C94.1633 6.5756 95.9476 4.71401 98.1505 4.71091ZM103.435 17.343C104.843 16.4965 105.709 14.932 105.709 13.2389V8.8709C105.709 7.98605 105.021 7.26874 104.172 7.26874H98.1505C97.3013 7.26874 96.6128 7.98605 96.6128 8.8709V13.2389C96.6128 14.932 97.4797 16.4965 98.887 17.343C100.294 18.1895 102.028 18.1895 103.435 17.343ZM137.467 4.71091H131.44C129.238 4.7171 127.456 6.57688 127.453 8.8709V13.2389C127.453 17.275 130.593 20.547 134.467 20.547C138.341 20.547 141.481 17.275 141.481 13.2389V8.8709C141.478 6.57688 139.695 4.7171 137.494 4.71091H137.467ZM139.026 13.2389C139.083 14.9699 138.23 16.5955 136.8 17.4787C135.37 18.3619 133.591 18.3619 132.161 17.4787C130.731 16.5955 129.878 14.9699 129.935 13.2389V8.8709C129.933 8.4465 130.094 8.03897 130.382 7.73834C130.669 7.43772 131.06 7.26874 131.467 7.26874H137.494C137.901 7.26874 138.292 7.43772 138.579 7.73834C138.867 8.03897 139.028 8.4465 139.026 8.8709V13.2389ZM45.1137 15.1334H41.1211C40.715 15.1319 40.3119 15.0597 39.9287 14.9198V14.9591C39.9287 16.6198 41.216 17.9686 42.8098 17.9779H48.6045C49.2509 18.0226 49.7532 18.5819 49.7532 19.2568C49.7532 19.9318 49.2509 20.4911 48.6045 20.5357H42.8098C39.8572 20.5296 37.466 18.0355 37.463 14.9591V8.51112C37.4689 6.41488 39.0984 4.71708 41.1103 4.71091H47.8168C49.832 4.71401 51.4641 6.41703 51.4641 8.51674C51.4611 12.1697 48.6197 15.1303 45.1137 15.1334ZM40.276 7.63461C40.0523 7.86882 39.9273 8.18627 39.9287 8.51674V11.3332C39.9287 12.0149 40.456 12.5694 41.1103 12.5755H45.1137C47.2639 12.5724 49.0062 10.7571 49.0092 8.51674C49.0106 8.18627 48.8856 7.86882 48.6618 7.63461C48.4381 7.4004 48.134 7.26874 47.8168 7.26874H41.1211C40.8039 7.26874 40.4998 7.4004 40.276 7.63461ZM188.135 17.888H182.367C180.771 17.8849 179.478 16.5376 179.475 14.8748V14.8298C179.861 14.9698 180.265 15.042 180.673 15.0434H184.671C188.165 15.0249 190.991 12.0732 191 8.43242C190.997 6.3318 189.363 4.62968 187.347 4.62659H180.646C179.674 4.6221 178.74 5.02091 178.051 5.73497C177.362 6.44903 176.973 7.4196 176.972 8.43242V14.8748C176.975 16.3602 177.546 17.7832 178.558 18.8287C179.571 19.8743 180.942 20.4563 182.367 20.4458H188.162C188.62 20.4775 189.057 20.2409 189.295 19.8321C189.533 19.4233 189.533 18.9104 189.295 18.5017C189.057 18.0929 188.62 17.8563 188.162 17.888H188.135ZM180.673 7.20691H187.374C188.017 7.22188 188.534 7.76275 188.545 8.43242C188.539 10.6746 186.796 12.4907 184.644 12.4968H180.646C179.984 12.4937 179.448 11.9334 179.448 11.2432V8.43242C179.448 7.74317 179.985 7.18442 180.646 7.18442L180.673 7.20691ZM114.714 4.71091H121.399C123.417 4.71091 125.052 6.41484 125.052 8.51674C125.049 12.1697 122.208 15.1303 118.702 15.1334H114.714C114.306 15.1325 113.902 15.0603 113.517 14.9198V19.2484C113.547 19.7255 113.32 20.1806 112.928 20.4288C112.535 20.677 112.043 20.677 111.651 20.4288C111.258 20.1806 111.031 19.7255 111.062 19.2484V8.51112C111.065 6.41141 112.699 4.71091 114.714 4.71091ZM114.704 12.5812H118.702V12.5755C120.846 12.5694 122.585 10.7626 122.597 8.52798C122.597 7.83873 122.061 7.27999 121.399 7.27999H114.704C114.385 7.27848 114.08 7.40949 113.855 7.64386C113.63 7.87823 113.504 8.19654 113.506 8.52798V11.3388C113.506 11.6693 113.632 11.9861 113.857 12.2193C114.082 12.4524 114.386 12.5827 114.704 12.5812ZM168.647 10.1189H164.649C164.241 10.1203 163.836 10.1925 163.451 10.3325V5.99264C163.481 5.51549 163.254 5.0604 162.862 4.81221C162.47 4.56403 161.977 4.56403 161.585 4.81221C161.193 5.0604 160.966 5.51549 160.996 5.99264V16.7299C161.005 18.8271 162.636 20.524 164.649 20.5301H171.35C173.366 20.527 175 18.8249 175.003 16.7243C174.991 13.0748 172.15 10.122 168.647 10.1189ZM171.345 17.9892H164.649C163.987 17.9892 163.451 17.4304 163.451 16.7412V13.9304C163.454 13.2433 163.989 12.688 164.649 12.688H168.647C170.799 12.688 172.545 14.5043 172.548 16.7468C172.548 17.0773 172.421 17.3941 172.197 17.6273C171.972 17.8604 171.667 17.9907 171.35 17.9892H171.345ZM153.772 4.71091H147.837C145.822 4.71401 144.189 6.41703 144.189 8.51674V16.7299C144.189 18.8296 145.822 20.5326 147.837 20.5357H153.772C155.572 20.5321 157.189 19.3902 157.859 17.6498C158.529 15.9095 158.118 13.9194 156.82 12.6205C158.12 11.3232 158.532 9.33268 157.861 7.59228C157.191 5.85187 155.572 4.71124 153.772 4.71091ZM153.772 17.9892H147.837C147.519 17.9892 147.214 17.8577 146.99 17.6236C146.765 17.3896 146.639 17.0721 146.639 16.7412V13.8348C146.768 13.8804 146.902 13.9032 147.038 13.9022H153.772C154.855 13.9022 155.733 14.8171 155.733 15.9457C155.733 17.0743 154.855 17.9892 153.772 17.9892ZM147.027 11.3557H153.772V11.3444C154.812 11.2875 155.627 10.392 155.627 9.30658C155.627 8.22117 154.812 7.32569 153.772 7.26874H147.837C147.517 7.26574 147.21 7.3959 146.983 7.63027C146.756 7.86465 146.628 8.18379 146.628 8.51674V11.4231C146.757 11.3775 146.892 11.3547 147.027 11.3557ZM28.9059 11.0071H29.726C30.3724 11.0518 30.8747 11.6111 30.8747 12.286C30.8747 12.961 30.3724 13.5203 29.726 13.5649H28.8897V14.4194C28.8897 15.1242 28.3414 15.6955 27.6649 15.6955C26.9885 15.6955 26.4402 15.1242 26.4402 14.4194V13.5481H25.6201C25.1621 13.5797 24.7254 13.3431 24.4872 12.9344C24.249 12.5256 24.249 12.0127 24.4872 11.604C24.7254 11.1952 25.1621 10.9586 25.6201 10.9902H26.4402V10.1189C26.4402 9.40947 26.9922 8.83436 27.673 8.83436C28.3539 8.83436 28.9059 9.40947 28.9059 10.1189V11.0071Z" fill="white"/>
</svg>
