<svg width="19" height="11" viewBox="0 0 19 11" fill="none" xmlns="http://www.w3.org/2000/svg">
<path fill-rule="evenodd" clip-rule="evenodd" d="M10.3891 10.5789C10.3891 10.5789 10.7163 10.5432 10.8839 10.3665C11.0374 10.2045 11.0321 9.89898 11.0321 9.89898C11.0321 9.89898 11.0117 8.47209 11.6866 8.26141C12.3518 8.05422 13.2059 9.64128 14.1123 10.2516C14.797 10.713 15.3167 10.612 15.3167 10.612L17.7388 10.5789C17.7388 10.5789 19.0053 10.5023 18.4049 9.52463C18.3552 9.44453 18.0546 8.80117 16.6045 7.47963C15.0852 6.09628 15.2892 6.32002 17.118 3.9268C18.2319 2.46945 18.6772 1.57971 18.5379 1.19927C18.4058 0.835367 17.5863 0.932002 17.5863 0.932002L14.8599 0.948543C14.8599 0.948543 14.6577 0.921555 14.5078 1.00948C14.3615 1.09567 14.2666 1.29677 14.2666 1.29677C14.2666 1.29677 13.8356 2.42418 13.26 3.38355C12.0458 5.40678 11.5607 5.51386 11.362 5.3885C10.8999 5.09511 11.0152 4.21148 11.0152 3.58379C11.0152 1.62237 11.3185 0.804897 10.4254 0.593346C10.1292 0.522829 9.91102 0.476688 9.15272 0.468853C8.17979 0.459277 7.35674 0.472335 6.89023 0.696074C6.57981 0.844944 6.34035 1.17751 6.48669 1.19666C6.66673 1.22016 7.07471 1.30461 7.29111 1.59364C7.57048 1.96712 7.56073 2.80462 7.56073 2.80462C7.56073 2.80462 7.72126 5.1134 7.18557 5.39982C6.81839 5.59657 6.31463 5.19523 5.23172 3.35918C4.67741 2.41895 4.25879 1.37948 4.25879 1.37948C4.25879 1.37948 4.17808 1.18534 4.03352 1.08087C3.8588 0.954637 3.6149 0.915461 3.6149 0.915461L1.02426 0.932002C1.02426 0.932002 0.63491 0.942449 0.492118 1.10873C0.365291 1.25586 0.482363 1.56143 0.482363 1.56143C0.482363 1.56143 2.51071 6.2199 4.80778 8.56786C6.91418 10.7199 9.30526 10.5789 9.30526 10.5789H10.3891Z" fill="white"/>
</svg>
