<svg width="41" height="40" viewBox="0 0 41 40" fill="none" xmlns="http://www.w3.org/2000/svg">
<path d="M5.5 11.6667C5.5 10.7462 6.24619 10 7.16667 10H33.8333C34.7538 10 35.5 10.7462 35.5 11.6667V13.3333C35.5 14.2538 34.7538 15 33.8333 15H7.16667C6.24619 15 5.5 14.2538 5.5 13.3333V11.6667Z" fill="#156FF0"/>
<path d="M7.16667 20C7.16667 19.0795 7.91286 18.3333 8.83333 18.3333H17.1667C18.0871 18.3333 18.8333 19.0795 18.8333 20V31.6667C18.8333 32.5871 18.0871 33.3333 17.1667 33.3333H8.83333C7.91286 33.3333 7.16667 32.5871 7.16667 31.6667V20Z" fill="#156FF0"/>
<path d="M23.8333 18.3333C22.9129 18.3333 22.1667 19.0795 22.1667 20V31.6667C22.1667 32.5871 22.9129 33.3333 23.8333 33.3333H32.1667C33.0871 33.3333 33.8333 32.5871 33.8333 31.6667V20C33.8333 19.0795 33.0871 18.3333 32.1667 18.3333H23.8333Z" fill="#156FF0"/>
<path opacity="0.3" d="M24.5755 3.61322C25.3414 3.10264 26.3761 3.30959 26.8867 4.07547C27.3973 4.84135 27.1904 5.87614 26.4245 6.38672L20.5 10.3364L14.5755 6.38672C13.8096 5.87614 13.6026 4.84135 14.1132 4.07547C14.6238 3.30959 15.6586 3.10264 16.4245 3.61322L20.5 6.33022L24.5755 3.61322Z" fill="#156FF0"/>
</svg>
